<?xml version="1.0" encoding="UTF-8" standalone="no"?>
<!DOCTYPE svg PUBLIC "-//W3C//DTD SVG 1.1//EN"
"http://www.w3.org/Graphics/SVG/1.1/DTD/svg11.dtd">
<svg viewBox="0 0 909 1286" version="1.1" xmlns="http://www.w3.org/2000/svg" xmlns:xlink="http://www.w3.org/1999/xlink">
<defs>
<clipPath id="c0_165"><path d="M35.1,1194.7V113.1H873.9V1194.7Z" /></clipPath>
</defs>
<g clip-path="url(#c0_165)">
<g fill="#000000" >
<use xlink:href="#f0_t" transform="matrix(12,0,0,12,47.4,146.7)" />
<use xlink:href="#f0_b" transform="matrix(12,0,0,12,60.3,146.7)" />
<use xlink:href="#f0_b" transform="matrix(12,0,0,12,69.3,146.7)" />
<use xlink:href="#f0_7" transform="matrix(12,0,0,12,78.3,146.7)" />
<use xlink:href="#f0_d" transform="matrix(12,0,0,12,88.1,146.7)" />
<use xlink:href="#f0_7" transform="matrix(12,0,0,12,93.8,146.7)" />
<use xlink:href="#f0_8" transform="matrix(12,0,0,12,103.6,146.7)" />
<use xlink:href="#f0_c" transform="matrix(12,0,0,12,112.2,146.7)" />
<use xlink:href="#f0_9" transform="matrix(12,0,0,12,122.6,146.7)" />
<use xlink:href="#f0_a" transform="matrix(12,0,0,12,129,146.7)" />
<use xlink:href="#f0_g" transform="matrix(12,0,0,12,134.9,146.7)" />
<use xlink:href="#f0_i" transform="matrix(12,0,0,12,145.4,146.7)" />
<use xlink:href="#f0_u" transform="matrix(12,0,0,12,162,146.7)" />
<use xlink:href="#f0_8" transform="matrix(12,0,0,12,173.2,146.7)" />
<use xlink:href="#f0_g" transform="matrix(12,0,0,12,181.9,146.7)" />
<use xlink:href="#f0_f" transform="matrix(12,0,0,12,192.4,146.7)" />
<use xlink:href="#f0_y" transform="matrix(12,0,0,12,203.7,146.7)" />
<use xlink:href="#f0_b" transform="matrix(12,0,0,12,215.3,146.7)" />
<use xlink:href="#f0_7" transform="matrix(12,0,0,12,224.3,146.7)" />
<use xlink:href="#f0_f" transform="matrix(12,0,0,12,234.1,146.7)" />
<use xlink:href="#f0_a" transform="matrix(12,0,0,12,250.1,146.7)" />
<use xlink:href="#f0_i" transform="matrix(12,0,0,12,256,146.7)" />
<use xlink:href="#f0_9" transform="matrix(12,0,0,12,272.5,146.7)" />
<use xlink:href="#f0_m" transform="matrix(12,0,0,12,279,146.7)" />
<use xlink:href="#f0_7" transform="matrix(12,0,0,12,290.6,146.7)" />
<use xlink:href="#f0_12" transform="matrix(12,0,0,12,305.2,146.7)" />
<use xlink:href="#f0_g" transform="matrix(12,0,0,12,316.4,146.7)" />
<use xlink:href="#f0_f" transform="matrix(12,0,0,12,327,146.7)" />
<use xlink:href="#f0_e" transform="matrix(12,0,0,12,338.2,146.7)" />
<use xlink:href="#f0_n" transform="matrix(12,0,0,12,348.6,146.7)" />
</g>
</g>
<image preserveAspectRatio="none" x="358" y="113" width="227" height="58" xlink:href="img/1.png" />
<g clip-path="url(#c0_165)">
<g fill="#000000" >
<use xlink:href="#f0_1e" transform="matrix(12,0,0,12,47.4,212.4)" />
<use xlink:href="#f0_a" transform="matrix(12,0,0,12,53.7,212.4)" />
<use xlink:href="#f0_1f" transform="matrix(12,0,0,12,59.5,212.4)" />
<use xlink:href="#f0_t" transform="matrix(12,0,0,12,70.6,212.4)" />
<use xlink:href="#f0_9" transform="matrix(12,0,0,12,83.5,212.4)" />
<use xlink:href="#f1_a" transform="matrix(12,0,0,12,94.7,212.4)" />
<use xlink:href="#f0_o" transform="matrix(12,0,0,12,101.5,212.4)" />
<use xlink:href="#f0_15" transform="matrix(12,0,0,12,116.4,212.4)" />
<use xlink:href="#f0_1b" transform="matrix(12,0,0,12,122.1,212.4)" />
<use xlink:href="#f0_k" transform="matrix(12,0,0,12,137.1,212.4)" />
<use xlink:href="#f0_t" transform="matrix(12,0,0,12,47.4,262.8)" />
<use xlink:href="#f0_b" transform="matrix(12,0,0,12,60.3,262.8)" />
<use xlink:href="#f0_b" transform="matrix(12,0,0,12,69.3,262.8)" />
<use xlink:href="#f0_7" transform="matrix(12,0,0,12,78.3,262.8)" />
<use xlink:href="#f0_d" transform="matrix(12,0,0,12,88.1,262.8)" />
<use xlink:href="#f0_7" transform="matrix(12,0,0,12,93.8,262.8)" />
<use xlink:href="#f0_8" transform="matrix(12,0,0,12,103.6,262.8)" />
<use xlink:href="#f0_c" transform="matrix(12,0,0,12,112.2,262.8)" />
<use xlink:href="#f0_9" transform="matrix(12,0,0,12,122.6,262.8)" />
<use xlink:href="#f0_a" transform="matrix(12,0,0,12,129,262.8)" />
<use xlink:href="#f0_g" transform="matrix(12,0,0,12,134.9,262.8)" />
<use xlink:href="#f0_i" transform="matrix(12,0,0,12,145.4,262.8)" />
<use xlink:href="#f0_n" transform="matrix(12,0,0,12,157.2,262.8)" />
<use xlink:href="#f1_3" transform="matrix(12,0,0,12,166.6,262.8)" />
<use xlink:href="#f0_v" transform="matrix(12,0,0,12,177.2,262.8)" />
<use xlink:href="#f0_o" transform="matrix(12,0,0,12,186,262.8)" />
<use xlink:href="#f0_p" transform="matrix(12,0,0,12,200.9,262.8)" />
<use xlink:href="#f0_c" transform="matrix(12,0,0,12,215.9,262.8)" />
<use xlink:href="#f0_i" transform="matrix(12,0,0,12,226.3,262.8)" />
<use xlink:href="#f0_f" transform="matrix(12,0,0,12,238.1,262.8)" />
<use xlink:href="#f1_8" transform="matrix(12,0,0,12,254.1,262.8)" />
<use xlink:href="#f0_o" transform="matrix(12,0,0,12,269.8,262.8)" />
<use xlink:href="#f0_3" transform="matrix(12,0,0,12,284.8,262.8)" />
<use xlink:href="#f0_p" transform="matrix(12,0,0,12,295,262.8)" />
<use xlink:href="#f0_w" transform="matrix(12,0,0,12,310,262.8)" />
<use xlink:href="#f0_18" transform="matrix(12,0,0,12,327.3,262.8)" />
<use xlink:href="#f0_k" transform="matrix(12,0,0,12,332.6,262.8)" />
</g>
</g>
<image preserveAspectRatio="none" x="47" y="290" width="142" height="64" xlink:href="img/2.png" />
<g clip-path="url(#c0_165)">
<g fill="#000000" >
<use xlink:href="#f0_o" transform="matrix(12,0,0,12,47.4,398.8)" />
</g>
</g>
<image preserveAspectRatio="none" x="63" y="373" width="174" height="41" xlink:href="img/3.png" />
<g clip-path="url(#c0_165)">
<g fill="#000000" >
<use xlink:href="#f0_1e" transform="matrix(12,0,0,12,47.4,455.3)" />
<use xlink:href="#f0_a" transform="matrix(12,0,0,12,53.7,455.3)" />
<use xlink:href="#f0_a" transform="matrix(12,0,0,12,59.5,455.3)" />
<use xlink:href="#f0_1f" transform="matrix(12,0,0,12,65.4,455.3)" />
<use xlink:href="#f0_t" transform="matrix(12,0,0,12,76.5,455.3)" />
<use xlink:href="#f0_9" transform="matrix(12,0,0,12,89.4,455.3)" />
<use xlink:href="#f1_a" transform="matrix(12,0,0,12,100.6,455.3)" />
<use xlink:href="#f0_o" transform="matrix(12,0,0,12,107.3,455.3)" />
<use xlink:href="#f0_1g" transform="matrix(12,0,0,12,122.3,455.3)" />
<use xlink:href="#f0_1b" transform="matrix(12,0,0,12,132.5,455.3)" />
<use xlink:href="#f0_k" transform="matrix(12,0,0,12,147.5,455.3)" />
<use xlink:href="#f0_t" transform="matrix(12,0,0,12,47.4,505.7)" />
<use xlink:href="#f0_b" transform="matrix(12,0,0,12,60.3,505.7)" />
<use xlink:href="#f0_b" transform="matrix(12,0,0,12,69.3,505.7)" />
<use xlink:href="#f0_7" transform="matrix(12,0,0,12,78.3,505.7)" />
<use xlink:href="#f0_d" transform="matrix(12,0,0,12,88.1,505.7)" />
<use xlink:href="#f0_7" transform="matrix(12,0,0,12,93.8,505.7)" />
<use xlink:href="#f0_8" transform="matrix(12,0,0,12,103.6,505.7)" />
<use xlink:href="#f0_c" transform="matrix(12,0,0,12,112.2,505.7)" />
<use xlink:href="#f0_9" transform="matrix(12,0,0,12,122.6,505.7)" />
<use xlink:href="#f0_a" transform="matrix(12,0,0,12,129,505.7)" />
<use xlink:href="#f0_g" transform="matrix(12,0,0,12,134.9,505.7)" />
<use xlink:href="#f0_i" transform="matrix(12,0,0,12,145.4,505.7)" />
<use xlink:href="#f0_n" transform="matrix(12,0,0,12,157.2,505.7)" />
<use xlink:href="#f1_3" transform="matrix(12,0,0,12,166.6,505.7)" />
<use xlink:href="#f0_v" transform="matrix(12,0,0,12,177.2,505.7)" />
<use xlink:href="#f0_v" transform="matrix(12,0,0,12,181.2,505.7)" />
<use xlink:href="#f0_o" transform="matrix(12,0,0,12,190,505.7)" />
</g>
</g>
<image preserveAspectRatio="none" x="205" y="484" width="99" height="34" xlink:href="img/4.png" />
<g clip-path="url(#c0_165)">
<g fill="#000000" >
<use xlink:href="#f0_c" transform="matrix(12,0,0,12,304.3,505.7)" />
<use xlink:href="#f0_i" transform="matrix(12,0,0,12,314.6,505.7)" />
<use xlink:href="#f0_f" transform="matrix(12,0,0,12,326.4,505.7)" />
<use xlink:href="#f1_8" transform="matrix(12,0,0,12,342.4,505.7)" />
<use xlink:href="#f0_o" transform="matrix(12,0,0,12,358.1,505.7)" />
<use xlink:href="#f0_3" transform="matrix(12,0,0,12,373.1,505.7)" />
<use xlink:href="#f0_p" transform="matrix(12,0,0,12,383.4,505.7)" />
<use xlink:href="#f0_w" transform="matrix(12,0,0,12,398.4,505.7)" />
<use xlink:href="#f0_18" transform="matrix(12,0,0,12,415.7,505.7)" />
<use xlink:href="#f0_k" transform="matrix(12,0,0,12,420.9,505.7)" />
</g>
</g>
<image preserveAspectRatio="none" x="47" y="536" width="147" height="60" xlink:href="img/5.png" />
<image preserveAspectRatio="none" x="47" y="614" width="271" height="63" xlink:href="img/6.png" />
<image preserveAspectRatio="none" x="47" y="698" width="239" height="29" xlink:href="img/7.png" />
<g clip-path="url(#c0_165)">
<g fill="#000000" >
<use xlink:href="#f0_1e" transform="matrix(12,0,0,12,47.4,768.5)" />
<use xlink:href="#f0_a" transform="matrix(12,0,0,12,53.7,768.5)" />
<use xlink:href="#f0_a" transform="matrix(12,0,0,12,59.5,768.5)" />
<use xlink:href="#f0_a" transform="matrix(12,0,0,12,65.4,768.5)" />
<use xlink:href="#f0_1f" transform="matrix(12,0,0,12,71.2,768.5)" />
<use xlink:href="#f0_t" transform="matrix(12,0,0,12,82.3,768.5)" />
<use xlink:href="#f0_9" transform="matrix(12,0,0,12,95.2,768.5)" />
<use xlink:href="#f1_a" transform="matrix(12,0,0,12,106.4,768.5)" />
<use xlink:href="#f0_o" transform="matrix(12,0,0,12,113.2,768.5)" />
<use xlink:href="#f0_3" transform="matrix(12,0,0,12,128.1,768.5)" />
<use xlink:href="#f0_p" transform="matrix(12,0,0,12,138.4,768.5)" />
<use xlink:href="#f0_p" transform="matrix(12,0,0,12,148.6,768.5)" />
<use xlink:href="#f0_k" transform="matrix(12,0,0,12,163.6,768.5)" />
<use xlink:href="#f0_19" transform="matrix(12,0,0,12,47.4,818.9)" />
<use xlink:href="#f0_g" transform="matrix(12,0,0,12,58.2,818.9)" />
<use xlink:href="#f0_8" transform="matrix(12,0,0,12,68.7,818.9)" />
</g>
</g>
<image preserveAspectRatio="none" x="83" y="801" width="110" height="27" xlink:href="img/8.png" />
<g clip-path="url(#c0_165)">
<g fill="#000000" >
<use xlink:href="#f1_3" transform="matrix(12,0,0,12,47.4,869.3)" />
<use xlink:href="#f0_o" transform="matrix(12,0,0,12,58,869.3)" />
</g>
</g>
<image preserveAspectRatio="none" x="73" y="848" width="100" height="34" xlink:href="img/9.png" />
<g clip-path="url(#c0_165)">
<g fill="#000000" >
<use xlink:href="#f1_8" transform="matrix(12,0,0,12,47.4,922.8)" />
<use xlink:href="#f0_o" transform="matrix(12,0,0,12,58.3,922.8)" />
<use xlink:href="#f0_3" transform="matrix(12,0,0,12,73.3,922.8)" />
<use xlink:href="#f0_p" transform="matrix(12,0,0,12,83.6,922.8)" />
<use xlink:href="#f0_w" transform="matrix(12,0,0,12,98.6,922.8)" />
<use xlink:href="#f0_18" transform="matrix(12,0,0,12,115.9,922.8)" />
<use xlink:href="#f0_k" transform="matrix(12,0,0,12,121.1,922.8)" />
</g>
</g>
<image preserveAspectRatio="none" x="47" y="950" width="124" height="52" xlink:href="img/10.png" />
<image preserveAspectRatio="none" x="47" y="1021" width="271" height="62" xlink:href="img/11.png" />
<image preserveAspectRatio="none" x="47" y="1105" width="133" height="29" xlink:href="img/12.png" />
<image preserveAspectRatio="none" x="47" y="1155" width="109" height="29" xlink:href="img/13.png" />
<g fill="#000000" >
<use xlink:href="#f2_n" transform="matrix(12,0,0,12,835.7,1269.6)" />
<use xlink:href="#f2_o" transform="matrix(12,0,0,12,844.9,1269.6)" />
</g>
<defs>
<path d="M683,442L588,709c0,0,-25,68,-43,127c0,0,-21,59,-33,114c0,0,-6,-28,-12,-53c0,0,-8,-26,-16,-53c0,0,-9,-26,-19,-55c0,0,-10,-31,-23,-66L338,442ZM0,0V64H29c0,0,1,0,3,0c6,0,23,1,35,5c0,0,16,5,28,18c0,0,12,13,25,37c0,0,11,22,25,60l339,907H604L949,145c0,0,8,-23,19,-39c0,0,8,-16,21,-25c0,0,12,-10,29,-13c0,0,17,-4,39,-4h20V0H657V64h35c0,0,92,0,92,73c0,0,0,12,-3,26c0,0,-4,14,-10,31L710,365H309L251,204c0,0,-8,-18,-11,-35c0,0,-4,-18,-4,-30c0,0,0,-40,26,-57c0,0,24,-18,76,-18h35V0Z" 
id="f0_t"
transform="scale(0.001,-0.001)" />

<path d="M433,-14c0,0,-77,0,-141,23c0,0,-64,23,-110,74c0,0,-46,50,-72,130c0,0,-26,79,-26,192c0,0,0,122,26,205c0,0,26,82,72,132c0,0,46,49,108,71c0,0,61,21,134,21c0,0,47,0,96,-9c0,0,47,-10,85,-29c0,0,38,-19,62,-49c0,0,23,-30,24,-69c0,0,0,-54,-35,-74c0,0,-35,-22,-102,-22c0,0,0,35,-6,68c0,0,-6,32,-20,56c0,0,-15,24,-39,38c0,0,-26,14,-65,14c0,0,-44,0,-79,-16c0,0,-35,-18,-61,-57c0,0,-26,-40,-39,-108c0,0,-13,-69,-13,-170c0,0,-1,-164,54,-243c0,0,54,-80,177,-80h1c6,0,72,1,123,30c0,0,52,30,79,77c0,0,11,-10,19,-24c0,0,7,-15,7,-36c0,0,0,-27,-16,-52c0,0,-17,-26,-49,-47C627,32,594,10,546,0c0,0,-48,-14,-113,-14Z" 
id="f0_b"
transform="scale(0.001,-0.001)" />

<path d="M586,481c0,0,0,60,-9,111c0,0,-9,50,-29,85c0,0,-19,36,-51,56c0,0,-33,18,-79,19c0,0,-87,-1,-133,-69c0,0,-46,-69,-46,-202ZM439,-14c0,0,-83,0,-149,27c0,0,-66,28,-112,82c0,0,-46,53,-69,132c0,0,-25,77,-25,177c0,0,0,213,88,322c0,0,88,108,251,108c0,0,73,0,133,-23c0,0,58,-24,100,-69c0,0,41,-46,63,-114c0,0,21,-69,22,-159V399H233c0,0,0,-84,15,-143c0,0,15,-61,44,-99c0,0,28,-40,71,-57c0,0,40,-19,93,-19c1,0,2,0,4,0c0,0,38,0,73,9c0,0,33,9,62,24c0,0,26,14,48,34c0,0,21,18,35,40c0,0,10,-4,20,-19c0,0,9,-15,9,-33c0,0,0,-24,-16,-49c0,0,-17,-27,-50,-50C641,37,607,14,557,0c0,0,-50,-14,-118,-14Z" 
id="f0_7"
transform="scale(0.001,-0.001)" />

<path d="M20,0V64H40c0,0,25,0,49,4c0,0,22,3,39,16c0,0,17,11,27,32c0,0,10,21,10,58V993c0,0,0,33,-10,54c0,0,-11,21,-27,32c0,0,-18,11,-40,15c0,0,-24,3,-48,3H20v64H309V174c0,0,-1,-37,10,-58c0,0,9,-21,26,-32c0,0,17,-13,41,-16c0,0,22,-4,48,-4h20V0Z" 
id="f0_d"
transform="scale(0.001,-0.001)" />

<path d="M51,0V64h4c0,0,26,0,49,4c0,0,23,3,40,16c0,0,16,11,27,32c0,0,10,21,10,58V650c0,0,0,33,-10,55c0,0,-11,20,-28,31c0,0,-17,11,-39,15c0,0,-24,3,-49,4H51v64H286L315,668h7c0,0,14,34,31,65c0,0,15,29,39,53c0,0,22,22,56,35c0,0,33,12,84,13c0,0,83,0,124,-29c0,0,41,-30,41,-82c0,0,0,-24,-8,-44c0,0,-9,-20,-25,-34c0,0,-17,-15,-44,-23c0,0,-27,-8,-66,-8c0,0,0,63,-18,92c0,0,-18,27,-62,27c0,0,-29,0,-51,-15c0,0,-22,-18,-39,-43c0,0,-17,-27,-28,-61c0,0,-13,-35,-19,-70c0,0,-8,-37,-10,-73c0,0,-4,-35,-3,-64V166c0,0,0,-33,10,-53c0,0,10,-22,27,-32c0,0,16,-10,40,-13c0,0,22,-4,48,-4h43V0Z" 
id="f0_8"
transform="scale(0.001,-0.001)" />

<path d="M348,79c0,0,46,0,85,15c0,0,36,14,64,42c0,0,25,27,40,66c0,0,14,39,14,87V412H454c0,0,-65,0,-109,-14c0,0,-44,-13,-70,-36c0,0,-27,-25,-39,-59c0,0,-12,-35,-11,-80c0,0,0,-73,30,-108c0,0,29,-36,93,-36ZM313,-14c0,0,-50,0,-94,14c0,0,-44,14,-75,45c0,0,-33,30,-50,77c0,0,-18,47,-18,109c0,0,0,123,87,182c0,0,85,59,261,60H551v93c0,0,0,42,-4,78c0,0,-5,34,-20,60c0,0,-15,26,-42,40c0,0,-28,14,-75,14c0,0,-44,0,-71,-12c0,0,-29,-13,-43,-35c0,0,-16,-23,-21,-53c0,0,-6,-31,-5,-66c0,0,-64,0,-96,21c0,0,-34,21,-34,75c0,0,0,39,22,67c0,0,21,28,60,45c0,0,36,17,87,26c0,0,49,7,107,8c0,0,69,0,122,-13c0,0,52,-15,87,-46c0,0,34,-31,53,-81c0,0,17,-52,17,-124V174c0,0,0,-33,5,-53c0,0,6,-22,17,-34c0,0,10,-12,30,-18c0,0,15,-5,38,-5c2,0,3,0,5,0h4V0H588L564,131H551c0,0,-24,-33,-46,-59c0,0,-22,-27,-49,-46C456,26,429,6,395,-3c0,0,-35,-11,-82,-11Z" 
id="f0_c"
transform="scale(0.001,-0.001)" />

<path d="M367,-14c0,0,-59,0,-100,13c0,0,-42,10,-69,38c0,0,-27,27,-39,73c0,0,-14,45,-14,112V732H29v61c0,0,28,0,61,11c0,0,32,11,58,37c0,0,26,28,43,68c0,0,15,38,28,98h70V819H489V732H289V217c0,0,-1,-78,32,-115c0,0,30,-36,83,-36c0,0,1,0,1,0c0,0,2,0,6,0c9,0,28,0,45,3c0,0,23,3,47,7V9C503,9,492,4,477,0c0,0,-15,-3,-33,-6c0,0,-20,-5,-39,-6c0,0,-20,-2,-38,-2Z" 
id="f0_9"
transform="scale(0.001,-0.001)" />

<path d="M35,0V64H55c0,0,25,0,49,4c0,0,22,3,39,13c0,0,17,10,28,32c0,0,10,20,10,53V650c0,0,0,33,-10,55c0,0,-11,20,-28,31c0,0,-17,11,-39,15c0,0,-24,3,-49,4H51v64H324V174c0,0,0,-37,10,-58c0,0,10,-21,27,-32c0,0,16,-13,40,-16c0,0,22,-4,48,-4h20V0ZM249,972c-1,0,-2,0,-3,0c0,0,-1,0,-2,0c-5,0,-20,0,-32,5c0,0,-16,5,-28,16c0,0,-12,11,-18,29c0,0,-7,18,-7,45c0,0,0,27,7,45c0,0,6,17,18,29c0,0,12,11,28,15c0,0,15,5,34,5c0,0,18,0,34,-5c0,0,15,-4,27,-15c0,0,11,-12,19,-29c0,0,7,-18,7,-45c0,0,0,-27,-7,-45c0,0,-8,-18,-19,-29c0,0,-12,-11,-27,-16c0,0,-14,-5,-31,-5Z" 
id="f0_a"
transform="scale(0.001,-0.001)" />

<path d="M442,64c0,0,56,0,97,23c0,0,38,22,64,66c0,0,24,43,36,108c0,0,9,65,10,150c0,0,0,85,-11,149c0,0,-11,64,-36,108c0,0,-25,42,-64,64c0,0,-41,21,-98,21c0,0,-58,0,-97,-21c0,0,-39,-22,-64,-64c0,0,-25,-44,-36,-108c0,0,-11,-64,-11,-149c0,0,0,-85,11,-150c0,0,11,-65,37,-108c0,0,24,-44,65,-66c0,0,38,-23,97,-23Zm-3,-78c0,0,-83,0,-149,25c0,0,-66,26,-111,79c0,0,-47,52,-70,134c0,0,-25,79,-25,187c0,0,0,213,91,319c0,0,90,103,268,104c0,0,82,0,149,-25c0,0,65,-26,111,-79c0,0,46,-53,71,-132c0,0,23,-80,23,-187c0,0,0,-216,-91,-321C706,90,614,-14,439,-14Z" 
id="f0_g"
transform="scale(0.001,-0.001)" />

<path d="M43,0V64H55c0,0,26,0,49,4c0,0,23,3,40,16c0,0,16,11,27,32c0,0,10,21,10,58V650c0,0,0,33,-10,55c0,0,-11,20,-28,31c0,0,-17,11,-39,15c0,0,-24,3,-49,4H51v64H298L318,695h7c0,0,23,42,51,70c0,0,25,27,56,43c0,0,29,14,63,21c0,0,32,5,69,5c0,0,60,-1,108,-17c0,0,47,-18,81,-54c0,0,32,-37,50,-93c0,0,17,-58,18,-135V174c0,0,0,-37,9,-58c0,0,7,-21,23,-32c0,0,16,-13,38,-16c0,0,21,-4,47,-4h5V0H677V527c0,0,0,50,-9,89c0,0,-10,39,-29,66c0,0,-20,26,-52,41c0,0,-33,13,-78,13c0,0,-53,0,-88,-20c0,0,-36,-20,-57,-54c0,0,-22,-35,-31,-79c0,0,-10,-45,-9,-94V166c0,0,0,-33,10,-53c0,0,10,-22,27,-32c0,0,16,-10,40,-13c0,0,22,-4,48,-4h5V0Z" 
id="f0_i"
transform="scale(0.001,-0.001)" />

<path d="M518,83c0,0,50,0,86,21c0,0,35,21,58,63c0,0,23,41,33,104c0,0,10,61,11,142c0,0,-1,80,-11,142c0,0,-10,60,-33,101c0,0,-23,40,-58,60c0,0,-38,20,-88,20c0,0,-60,0,-99,-19c0,0,-41,-20,-64,-61c0,0,-24,-40,-34,-101c0,0,-10,-62,-10,-144c0,0,0,-80,10,-141c0,0,10,-62,35,-103c0,0,23,-42,64,-63c0,0,39,-21,100,-21ZM28,-366v64H40c0,0,25,0,49,4c0,0,22,3,39,16c0,0,17,11,27,33c0,0,10,21,10,58V650c0,0,0,33,-10,55c0,0,-11,20,-27,31c0,0,-18,11,-40,15c0,0,-24,3,-48,4H20v64H287L303,681h6c0,0,16,34,39,63c0,0,21,28,50,49c0,0,27,19,64,31c0,0,36,9,80,10c0,0,75,0,134,-25c0,0,58,-26,98,-76c0,0,38,-53,60,-132c0,0,20,-80,20,-190c0,0,0,-111,-20,-191c0,0,-22,-80,-60,-133c0,0,-40,-53,-98,-77c0,0,-57,-24,-131,-24c-1,0,-2,0,-3,0h-2c-8,0,-46,1,-77,10c0,0,-37,8,-65,26c0,0,-29,18,-50,43c0,0,-23,24,-39,54h-3c0,0,0,-39,0,-73c0,0,0,-15,0,-30c0,0,0,-15,0,-28c0,0,0,-14,0,-24c0,0,0,-11,0,-17V-199c0,0,0,-33,10,-54c0,0,10,-21,28,-31c0,0,17,-11,41,-14c0,0,23,-4,49,-4h5v-64Z" 
id="f0_u"
transform="scale(0.001,-0.001)" />

<path d="M421,83c0,0,59,0,100,20c0,0,39,19,65,60c0,0,23,39,34,101c0,0,10,61,10,144c0,0,0,79,-10,141c0,0,-11,61,-34,103c0,0,-25,41,-65,63c0,0,-41,21,-101,21c0,0,-51,0,-86,-21c0,0,-36,-23,-58,-64c0,0,-24,-42,-34,-103c0,0,-10,-62,-10,-141c0,0,0,-163,44,-244c0,0,43,-80,145,-80ZM395,-14c-8,0,-78,1,-133,24c0,0,-59,24,-98,77c0,0,-39,52,-60,132c0,0,-20,79,-20,189c0,0,0,110,20,191c0,0,21,80,60,133c0,0,39,51,98,77c0,0,58,25,133,25c0,0,44,0,80,-10c0,0,36,-10,65,-27c0,0,28,-18,51,-43c0,0,21,-24,39,-54h4c0,0,0,36,0,70c0,0,0,27,0,57c0,0,0,27,0,41V993c0,0,-1,33,-10,54c0,0,-11,21,-29,32c0,0,-18,11,-41,15c0,0,-24,3,-49,3H492v64H773V168c0,0,0,-34,10,-54c0,0,10,-21,27,-32c0,0,17,-11,40,-14c0,0,22,-4,48,-4h13V0H652L636,137h-6c0,0,-18,-35,-39,-62c0,0,-23,-29,-51,-48C540,27,512,6,476,-3c0,0,-36,-11,-81,-11Z" 
id="f0_f"
transform="scale(0.001,-0.001)" />

<path d="M417,-14c0,0,-60,0,-107,16c0,0,-47,17,-79,54c0,0,-33,36,-49,93c0,0,-17,57,-17,135V650c0,0,0,33,-10,55c0,0,-11,20,-27,31c0,0,-18,11,-40,15c0,0,-24,3,-48,4H35v64H309V292c0,0,0,-51,8,-89c0,0,7,-40,26,-66c0,0,18,-27,49,-40c0,0,29,-14,74,-14c1,0,2,0,3,0c0,0,50,0,88,18c0,0,35,18,59,50c0,0,23,32,34,78c0,0,12,46,12,101V645c0,0,0,35,-10,58c0,0,-10,21,-27,33c0,0,-17,11,-39,15c0,0,-24,3,-50,4h-4v64H805V166c0,0,0,-33,10,-53c0,0,10,-22,27,-32c0,0,17,-10,41,-13c0,0,21,-4,47,-4h5V0H692L672,124h-7c0,0,-24,-44,-51,-70c0,0,-28,-28,-60,-42c0,0,-31,-15,-65,-20c0,0,-35,-6,-72,-6Z" 
id="f0_y"
transform="scale(0.001,-0.001)" />

<path d="M28,0V64H40c0,0,25,0,49,4c0,0,22,3,39,16c0,0,17,11,27,32c0,0,10,21,10,58V993c0,0,0,33,-10,54c0,0,-11,21,-27,32c0,0,-18,11,-40,15c0,0,-24,3,-48,3H28v64H308V825c0,0,0,-22,0,-43c0,0,-1,-24,-4,-43c0,0,0,-23,0,-44h6c0,0,68,139,225,139c0,0,65,-1,115,-17c0,0,50,-18,85,-54c0,0,34,-37,52,-93c0,0,18,-58,18,-135V174c0,0,0,-37,9,-58c0,0,9,-21,24,-32c0,0,16,-13,38,-16c0,0,21,-4,47,-4h4V0H662V527c0,0,0,50,-9,89c0,0,-10,39,-29,66c0,0,-20,26,-52,41c0,0,-33,13,-78,13c0,0,-49,0,-82,-17c0,0,-35,-18,-58,-50c0,0,-24,-33,-34,-78c0,0,-11,-46,-11,-102V166c0,0,0,-33,10,-53c0,0,10,-22,27,-32c0,0,17,-10,40,-13c0,0,22,-4,48,-4h5V0Z" 
id="f0_m"
transform="scale(0.001,-0.001)" />

<path d="M518,83c0,0,50,0,86,21c0,0,35,21,58,63c0,0,23,41,33,104c0,0,10,61,11,142c0,0,-1,80,-11,142c0,0,-10,60,-33,101c0,0,-23,40,-58,60c0,0,-38,20,-88,20c0,0,-60,0,-99,-19c0,0,-41,-20,-64,-61c0,0,-24,-40,-34,-101c0,0,-10,-62,-10,-144c0,0,0,-80,10,-141c0,0,10,-62,35,-103c0,0,23,-42,64,-63c0,0,39,-21,100,-21Zm27,-97c-1,0,-2,0,-3,0h-2c-8,0,-46,1,-77,10c0,0,-37,8,-65,26c0,0,-29,18,-50,43c0,0,-23,24,-39,54H299L272,0H28V64H40c0,0,25,0,49,4c0,0,22,3,39,16c0,0,17,11,27,32c0,0,10,21,10,58V993c0,0,0,33,-10,54c0,0,-11,21,-27,32c0,0,-18,11,-40,15c0,0,-24,3,-48,3H28v64H306V880c0,0,0,-26,0,-59c0,0,0,-35,0,-66c0,0,0,-36,0,-74h3c0,0,16,34,39,63c0,0,21,28,50,49c0,0,27,19,64,31c0,0,36,9,80,10c0,0,75,0,134,-25c0,0,58,-26,98,-76c0,0,38,-53,60,-132c0,0,20,-80,20,-190c0,0,0,-111,-20,-191c0,0,-22,-80,-60,-133c0,0,-40,-53,-98,-77c0,0,-57,-24,-131,-24Z" 
id="f0_12"
transform="scale(0.001,-0.001)" />

<path d="M58,-366v72h1c8,0,79,1,133,23c0,0,55,24,97,64c0,0,39,40,68,95c0,0,26,55,45,118L119,674c0,0,-10,23,-20,39c0,0,-10,14,-21,25c0,0,-13,9,-29,13c0,0,-17,3,-39,4H6v64H373V755h-4c0,0,-47,0,-69,-18c0,0,-24,-18,-23,-56c0,0,-1,-13,3,-25c0,0,2,-14,9,-31L401,353c0,0,9,-27,22,-57c0,0,11,-31,22,-61c0,0,9,-31,18,-57c0,0,7,-28,11,-47h4c0,0,8,34,23,82c0,0,14,48,34,103L637,614c0,0,7,19,11,36c0,0,2,16,2,30c0,0,0,38,-24,57c0,0,-26,18,-76,18h-5v64H863V755h-4c0,0,-23,0,-38,-5c0,0,-18,-6,-30,-18c0,0,-13,-14,-24,-37c0,0,-11,-24,-25,-59L510,-5c0,0,-27,-74,-50,-130c0,0,-25,-56,-50,-95c0,0,-27,-41,-57,-67c0,0,-32,-26,-71,-41c0,0,-40,-17,-91,-22c0,0,-51,-6,-119,-6Z" 
id="f0_e"
transform="scale(0.001,-0.001)" />

<path d="M46,-234v64c0,0,74,23,110,58c0,0,34,35,35,79c0,0,-1,15,-8,26c0,0,-9,8,-21,17c0,0,-13,6,-27,15c0,0,-15,7,-27,18c0,0,-13,9,-21,26c0,0,-8,14,-8,38c0,0,0,43,29,67c0,0,28,23,71,23c0,0,23,-1,45,-8c0,0,20,-9,37,-26c0,0,16,-17,26,-41c0,0,9,-27,9,-58c0,0,0,-48,-13,-93c0,0,-14,-46,-44,-84c0,0,-30,-40,-77,-70c0,0,-49,-31,-116,-51Z" 
id="f0_n"
transform="scale(0.001,-0.001)" />

<path d="M480,-194c0,0,-106,41,-180,101c0,0,-75,59,-122,141c0,0,-48,82,-69,191c0,0,-22,107,-22,245c0,0,0,137,22,246c0,0,21,106,69,188c0,0,47,82,122,142c0,0,74,59,180,101v-69c0,0,-79,-48,-125,-114c0,0,-48,-67,-71,-146c0,0,-24,-80,-30,-168c0,0,-9,-90,-8,-180c0,0,-1,-92,8,-180c0,0,6,-88,30,-167c0,0,23,-80,71,-146c0,0,46,-68,125,-115v-70Z" 
id="f0_1e"
transform="scale(0.001,-0.001)" />

<path d="M49,-194v70c0,0,79,47,125,115c0,0,45,66,71,146c0,0,23,79,31,167c0,0,7,88,7,180c0,0,0,90,-7,180c0,0,-8,88,-31,168c0,0,-26,79,-71,146c0,0,-46,66,-125,114v69c0,0,105,-42,180,-101c0,0,75,-60,122,-142c0,0,47,-82,69,-188c0,0,21,-109,22,-246c0,0,-1,-138,-22,-245c0,0,-22,-109,-69,-191c0,0,-47,-82,-122,-141c0,0,-75,-60,-180,-101Z" 
id="f0_1f"
transform="scale(0.001,-0.001)" />

<path d="M280,-14c0,0,-167,0,-167,177c0,0,0,57,15,129l94,440H105l14,61c0,0,149,0,234,214h70L383,819H568L550,732H365L272,296c0,0,-19,-89,-18,-131c0,0,-1,-84,80,-84c0,0,1,0,1,0c0,0,61,0,125,34L486,58c0,0,-103,-72,-206,-72Z" 
id="f1_a"
transform="scale(0.001,-0.001)" />

<path d="M99,350v90H755V350Zm0,300v91H755V650Z" 
id="f0_o"
transform="scale(0.001,-0.001)" />

<path d="M38,359V474H436V359Z" 
id="f0_15"
transform="scale(0.001,-0.001)" />

<path d="M377,-14c-2,0,-3,0,-4,0c0,0,-86,0,-140,14c0,0,-57,14,-89,37c0,0,-33,21,-46,50c0,0,-14,26,-14,52c0,0,0,42,24,66c0,0,23,23,73,24c0,0,-1,-34,11,-61c0,0,11,-28,35,-49c0,0,22,-21,57,-32c0,0,33,-12,77,-12c1,0,2,0,4,0c0,0,47,0,87,13c0,0,39,12,69,43c0,0,29,29,46,80c0,0,16,49,16,122c0,0,0,60,-16,105c0,0,-17,44,-47,74c0,0,-31,30,-73,45c0,0,-43,14,-96,14c0,0,-40,0,-68,-3c0,0,-29,-3,-50,-7c0,0,-23,-6,-39,-11c0,0,-17,-7,-31,-12l-36,10l49,541H690V859H630l-6,45c0,0,-3,16,-6,28c0,0,-5,12,-14,20c0,0,-9,7,-24,11c0,0,-16,3,-39,4H245L216,631c0,0,23,8,67,17c0,0,42,7,111,8c0,0,74,0,138,-20c0,0,63,-21,110,-61c0,0,47,-40,74,-101c0,0,26,-61,26,-141c0,0,0,-79,-24,-142c0,0,-26,-64,-73,-110C645,81,597,35,529,10c0,0,-67,-24,-152,-24Z" 
id="f0_1b"
transform="scale(0.001,-0.001)" />

<path d="M321,-14c0,0,-58,0,-104,11c0,0,-48,7,-80,29c0,0,-33,20,-50,51c0,0,-18,30,-18,70c0,0,0,30,10,51c0,0,10,20,25,33c0,0,14,11,31,17c0,0,16,4,30,4c0,0,0,-41,8,-75c0,0,8,-36,28,-61c0,0,18,-28,51,-42c0,0,31,-16,78,-16c0,0,41,0,72,11c0,0,31,9,53,28c0,0,21,18,32,44c0,0,11,25,11,56c0,0,0,28,-8,49c0,0,-9,20,-30,38c0,0,-21,17,-58,37c0,0,-37,18,-92,42c0,0,-59,26,-102,51c0,0,-45,23,-72,52c0,0,-29,28,-43,65c0,0,-15,35,-14,86c0,0,-1,52,21,92c0,0,20,40,58,68c0,0,38,26,91,41c0,0,52,15,118,15c0,0,54,0,96,-12c0,0,41,-11,70,-30c0,0,28,-19,43,-44c0,0,14,-27,14,-55c0,0,-1,-42,-28,-66c0,0,-29,-25,-80,-25c-1,0,-2,0,-2,0c0,0,0,76,-32,119c0,0,-32,42,-100,42c0,0,-39,0,-66,-9c0,0,-28,-9,-45,-25c0,0,-18,-17,-26,-39c0,0,-8,-22,-8,-49c0,0,0,-29,10,-50c0,0,10,-22,34,-39c0,0,22,-18,59,-35c0,0,36,-17,86,-38c0,0,60,-26,104,-50c0,0,43,-24,72,-54c0,0,27,-29,41,-65c0,0,13,-37,13,-84c0,0,-1,-60,-21,-105c0,0,-23,-45,-62,-74C539,46,499,14,445,0c0,0,-56,-14,-124,-14Z" 
id="f0_k"
transform="scale(0.001,-0.001)" />

<path d="M318,81c2,0,76,1,159,113c0,0,84,113,111,246l57,270c0,0,-36,55,-116,55c0,0,-131,0,-219,-165c0,0,-88,-167,-88,-342c0,0,0,-177,96,-177ZM263,-14c0,0,-94,0,-145,73c0,0,-53,72,-52,205c0,0,0,210,131,390c0,0,130,180,324,180c0,0,103,-1,179,-55l67,39h49L712,328c0,0,-23,-106,-23,-169c0,0,0,-78,50,-78c0,0,44,0,111,40L877,76c0,0,-109,-90,-215,-90c0,0,-120,0,-120,126c0,0,0,48,16,119H548C548,231,438,-14,263,-14Z" 
id="f1_3"
transform="scale(0.001,-0.001)" />

<path d="M133,732L87,1091H249L203,732Z" 
id="f0_v"
transform="scale(0.001,-0.001)" />

<path d="M427,67c0,0,56,0,94,33c0,0,38,32,62,94c0,0,23,61,34,151c0,0,10,88,10,202c0,0,0,112,-10,202c0,0,-11,88,-34,150c0,0,-24,60,-61,93c0,0,-39,31,-93,31c0,0,-56,0,-94,-31c0,0,-40,-33,-63,-93c0,0,-24,-62,-34,-150c0,0,-10,-90,-10,-202c0,0,0,-114,10,-202c0,0,10,-90,34,-151c0,0,23,-62,62,-94c0,0,38,-33,93,-33Zm0,-81c0,0,-94,0,-161,39c0,0,-69,41,-112,115c0,0,-44,73,-64,178c0,0,-22,103,-21,230c0,0,-1,126,21,230c0,0,20,103,64,176c0,0,44,72,112,113c0,0,67,39,163,39c0,0,89,0,157,-39c0,0,65,-41,111,-113c0,0,45,-73,67,-176c0,0,21,-104,22,-231c0,0,-1,-127,-22,-230c0,0,-22,-104,-67,-177C697,140,652,66,585,25c0,0,-67,-39,-158,-39Z" 
id="f0_p"
transform="scale(0.001,-0.001)" />

<path d="M697,-14c-4,0,-60,1,-93,40c0,0,-36,41,-36,104c0,0,0,39,8,90H564C564,220,481,83,416,35c0,0,-66,-47,-147,-47c0,0,-164,0,-164,168c0,0,-1,48,28,168l59,268c0,0,14,60,14,91c0,0,-1,72,-107,72H87l14,64H385L284,362c0,0,-30,-139,-30,-184c0,0,-1,-94,74,-94c0,0,79,0,170,114c0,0,89,112,117,241l80,380H843L738,328c0,0,-24,-109,-23,-169c0,0,0,-78,50,-78c0,0,43,0,98,34L891,70c0,0,-98,-84,-194,-84Z" 
id="f1_8"
transform="scale(0.001,-0.001)" />

<path d="M147,0V64H249c0,0,26,0,49,4c0,0,23,3,40,16c0,0,16,11,27,32c0,0,9,21,9,58V976c0,0,-29,-35,-55,-64c0,0,-27,-29,-50,-50c0,0,-24,-22,-46,-32c0,0,-22,-12,-44,-12c0,0,-1,0,-1,0c0,0,-1,0,-1,0c-3,0,-35,0,-55,23c0,0,-21,21,-21,59c0,0,23,5,47,15c0,0,23,7,50,22c0,0,25,13,57,34c0,0,30,18,69,47l107,79h98V174c0,0,-1,-37,10,-58c0,0,9,-21,26,-32c0,0,17,-13,41,-16c0,0,22,-4,48,-4h75V0Z" 
id="f0_3"
transform="scale(0.001,-0.001)" />

<path d="M43,0V64H63c0,0,25,0,47,4c0,0,21,3,38,16c0,0,15,11,24,32c0,0,8,21,9,58V650c0,0,0,33,-9,55c0,0,-9,20,-25,31c0,0,-16,11,-37,15c0,0,-22,3,-47,4H58v64H298L318,695h7c0,0,23,42,49,70c0,0,25,27,54,43c0,0,28,14,61,21c0,0,31,5,67,5c0,0,36,0,71,-7c0,0,33,-9,62,-24c0,0,28,-17,52,-43c0,0,21,-27,36,-65h13c0,0,23,42,50,70c0,0,27,27,57,43c0,0,30,14,64,21c0,0,32,5,68,5c0,0,59,-1,105,-17c0,0,45,-18,78,-54c0,0,32,-37,49,-93c0,0,17,-58,18,-135V174c0,0,0,-37,9,-58c0,0,9,-21,24,-32c0,0,16,-13,37,-16c0,0,21,-4,47,-4h5V0H1135V527c0,0,0,50,-8,89c0,0,-9,39,-27,66c0,0,-21,26,-50,41c0,0,-32,13,-75,13c0,0,-48,0,-80,-18c0,0,-33,-19,-53,-50c0,0,-21,-31,-28,-72c0,0,-9,-42,-9,-87V174c0,0,0,-37,9,-58c0,0,9,-21,24,-32c0,0,16,-13,38,-16c0,0,21,-4,47,-4h4V0H662V527c0,0,-1,50,-9,89c0,0,-8,39,-27,66c0,0,-20,26,-50,41c0,0,-31,13,-75,13c0,0,-50,0,-83,-20c0,0,-35,-20,-55,-54c0,0,-22,-35,-30,-79c0,0,-9,-45,-9,-94V166c0,0,0,-33,10,-53c0,0,10,-22,27,-32c0,0,16,-10,40,-13c0,0,22,-4,48,-4h5V0Z" 
id="f0_w"
transform="scale(0.001,-0.001)" />

<path d="M0,-184L351,1161h89L90,-184Z" 
id="f0_18"
transform="scale(0.001,-0.001)" />

<path d="M78,0V112L333,407c0,0,61,70,103,126c0,0,40,56,66,106c0,0,25,49,37,97c0,0,11,47,11,100c0,0,0,43,-9,79c0,0,-11,35,-29,61c0,0,-19,25,-48,40c0,0,-31,13,-70,13c0,0,-53,0,-84,-18c0,0,-33,-20,-52,-50c0,0,-19,-31,-25,-73c0,0,-7,-41,-7,-86c0,0,-28,0,-51,4c0,0,-24,4,-42,17c0,0,-18,11,-28,30c0,0,-10,19,-10,48c0,0,0,43,19,82c0,0,19,37,57,65c0,0,36,28,93,43c0,0,56,15,130,15c0,0,72,0,130,-18c0,0,56,-19,97,-51c0,0,41,-34,62,-81c0,0,21,-47,21,-105c0,0,-1,-54,-17,-104c0,0,-18,-52,-50,-104c0,0,-33,-54,-80,-111c0,0,-48,-58,-108,-124L191,122H545c7,0,36,1,56,10c0,0,21,10,36,25c0,0,14,15,22,37c0,0,7,20,13,42l6,28h61V0Z" 
id="f0_1g"
transform="scale(0.001,-0.001)" />

<path d="M58,0V64H78c0,0,24,0,48,4c0,0,22,3,40,13c0,0,16,10,27,32c0,0,10,20,10,53V923c0,0,0,33,-10,54c0,0,-11,20,-27,32c0,0,-18,11,-40,14c0,0,-24,3,-48,3H58v65H832V824H756l-7,65c0,0,-4,26,-12,49c0,0,-9,23,-25,40c0,0,-17,16,-43,27c0,0,-26,10,-61,10H357V573H726V498H357V174c0,0,0,-37,11,-58c0,0,9,-21,27,-32c0,0,15,-13,39,-16c0,0,23,-4,49,-4h50V0Z" 
id="f0_19"
transform="scale(0.001,-0.001)" />

<path d="M238,-17c0,0,-103,0,-139,25C99,8,62,33,62,62c0,0,0,22,17,38c0,0,18,16,42,16c0,0,19,0,38,-6c0,0,13,-3,58,-27c0,0,45,-23,62,-28c0,0,27,-8,59,-8c0,0,76,0,132,59c0,0,56,59,56,140c0,0,0,59,-26,115c0,0,-19,41,-42,63c0,0,-32,30,-88,54c0,0,-56,25,-114,25H232v22c0,0,59,8,118,42c0,0,59,35,86,85c0,0,27,49,27,108c0,0,0,76,-48,124c0,0,-48,47,-120,47c0,0,-116,0,-193,-124L77,819c0,0,44,102,110,158c0,0,66,56,164,56c0,0,122,0,187,-80c0,0,49,-58,49,-126c0,0,0,-110,-139,-228c0,0,93,-36,141,-104c0,0,48,-68,48,-160c0,0,0,-131,-84,-227C553,108,444,-17,238,-17Z" 
id="f2_n"
transform="scale(0.001,-0.001)" />

<path d="M452,373V875L97,373ZM452,0V267H23v95l470,671h82V373H711V267H575V0Z" 
id="f2_o"
transform="scale(0.001,-0.001)" />


</defs>
</svg>