<?xml version="1.0" encoding="UTF-8" standalone="no"?>
<!DOCTYPE svg PUBLIC "-//W3C//DTD SVG 1.1//EN"
"http://www.w3.org/Graphics/SVG/1.1/DTD/svg11.dtd">
<svg viewBox="0 0 909 1286" version="1.1" xmlns="http://www.w3.org/2000/svg" xmlns:xlink="http://www.w3.org/1999/xlink">
<defs>
<clipPath id="c0_325"><path d="M35.1,1194.7V113.1H873.9V1194.7Z" /></clipPath>
</defs>
<image preserveAspectRatio="none" x="47" y="113" width="350" height="269" xlink:href="img/1.png" />
<g clip-path="url(#c0_325)">
<g fill="#000000" >
<use xlink:href="#f0_n" transform="matrix(12,0,0,12,47.4,423.2)" />
<use xlink:href="#f0_g" transform="matrix(12,0,0,12,54.1,423.2)" />
<use xlink:href="#f0_o" transform="matrix(12,0,0,12,65.6,423.2)" />
<use xlink:href="#f0_f" transform="matrix(12,0,0,12,80.2,423.2)" />
<use xlink:href="#f0_8" transform="matrix(12,0,0,12,96.6,423.2)" />
<use xlink:href="#f0_3" transform="matrix(12,0,0,12,102.4,423.2)" />
<use xlink:href="#f0_5" transform="matrix(12,0,0,12,115.4,423.2)" />
<use xlink:href="#f0_f" transform="matrix(12,0,0,12,121.9,423.2)" />
<use xlink:href="#f0_6" transform="matrix(12,0,0,12,133.5,423.2)" />
<use xlink:href="#f0_4" transform="matrix(12,0,0,12,148.1,423.2)" />
<use xlink:href="#f0_l" transform="matrix(12,0,0,12,158.4,423.2)" />
<use xlink:href="#f0_l" transform="matrix(12,0,0,12,167.4,423.2)" />
<use xlink:href="#f0_6" transform="matrix(12,0,0,12,176.4,423.2)" />
<use xlink:href="#f0_7" transform="matrix(12,0,0,12,186.2,423.2)" />
<use xlink:href="#f0_6" transform="matrix(12,0,0,12,191.9,423.2)" />
<use xlink:href="#f0_9" transform="matrix(12,0,0,12,201.7,423.2)" />
<use xlink:href="#f0_4" transform="matrix(12,0,0,12,210.4,423.2)" />
<use xlink:href="#f0_5" transform="matrix(12,0,0,12,220.7,423.2)" />
<use xlink:href="#f0_8" transform="matrix(12,0,0,12,227.1,423.2)" />
<use xlink:href="#f0_b" transform="matrix(12,0,0,12,233,423.2)" />
<use xlink:href="#f0_d" transform="matrix(12,0,0,12,243.5,423.2)" />
<use xlink:href="#f0_e" transform="matrix(12,0,0,12,260.1,423.2)" />
<use xlink:href="#f0_c" transform="matrix(12,0,0,12,271.3,423.2)" />
<use xlink:href="#f0_6" transform="matrix(12,0,0,12,283,423.2)" />
<use xlink:href="#f0_5" transform="matrix(12,0,0,12,297.5,423.2)" />
<use xlink:href="#f0_b" transform="matrix(12,0,0,12,304,423.2)" />
<use xlink:href="#f0_o" transform="matrix(12,0,0,12,319.3,423.2)" />
<use xlink:href="#f0_9" transform="matrix(12,0,0,12,329.2,423.2)" />
<use xlink:href="#f0_4" transform="matrix(12,0,0,12,337.8,423.2)" />
<use xlink:href="#f0_a" transform="matrix(12,0,0,12,348.1,423.2)" />
<use xlink:href="#f0_8" transform="matrix(12,0,0,12,358.7,423.2)" />
<use xlink:href="#f0_5" transform="matrix(12,0,0,12,364.5,423.2)" />
<use xlink:href="#f0_m" transform="matrix(12,0,0,12,371,423.2)" />
<use xlink:href="#f0_4" transform="matrix(12,0,0,12,386.1,423.2)" />
<use xlink:href="#f0_5" transform="matrix(12,0,0,12,396.4,423.2)" />
<use xlink:href="#f0_4" transform="matrix(12,0,0,12,407.6,423.2)" />
<use xlink:href="#f0_p" transform="matrix(12,0,0,12,422.6,423.2)" />
<use xlink:href="#f0_5" transform="matrix(12,0,0,12,433.9,423.2)" />
<use xlink:href="#f0_3" transform="matrix(12,0,0,12,445.1,423.2)" />
<use xlink:href="#f0_8" transform="matrix(12,0,0,12,453.3,423.2)" />
<use xlink:href="#f0_5" transform="matrix(12,0,0,12,459.2,423.2)" />
<use xlink:href="#f0_c" transform="matrix(12,0,0,12,465.6,423.2)" />
<use xlink:href="#f0_4" transform="matrix(12,0,0,12,477.3,423.2)" />
<use xlink:href="#f0_5" transform="matrix(12,0,0,12,487.6,423.2)" />
<use xlink:href="#f0_6" transform="matrix(12,0,0,12,494,423.2)" />
<use xlink:href="#f0_e" transform="matrix(12,0,0,12,503.8,423.2)" />
<use xlink:href="#f0_4" transform="matrix(12,0,0,12,519.8,423.2)" />
<use xlink:href="#f0_5" transform="matrix(12,0,0,12,530.1,423.2)" />
<use xlink:href="#f0_4" transform="matrix(12,0,0,12,541.3,423.2)" />
<use xlink:href="#f0_f" transform="matrix(12,0,0,12,556.4,423.2)" />
<use xlink:href="#f0_6" transform="matrix(12,0,0,12,568,423.2)" />
<use xlink:href="#f0_8" transform="matrix(12,0,0,12,577.8,423.2)" />
<use xlink:href="#f0_o" transform="matrix(12,0,0,12,583.7,423.2)" />
<use xlink:href="#f0_f" transform="matrix(12,0,0,12,593.5,423.2)" />
<use xlink:href="#f0_5" transform="matrix(12,0,0,12,605.2,423.2)" />
<use xlink:href="#f0_1a" transform="matrix(12,0,0,12,616.4,423.2)" />
<use xlink:href="#f0_f" transform="matrix(12,0,0,12,620.9,423.2)" />
<use xlink:href="#f0_q" transform="matrix(12,0,0,12,632.6,423.2)" />
<use xlink:href="#f0_4" transform="matrix(12,0,0,12,641.9,423.2)" />
<use xlink:href="#f0_k" transform="matrix(12,0,0,12,652.2,423.2)" />
<use xlink:href="#f0_b" transform="matrix(12,0,0,12,663.5,423.2)" />
<use xlink:href="#f0_a" transform="matrix(12,0,0,12,674,423.2)" />
<use xlink:href="#f0_6" transform="matrix(12,0,0,12,684.6,423.2)" />
<use xlink:href="#f0_5" transform="matrix(12,0,0,12,699.2,423.2)" />
<use xlink:href="#f0_f" transform="matrix(12,0,0,12,705.6,423.2)" />
<use xlink:href="#f0_6" transform="matrix(12,0,0,12,717.3,423.2)" />
<use xlink:href="#f0_3" transform="matrix(12,0,0,12,731.8,423.2)" />
<use xlink:href="#f0_c" transform="matrix(12,0,0,12,740.1,423.2)" />
<use xlink:href="#f0_9" transform="matrix(12,0,0,12,751.7,423.2)" />
<use xlink:href="#f0_g" transform="matrix(12,0,0,12,760.3,423.2)" />
<use xlink:href="#f0_4" transform="matrix(12,0,0,12,767.1,423.2)" />
<use xlink:href="#f0_l" transform="matrix(12,0,0,12,777.4,423.2)" />
<use xlink:href="#f0_6" transform="matrix(12,0,0,12,786.4,423.2)" />
<use xlink:href="#f0_b" transform="matrix(12,0,0,12,801,423.2)" />
<use xlink:href="#f0_g" transform="matrix(12,0,0,12,811.6,423.2)" />
<use xlink:href="#f0_5" transform="matrix(12,0,0,12,823.1,423.2)" />
<use xlink:href="#f0_f" transform="matrix(12,0,0,12,829.5,423.2)" />
<use xlink:href="#f0_6" transform="matrix(12,0,0,12,841.1,423.2)" />
<use xlink:href="#f0_6" transform="matrix(12,0,0,12,47.4,455.3)" />
<use xlink:href="#f0_4" transform="matrix(12,0,0,12,57.2,455.3)" />
<use xlink:href="#f0_9" transform="matrix(12,0,0,12,67.5,455.3)" />
<use xlink:href="#f0_5" transform="matrix(12,0,0,12,76.1,455.3)" />
<use xlink:href="#f0_f" transform="matrix(12,0,0,12,82.5,455.3)" />
<use xlink:href="#f0_o" transform="matrix(12,0,0,12,47.4,525.6)" />
<use xlink:href="#f0_f" transform="matrix(12,0,0,12,62,525.6)" />
<use xlink:href="#f0_i" transform="matrix(12,0,0,12,78.3,525.6)" />
</g>
</g>
<image preserveAspectRatio="none" x="93" y="483" width="92" height="75" xlink:href="img/2.png" />
<g clip-path="url(#c0_325)">
<g fill="#000000" >
<use xlink:href="#f0_18" transform="matrix(12,0,0,12,194.5,525.6)" />
<use xlink:href="#f0_z" transform="matrix(12,0,0,12,200.8,525.6)" />
<use xlink:href="#f0_19" transform="matrix(12,0,0,12,211.1,525.6)" />
<use xlink:href="#f0_1b" transform="matrix(12,0,0,12,47.4,598.9)" />
<use xlink:href="#f0_8" transform="matrix(12,0,0,12,60.7,598.9)" />
<use xlink:href="#f0_a" transform="matrix(12,0,0,12,66.5,598.9)" />
<use xlink:href="#f0_8" transform="matrix(12,0,0,12,77.1,598.9)" />
<use xlink:href="#f0_e" transform="matrix(12,0,0,12,83,598.9)" />
<use xlink:href="#f0_6" transform="matrix(12,0,0,12,94.2,598.9)" />
<use xlink:href="#f0_18" transform="matrix(12,0,0,12,108.8,598.9)" />
<use xlink:href="#f0_z" transform="matrix(12,0,0,12,115.1,598.9)" />
<use xlink:href="#f0_19" transform="matrix(12,0,0,12,125.3,598.9)" />
<use xlink:href="#f0_k" transform="matrix(12,0,0,12,136.4,598.9)" />
<use xlink:href="#f0_m" transform="matrix(12,0,0,12,147.7,598.9)" />
<use xlink:href="#f0_18" transform="matrix(12,0,0,12,162.8,598.9)" />
<use xlink:href="#f0_11" transform="matrix(12,0,0,12,169.1,598.9)" />
<use xlink:href="#f0_19" transform="matrix(12,0,0,12,179.3,598.9)" />
</g>
</g>
<image preserveAspectRatio="none" x="47" y="626" width="240" height="80" xlink:href="img/3.png" />
<image preserveAspectRatio="none" x="47" y="724" width="164" height="80" xlink:href="img/4.png" />
<g clip-path="url(#c0_325)">
<g fill="#000000" >
<use xlink:href="#f0_o" transform="matrix(12,0,0,12,47.4,869.3)" />
<use xlink:href="#f0_f" transform="matrix(12,0,0,12,62,869.3)" />
<use xlink:href="#f0_i" transform="matrix(12,0,0,12,78.3,869.3)" />
<use xlink:href="#f0_o" transform="matrix(12,0,0,12,93.3,869.3)" />
</g>
</g>
<image preserveAspectRatio="none" x="108" y="822" width="117" height="86" xlink:href="img/5.png" />
<g clip-path="url(#c0_325)">
<g fill="#000000" >
<use xlink:href="#f0_n" transform="matrix(12,0,0,12,47.4,948.8)" />
<use xlink:href="#f0_g" transform="matrix(12,0,0,12,54.1,948.8)" />
<use xlink:href="#f0_f" transform="matrix(12,0,0,12,65.6,948.8)" />
<use xlink:href="#f0_1c" transform="matrix(12,0,0,12,82,948.8)" />
<use xlink:href="#f0_1c" transform="matrix(12,0,0,12,92.2,948.8)" />
<use xlink:href="#f0_1c" transform="matrix(12,0,0,12,102.5,948.8)" />
<use xlink:href="#f0_r" transform="matrix(12,0,0,12,117.4,948.8)" />
<use xlink:href="#f0_5" transform="matrix(12,0,0,12,134.2,948.8)" />
<use xlink:href="#f0_f" transform="matrix(12,0,0,12,140.7,948.8)" />
<use xlink:href="#f0_6" transform="matrix(12,0,0,12,152.3,948.8)" />
<use xlink:href="#f0_d" transform="matrix(12,0,0,12,162.1,948.8)" />
<use xlink:href="#f0_5" transform="matrix(12,0,0,12,178.7,948.8)" />
<use xlink:href="#f0_f" transform="matrix(12,0,0,12,185.1,948.8)" />
<use xlink:href="#f0_6" transform="matrix(12,0,0,12,196.7,948.8)" />
<use xlink:href="#f0_4" transform="matrix(12,0,0,12,211.3,948.8)" />
<use xlink:href="#f0_k" transform="matrix(12,0,0,12,221.6,948.8)" />
<use xlink:href="#f0_b" transform="matrix(12,0,0,12,232.8,948.8)" />
<use xlink:href="#f0_a" transform="matrix(12,0,0,12,243.4,948.8)" />
<use xlink:href="#f0_6" transform="matrix(12,0,0,12,254,948.8)" />
<use xlink:href="#f0_9" transform="matrix(12,0,0,12,268.6,948.8)" />
<use xlink:href="#f0_6" transform="matrix(12,0,0,12,277.2,948.8)" />
<use xlink:href="#f0_7" transform="matrix(12,0,0,12,287,948.8)" />
<use xlink:href="#f0_4" transform="matrix(12,0,0,12,292.7,948.8)" />
<use xlink:href="#f0_5" transform="matrix(12,0,0,12,303,948.8)" />
<use xlink:href="#f0_8" transform="matrix(12,0,0,12,309.4,948.8)" />
<use xlink:href="#f0_b" transform="matrix(12,0,0,12,315.3,948.8)" />
<use xlink:href="#f0_d" transform="matrix(12,0,0,12,325.9,948.8)" />
<use xlink:href="#f0_o" transform="matrix(12,0,0,12,47.4,1020.6)" />
<use xlink:href="#f0_f" transform="matrix(12,0,0,12,62,1020.6)" />
<use xlink:href="#f0_i" transform="matrix(12,0,0,12,78.3,1020.6)" />
<use xlink:href="#f0_o" transform="matrix(12,0,0,12,93.3,1020.6)" />
</g>
</g>
<image preserveAspectRatio="none" x="108" y="976" width="146" height="80" xlink:href="img/6.png" />
<g clip-path="url(#c0_325)">
<g fill="#000000" >
<use xlink:href="#f0_o" transform="matrix(12,0,0,12,52.1,1101.5)" />
<use xlink:href="#f0_f" transform="matrix(12,0,0,12,66.7,1101.5)" />
<use xlink:href="#f0_i" transform="matrix(12,0,0,12,83.1,1101.5)" />
<use xlink:href="#f0_o" transform="matrix(12,0,0,12,98.1,1101.5)" />
</g>
</g>
<image preserveAspectRatio="none" x="113" y="1074" width="116" height="44" xlink:href="img/7.png" />
<g clip-path="url(#c0_325)">
<g fill="#000000" >
<use xlink:href="#f0_1d" transform="matrix(12,0,0,12,47.4,1159.6)" />
<use xlink:href="#f0_13" transform="matrix(12,0,0,12,58.8,1159.6)" />
<use xlink:href="#f0_p" transform="matrix(12,0,0,12,69.4,1159.6)" />
<use xlink:href="#f0_4" transform="matrix(12,0,0,12,80.6,1159.6)" />
<use xlink:href="#f0_d" transform="matrix(12,0,0,12,90.9,1159.6)" />
<use xlink:href="#f0_e" transform="matrix(12,0,0,12,102.7,1159.6)" />
<use xlink:href="#f0_8" transform="matrix(12,0,0,12,114,1159.6)" />
<use xlink:href="#f0_d" transform="matrix(12,0,0,12,119.8,1159.6)" />
<use xlink:href="#f0_o" transform="matrix(12,0,0,12,131.7,1159.6)" />
<use xlink:href="#f0_1e" transform="matrix(12,0,0,12,146.3,1159.6)" />
<use xlink:href="#f0_8" transform="matrix(12,0,0,12,158.2,1159.6)" />
<use xlink:href="#f0_d" transform="matrix(12,0,0,12,164.1,1159.6)" />
<use xlink:href="#f0_b" transform="matrix(12,0,0,12,175.9,1159.6)" />
<use xlink:href="#f0_y" transform="matrix(12,0,0,12,186.5,1159.6)" />
<use xlink:href="#f0_8" transform="matrix(12,0,0,12,203.8,1159.6)" />
<use xlink:href="#f0_4" transform="matrix(12,0,0,12,209.6,1159.6)" />
<use xlink:href="#f0_7" transform="matrix(12,0,0,12,220,1159.6)" />
<use xlink:href="#f0_7" transform="matrix(12,0,0,12,225.6,1159.6)" />
<use xlink:href="#f0_m" transform="matrix(12,0,0,12,231.3,1159.6)" />
<use xlink:href="#f0_4" transform="matrix(12,0,0,12,246.4,1159.6)" />
<use xlink:href="#f0_d" transform="matrix(12,0,0,12,256.7,1159.6)" />
<use xlink:href="#f0_e" transform="matrix(12,0,0,12,268.5,1159.6)" />
<use xlink:href="#f0_d" transform="matrix(12,0,0,12,284.5,1159.6)" />
<use xlink:href="#f0_6" transform="matrix(12,0,0,12,296.3,1159.6)" />
<use xlink:href="#f0_o" transform="matrix(12,0,0,12,306.2,1159.6)" />
<use xlink:href="#f0_7" transform="matrix(12,0,0,12,316,1159.6)" />
<use xlink:href="#f0_6" transform="matrix(12,0,0,12,321.7,1159.6)" />
<use xlink:href="#f0_l" transform="matrix(12,0,0,12,331.5,1159.6)" />
<use xlink:href="#f0_5" transform="matrix(12,0,0,12,340.5,1159.6)" />
<use xlink:href="#f0_8" transform="matrix(12,0,0,12,347,1159.6)" />
<use xlink:href="#f0_d" transform="matrix(12,0,0,12,352.8,1159.6)" />
<use xlink:href="#f0_o" transform="matrix(12,0,0,12,364.6,1159.6)" />
<use xlink:href="#f1_u" transform="matrix(12,0,0,12,379.2,1159.6)" />
<use xlink:href="#f1_7" transform="matrix(12,0,0,12,391.5,1159.6)" />
<use xlink:href="#f1_l" transform="matrix(12,0,0,12,397.9,1159.6)" />
<use xlink:href="#f1_u" transform="matrix(12,0,0,12,408.2,1159.6)" />
<use xlink:href="#f1_5" transform="matrix(12,0,0,12,420.4,1159.6)" />
<use xlink:href="#f1_6" transform="matrix(12,0,0,12,430.9,1159.6)" />
<use xlink:href="#f0_p" transform="matrix(12,0,0,12,445.2,1159.6)" />
<use xlink:href="#f0_b" transform="matrix(12,0,0,12,456.4,1159.6)" />
<use xlink:href="#f0_j" transform="matrix(12,0,0,12,467,1159.6)" />
<use xlink:href="#f0_6" transform="matrix(12,0,0,12,482.8,1159.6)" />
<use xlink:href="#f0_9" transform="matrix(12,0,0,12,492.6,1159.6)" />
</g>
</g>
<g fill="#000000" >
<use xlink:href="#f2_l" transform="matrix(12,0,0,12,835.7,1269.6)" />
<use xlink:href="#f2_o" transform="matrix(12,0,0,12,844.9,1269.6)" />
</g>
<defs>
<path d="M58,0V64H78c0,0,25,0,49,4c0,0,22,3,39,16c0,0,17,11,27,32c0,0,10,21,10,58V917c0,0,0,36,-10,57c0,0,-10,21,-27,34c0,0,-17,11,-39,15c0,0,-24,3,-49,3H58v65H503v-65H483c0,0,-26,0,-49,-3c0,0,-24,-4,-39,-15c0,0,-18,-13,-27,-34c0,0,-11,-21,-11,-57V174c0,0,0,-37,11,-58c0,0,9,-21,27,-32c0,0,15,-13,39,-16c0,0,23,-4,49,-4h20V0Z" 
id="f0_n"
transform="scale(0.001,-0.001)" />

<path d="M41,0V64H61c0,0,26,0,49,4c0,0,23,3,40,16c0,0,16,11,27,32c0,0,9,21,9,58V747H47v72H186v76c0,0,0,68,19,121c0,0,19,52,54,88c0,0,34,35,85,55c0,0,50,17,113,17c0,0,58,0,100,-7c0,0,41,-8,67,-22c0,0,24,-15,35,-34c0,0,12,-20,12,-43c0,0,0,-22,-9,-37c0,0,-11,-17,-26,-27c0,0,-18,-11,-40,-16c0,0,-24,-6,-51,-6c0,0,0,23,-4,45c0,0,-6,21,-17,39c0,0,-12,17,-31,28c0,0,-19,10,-48,10c0,0,-34,0,-55,-12c0,0,-22,-13,-36,-38c0,0,-13,-26,-18,-62c0,0,-6,-37,-6,-85V819H545V747H330V174c0,0,0,-37,10,-58c0,0,10,-21,27,-32c0,0,16,-13,40,-16c0,0,22,-4,48,-4h58V0Z" 
id="f0_g"
transform="scale(0.001,-0.001)" />

<path d="M351,-291c2,0,3,0,5,0c0,0,1,0,2,0c12,0,84,1,134,15c0,0,52,13,84,38c0,0,31,23,44,58c0,0,12,34,13,74c0,0,0,35,-10,59c0,0,-11,22,-30,35c0,0,-20,12,-49,17c0,0,-29,5,-67,5H327c0,0,-33,0,-62,-5c0,0,-31,-5,-54,-20c0,0,-24,-17,-38,-44c0,0,-15,-29,-14,-74c0,0,0,-34,9,-63c0,0,9,-29,31,-50c0,0,23,-22,61,-33c0,0,35,-12,91,-12Zm34,658c0,0,1,0,1,0c0,0,37,0,64,11c0,0,24,11,42,35c0,0,15,22,23,59c0,0,7,35,7,86c0,0,0,103,-31,152c0,0,-31,49,-106,49c0,0,-74,0,-105,-50c0,0,-33,-50,-32,-153c0,0,0,-98,32,-143c0,0,32,-46,105,-46ZM353,-366c-8,0,-162,1,-239,59c0,0,-80,59,-79,164c0,0,0,45,16,78c0,0,15,34,42,58c0,0,26,22,61,38c0,0,34,14,72,21c0,0,-16,7,-31,18c0,0,-14,11,-26,27c0,0,-13,16,-20,36c0,0,-8,20,-7,45c0,0,0,45,24,79c0,0,23,32,76,64c0,0,-33,13,-58,37c0,0,-27,23,-44,54c0,0,-18,30,-27,65c0,0,-10,36,-9,74c0,0,0,66,18,119c0,0,18,51,53,89c0,0,36,36,90,56c0,0,53,18,126,19c0,0,28,-1,54,-4c0,0,26,-4,50,-11c0,0,22,-8,41,-16c0,0,18,-9,29,-19c0,0,12,12,27,27c0,0,14,14,33,27c0,0,19,12,41,20c0,0,21,7,47,8c0,0,23,-1,40,-6c0,0,17,-7,28,-17c0,0,11,-11,17,-25c0,0,5,-15,5,-31c0,0,0,-17,-4,-31c0,0,-6,-15,-15,-25c0,0,-10,-12,-25,-17c0,0,-15,-7,-36,-7c0,0,0,9,-2,18c0,0,-3,9,-8,17c0,0,-6,7,-16,13c0,0,-10,4,-25,4c0,0,-19,0,-35,-4c0,0,-16,-5,-31,-14c0,0,26,-33,44,-76c0,0,16,-44,16,-109c0,0,-1,-57,-17,-105c0,0,-17,-48,-51,-82c0,0,-35,-36,-86,-56c0,0,-52,-19,-121,-19H348c0,0,-11,0,-21,1c0,0,-10,1,-15,3c0,0,-15,-9,-29,-17c0,0,-13,-9,-23,-20c0,0,-11,-11,-16,-25c0,0,-6,-15,-6,-32c0,0,-1,-19,7,-29c0,0,7,-12,20,-18c0,0,12,-7,30,-8c0,0,17,-2,38,-2H506c0,0,68,-1,116,-17c0,0,48,-17,78,-47c0,0,30,-32,44,-73c0,0,14,-41,14,-90c0,0,-1,-67,-24,-119c0,0,-25,-53,-75,-89c0,0,-50,-38,-126,-58c0,0,-77,-20,-180,-20Z" 
id="f0_o"
transform="scale(0.001,-0.001)" />

<path d="M28,0V64H40c0,0,25,0,49,4c0,0,22,3,39,16c0,0,17,11,27,32c0,0,10,21,10,58V993c0,0,0,33,-10,54c0,0,-11,21,-27,32c0,0,-18,11,-40,15c0,0,-24,3,-48,3H28v64H308V825c0,0,0,-22,0,-43c0,0,-1,-24,-4,-43c0,0,0,-23,0,-44h6c0,0,68,139,225,139c0,0,65,-1,115,-17c0,0,50,-18,85,-54c0,0,34,-37,52,-93c0,0,18,-58,18,-135V174c0,0,0,-37,9,-58c0,0,9,-21,24,-32c0,0,16,-13,38,-16c0,0,21,-4,47,-4h4V0H662V527c0,0,0,50,-9,89c0,0,-10,39,-29,66c0,0,-20,26,-52,41c0,0,-33,13,-78,13c0,0,-49,0,-82,-17c0,0,-35,-18,-58,-50c0,0,-24,-33,-34,-78c0,0,-11,-46,-11,-102V166c0,0,0,-33,10,-53c0,0,10,-22,27,-32c0,0,17,-10,40,-13c0,0,22,-4,48,-4h5V0Z" 
id="f0_f"
transform="scale(0.001,-0.001)" />

<path d="M35,0V64H55c0,0,25,0,49,4c0,0,22,3,39,13c0,0,17,10,28,32c0,0,10,20,10,53V650c0,0,0,33,-10,55c0,0,-11,20,-28,31c0,0,-17,11,-39,15c0,0,-24,3,-49,4H51v64H324V174c0,0,0,-37,10,-58c0,0,10,-21,27,-32c0,0,16,-13,40,-16c0,0,22,-4,48,-4h20V0ZM249,972c-1,0,-2,0,-3,0c0,0,-1,0,-2,0c-5,0,-20,0,-32,5c0,0,-16,5,-28,16c0,0,-12,11,-18,29c0,0,-7,18,-7,45c0,0,0,27,7,45c0,0,6,17,18,29c0,0,12,11,28,15c0,0,15,5,34,5c0,0,18,0,34,-5c0,0,15,-4,27,-15c0,0,11,-12,19,-29c0,0,7,-18,7,-45c0,0,0,-27,-7,-45c0,0,-8,-18,-19,-29c0,0,-12,-11,-27,-16c0,0,-14,-5,-31,-5Z" 
id="f0_8"
transform="scale(0.001,-0.001)" />

<path d="M321,-14c0,0,-58,0,-104,11c0,0,-48,7,-80,29c0,0,-33,20,-50,51c0,0,-18,30,-18,70c0,0,0,30,10,51c0,0,10,20,25,33c0,0,14,11,31,17c0,0,16,4,30,4c0,0,0,-41,8,-75c0,0,8,-36,28,-61c0,0,18,-28,51,-42c0,0,31,-16,78,-16c0,0,41,0,72,11c0,0,31,9,53,28c0,0,21,18,32,44c0,0,11,25,11,56c0,0,0,28,-8,49c0,0,-9,20,-30,38c0,0,-21,17,-58,37c0,0,-37,18,-92,42c0,0,-59,26,-102,51c0,0,-45,23,-72,52c0,0,-29,28,-43,65c0,0,-15,35,-14,86c0,0,-1,52,21,92c0,0,20,40,58,68c0,0,38,26,91,41c0,0,52,15,118,15c0,0,54,0,96,-12c0,0,41,-11,70,-30c0,0,28,-19,43,-44c0,0,14,-27,14,-55c0,0,-1,-42,-28,-66c0,0,-29,-25,-80,-25c-1,0,-2,0,-2,0c0,0,0,76,-32,119c0,0,-32,42,-100,42c0,0,-39,0,-66,-9c0,0,-28,-9,-45,-25c0,0,-18,-17,-26,-39c0,0,-8,-22,-8,-49c0,0,0,-29,10,-50c0,0,10,-22,34,-39c0,0,22,-18,59,-35c0,0,36,-17,86,-38c0,0,60,-26,104,-50c0,0,43,-24,72,-54c0,0,27,-29,41,-65c0,0,13,-37,13,-84c0,0,-1,-60,-21,-105c0,0,-23,-45,-62,-74C539,46,499,14,445,0c0,0,-56,-14,-124,-14Z" 
id="f0_3"
transform="scale(0.001,-0.001)" />

<path d="M367,-14c0,0,-59,0,-100,13c0,0,-42,10,-69,38c0,0,-27,27,-39,73c0,0,-14,45,-14,112V732H29v61c0,0,28,0,61,11c0,0,32,11,58,37c0,0,26,28,43,68c0,0,15,38,28,98h70V819H489V732H289V217c0,0,-1,-78,32,-115c0,0,30,-36,83,-36c0,0,1,0,1,0c0,0,2,0,6,0c9,0,28,0,45,3c0,0,23,3,47,7V9C503,9,492,4,477,0c0,0,-15,-3,-33,-6c0,0,-20,-5,-39,-6c0,0,-20,-2,-38,-2Z" 
id="f0_5"
transform="scale(0.001,-0.001)" />

<path d="M586,481c0,0,0,60,-9,111c0,0,-9,50,-29,85c0,0,-19,36,-51,56c0,0,-33,18,-79,19c0,0,-87,-1,-133,-69c0,0,-46,-69,-46,-202ZM439,-14c0,0,-83,0,-149,27c0,0,-66,28,-112,82c0,0,-46,53,-69,132c0,0,-25,77,-25,177c0,0,0,213,88,322c0,0,88,108,251,108c0,0,73,0,133,-23c0,0,58,-24,100,-69c0,0,41,-46,63,-114c0,0,21,-69,22,-159V399H233c0,0,0,-84,15,-143c0,0,15,-61,44,-99c0,0,28,-40,71,-57c0,0,40,-19,93,-19c1,0,2,0,4,0c0,0,38,0,73,9c0,0,33,9,62,24c0,0,26,14,48,34c0,0,21,18,35,40c0,0,10,-4,20,-19c0,0,9,-15,9,-33c0,0,0,-24,-16,-49c0,0,-17,-27,-50,-50C641,37,607,14,557,0c0,0,-50,-14,-118,-14Z" 
id="f0_6"
transform="scale(0.001,-0.001)" />

<path d="M348,79c0,0,46,0,85,15c0,0,36,14,64,42c0,0,25,27,40,66c0,0,14,39,14,87V412H454c0,0,-65,0,-109,-14c0,0,-44,-13,-70,-36c0,0,-27,-25,-39,-59c0,0,-12,-35,-11,-80c0,0,0,-73,30,-108c0,0,29,-36,93,-36ZM313,-14c0,0,-50,0,-94,14c0,0,-44,14,-75,45c0,0,-33,30,-50,77c0,0,-18,47,-18,109c0,0,0,123,87,182c0,0,85,59,261,60H551v93c0,0,0,42,-4,78c0,0,-5,34,-20,60c0,0,-15,26,-42,40c0,0,-28,14,-75,14c0,0,-44,0,-71,-12c0,0,-29,-13,-43,-35c0,0,-16,-23,-21,-53c0,0,-6,-31,-5,-66c0,0,-64,0,-96,21c0,0,-34,21,-34,75c0,0,0,39,22,67c0,0,21,28,60,45c0,0,36,17,87,26c0,0,49,7,107,8c0,0,69,0,122,-13c0,0,52,-15,87,-46c0,0,34,-31,53,-81c0,0,17,-52,17,-124V174c0,0,0,-33,5,-53c0,0,6,-22,17,-34c0,0,10,-12,30,-18c0,0,15,-5,38,-5c2,0,3,0,5,0h4V0H588L564,131H551c0,0,-24,-33,-46,-59c0,0,-22,-27,-49,-46C456,26,429,6,395,-3c0,0,-35,-11,-82,-11Z" 
id="f0_4"
transform="scale(0.001,-0.001)" />

<path d="M433,-14c0,0,-77,0,-141,23c0,0,-64,23,-110,74c0,0,-46,50,-72,130c0,0,-26,79,-26,192c0,0,0,122,26,205c0,0,26,82,72,132c0,0,46,49,108,71c0,0,61,21,134,21c0,0,47,0,96,-9c0,0,47,-10,85,-29c0,0,38,-19,62,-49c0,0,23,-30,24,-69c0,0,0,-54,-35,-74c0,0,-35,-22,-102,-22c0,0,0,35,-6,68c0,0,-6,32,-20,56c0,0,-15,24,-39,38c0,0,-26,14,-65,14c0,0,-44,0,-79,-16c0,0,-35,-18,-61,-57c0,0,-26,-40,-39,-108c0,0,-13,-69,-13,-170c0,0,-1,-164,54,-243c0,0,54,-80,177,-80h1c6,0,72,1,123,30c0,0,52,30,79,77c0,0,11,-10,19,-24c0,0,7,-15,7,-36c0,0,0,-27,-16,-52c0,0,-17,-26,-49,-47C627,32,594,10,546,0c0,0,-48,-14,-113,-14Z" 
id="f0_l"
transform="scale(0.001,-0.001)" />

<path d="M20,0V64H40c0,0,25,0,49,4c0,0,22,3,39,16c0,0,17,11,27,32c0,0,10,21,10,58V993c0,0,0,33,-10,54c0,0,-11,21,-27,32c0,0,-18,11,-40,15c0,0,-24,3,-48,3H20v64H309V174c0,0,-1,-37,10,-58c0,0,9,-21,26,-32c0,0,17,-13,41,-16c0,0,22,-4,48,-4h20V0Z" 
id="f0_7"
transform="scale(0.001,-0.001)" />

<path d="M51,0V64h4c0,0,26,0,49,4c0,0,23,3,40,16c0,0,16,11,27,32c0,0,10,21,10,58V650c0,0,0,33,-10,55c0,0,-11,20,-28,31c0,0,-17,11,-39,15c0,0,-24,3,-49,4H51v64H286L315,668h7c0,0,14,34,31,65c0,0,15,29,39,53c0,0,22,22,56,35c0,0,33,12,84,13c0,0,83,0,124,-29c0,0,41,-30,41,-82c0,0,0,-24,-8,-44c0,0,-9,-20,-25,-34c0,0,-17,-15,-44,-23c0,0,-27,-8,-66,-8c0,0,0,63,-18,92c0,0,-18,27,-62,27c0,0,-29,0,-51,-15c0,0,-22,-18,-39,-43c0,0,-17,-27,-28,-61c0,0,-13,-35,-19,-70c0,0,-8,-37,-10,-73c0,0,-4,-35,-3,-64V166c0,0,0,-33,10,-53c0,0,10,-22,27,-32c0,0,16,-10,40,-13c0,0,22,-4,48,-4h43V0Z" 
id="f0_9"
transform="scale(0.001,-0.001)" />

<path d="M442,64c0,0,56,0,97,23c0,0,38,22,64,66c0,0,24,43,36,108c0,0,9,65,10,150c0,0,0,85,-11,149c0,0,-11,64,-36,108c0,0,-25,42,-64,64c0,0,-41,21,-98,21c0,0,-58,0,-97,-21c0,0,-39,-22,-64,-64c0,0,-25,-44,-36,-108c0,0,-11,-64,-11,-149c0,0,0,-85,11,-150c0,0,11,-65,37,-108c0,0,24,-44,65,-66c0,0,38,-23,97,-23Zm-3,-78c0,0,-83,0,-149,25c0,0,-66,26,-111,79c0,0,-47,52,-70,134c0,0,-25,79,-25,187c0,0,0,213,91,319c0,0,90,103,268,104c0,0,82,0,149,-25c0,0,65,-26,111,-79c0,0,46,-53,71,-132c0,0,23,-80,23,-187c0,0,0,-216,-91,-321C706,90,614,-14,439,-14Z" 
id="f0_b"
transform="scale(0.001,-0.001)" />

<path d="M43,0V64H55c0,0,26,0,49,4c0,0,23,3,40,16c0,0,16,11,27,32c0,0,10,21,10,58V650c0,0,0,33,-10,55c0,0,-11,20,-28,31c0,0,-17,11,-39,15c0,0,-24,3,-49,4H51v64H298L318,695h7c0,0,23,42,51,70c0,0,25,27,56,43c0,0,29,14,63,21c0,0,32,5,69,5c0,0,60,-1,108,-17c0,0,47,-18,81,-54c0,0,32,-37,50,-93c0,0,17,-58,18,-135V174c0,0,0,-37,9,-58c0,0,7,-21,23,-32c0,0,16,-13,38,-16c0,0,21,-4,47,-4h5V0H677V527c0,0,0,50,-9,89c0,0,-10,39,-29,66c0,0,-20,26,-52,41c0,0,-33,13,-78,13c0,0,-53,0,-88,-20c0,0,-36,-20,-57,-54c0,0,-22,-35,-31,-79c0,0,-10,-45,-9,-94V166c0,0,0,-33,10,-53c0,0,10,-22,27,-32c0,0,16,-10,40,-13c0,0,22,-4,48,-4h5V0Z" 
id="f0_d"
transform="scale(0.001,-0.001)" />

<path d="M421,83c0,0,59,0,100,20c0,0,39,19,65,60c0,0,23,39,34,101c0,0,10,61,10,144c0,0,0,79,-10,141c0,0,-11,61,-34,103c0,0,-25,41,-65,63c0,0,-41,21,-101,21c0,0,-51,0,-86,-21c0,0,-36,-23,-58,-64c0,0,-24,-42,-34,-103c0,0,-10,-62,-10,-141c0,0,0,-163,44,-244c0,0,43,-80,145,-80ZM395,-14c-8,0,-78,1,-133,24c0,0,-59,24,-98,77c0,0,-39,52,-60,132c0,0,-20,79,-20,189c0,0,0,110,20,191c0,0,21,80,60,133c0,0,39,51,98,77c0,0,58,25,133,25c0,0,44,0,80,-10c0,0,36,-10,65,-27c0,0,28,-18,51,-43c0,0,21,-24,39,-54h4c0,0,0,36,0,70c0,0,0,27,0,57c0,0,0,27,0,41V993c0,0,-1,33,-10,54c0,0,-11,21,-29,32c0,0,-18,11,-41,15c0,0,-24,3,-49,3H492v64H773V168c0,0,0,-34,10,-54c0,0,10,-21,27,-32c0,0,17,-11,40,-14c0,0,22,-4,48,-4h13V0H652L636,137h-6c0,0,-18,-35,-39,-62c0,0,-23,-29,-51,-48C540,27,512,6,476,-3c0,0,-36,-11,-81,-11Z" 
id="f0_e"
transform="scale(0.001,-0.001)" />

<path d="M417,-14c0,0,-60,0,-107,16c0,0,-47,17,-79,54c0,0,-33,36,-49,93c0,0,-17,57,-17,135V650c0,0,0,33,-10,55c0,0,-11,20,-27,31c0,0,-18,11,-40,15c0,0,-24,3,-48,4H35v64H309V292c0,0,0,-51,8,-89c0,0,7,-40,26,-66c0,0,18,-27,49,-40c0,0,29,-14,74,-14c1,0,2,0,3,0c0,0,50,0,88,18c0,0,35,18,59,50c0,0,23,32,34,78c0,0,12,46,12,101V645c0,0,0,35,-10,58c0,0,-10,21,-27,33c0,0,-17,11,-39,15c0,0,-24,3,-50,4h-4v64H805V166c0,0,0,-33,10,-53c0,0,10,-22,27,-32c0,0,17,-10,41,-13c0,0,21,-4,47,-4h5V0H692L672,124h-7c0,0,-24,-44,-51,-70c0,0,-28,-28,-60,-42c0,0,-31,-15,-65,-20c0,0,-35,-6,-72,-6Z" 
id="f0_c"
transform="scale(0.001,-0.001)" />

<path d="M365,0L119,674c0,0,-9,23,-18,39c0,0,-11,15,-23,26c0,0,-12,8,-29,12c0,0,-17,3,-39,4H6v64H388V755H369c0,0,-47,0,-69,-18c0,0,-24,-18,-23,-56c0,0,-1,-13,3,-25c0,0,3,-14,9,-31L392,336c0,0,10,-26,21,-58c0,0,9,-33,20,-65c0,0,8,-31,16,-59c0,0,7,-29,11,-47h5c0,0,3,16,12,41c0,0,8,23,20,53c0,0,10,27,22,58c0,0,11,29,22,57L650,614c0,0,8,19,12,36c0,0,3,16,3,30c0,0,0,38,-25,57c0,0,-26,18,-76,18H553v64H880V755H862c0,0,-23,0,-38,-5c0,0,-17,-6,-29,-18c0,0,-12,-14,-24,-37c0,0,-12,-24,-26,-59L504,0Z" 
id="f0_a"
transform="scale(0.001,-0.001)" />

<path d="M58,-366v72h1c8,0,79,1,133,23c0,0,55,24,97,64c0,0,39,40,68,95c0,0,26,55,45,118L119,674c0,0,-10,23,-20,39c0,0,-10,14,-21,25c0,0,-13,9,-29,13c0,0,-17,3,-39,4H6v64H373V755h-4c0,0,-47,0,-69,-18c0,0,-24,-18,-23,-56c0,0,-1,-13,3,-25c0,0,2,-14,9,-31L401,353c0,0,9,-27,22,-57c0,0,11,-31,22,-61c0,0,9,-31,18,-57c0,0,7,-28,11,-47h4c0,0,8,34,23,82c0,0,14,48,34,103L637,614c0,0,7,19,11,36c0,0,2,16,2,30c0,0,0,38,-24,57c0,0,-26,18,-76,18h-5v64H863V755h-4c0,0,-23,0,-38,-5c0,0,-18,-6,-30,-18c0,0,-13,-14,-24,-37c0,0,-11,-24,-25,-59L510,-5c0,0,-27,-74,-50,-130c0,0,-25,-56,-50,-95c0,0,-27,-41,-57,-67c0,0,-32,-26,-71,-41c0,0,-40,-17,-91,-22c0,0,-51,-6,-119,-6Z" 
id="f0_m"
transform="scale(0.001,-0.001)" />

<path d="M518,83c0,0,50,0,86,21c0,0,35,21,58,63c0,0,23,41,33,104c0,0,10,61,11,142c0,0,-1,80,-11,142c0,0,-10,60,-33,101c0,0,-23,40,-58,60c0,0,-38,20,-88,20c0,0,-60,0,-99,-19c0,0,-41,-20,-64,-61c0,0,-24,-40,-34,-101c0,0,-10,-62,-10,-144c0,0,0,-80,10,-141c0,0,10,-62,35,-103c0,0,23,-42,64,-63c0,0,39,-21,100,-21ZM28,-366v64H40c0,0,25,0,49,4c0,0,22,3,39,16c0,0,17,11,27,33c0,0,10,21,10,58V650c0,0,0,33,-10,55c0,0,-11,20,-27,31c0,0,-18,11,-40,15c0,0,-24,3,-48,4H20v64H287L303,681h6c0,0,16,34,39,63c0,0,21,28,50,49c0,0,27,19,64,31c0,0,36,9,80,10c0,0,75,0,134,-25c0,0,58,-26,98,-76c0,0,38,-53,60,-132c0,0,20,-80,20,-190c0,0,0,-111,-20,-191c0,0,-22,-80,-60,-133c0,0,-40,-53,-98,-77c0,0,-57,-24,-131,-24c-1,0,-2,0,-3,0h-2c-8,0,-46,1,-77,10c0,0,-37,8,-65,26c0,0,-29,18,-50,43c0,0,-23,24,-39,54h-3c0,0,0,-39,0,-73c0,0,0,-15,0,-30c0,0,0,-15,0,-28c0,0,0,-14,0,-24c0,0,0,-11,0,-17V-199c0,0,0,-33,10,-54c0,0,10,-21,28,-31c0,0,17,-11,41,-14c0,0,23,-4,49,-4h5v-64Z" 
id="f0_p"
transform="scale(0.001,-0.001)" />

<path d="M205,660q-1,0,-2,0c0,0,-24,0,-44,9c0,0,-22,8,-38,26c0,0,-17,15,-26,41c0,0,-10,24,-9,57c0,0,0,48,13,94c0,0,14,45,44,84c0,0,29,39,78,70c0,0,47,30,115,51v-64c0,0,-76,-24,-110,-58c0,0,-35,-35,-35,-79c0,0,0,-15,8,-25c0,0,8,-10,21,-18c0,0,12,-8,27,-15c0,0,14,-9,27,-18c0,0,12,-12,21,-26c0,0,7,-15,8,-39c0,0,-1,-44,-28,-67c0,0,-29,-23,-70,-23Z" 
id="f0_1a"
transform="scale(0.001,-0.001)" />

<path d="M46,659v64c0,0,74,23,110,58c0,0,34,34,35,79c0,0,-1,14,-8,25c0,0,-9,10,-21,18c0,0,-13,7,-27,15c0,0,-15,8,-27,18c0,0,-13,10,-21,26c0,0,-8,14,-8,38c0,0,0,44,29,68c0,0,28,23,71,23c0,0,23,-1,45,-9c0,0,20,-9,37,-25c0,0,16,-17,26,-42c0,0,9,-26,9,-57c0,0,0,-49,-13,-94c0,0,-14,-46,-44,-84c0,0,-30,-40,-77,-70c0,0,-49,-31,-116,-51Z" 
id="f0_q"
transform="scale(0.001,-0.001)" />

<path d="M518,83c0,0,50,0,86,21c0,0,35,21,58,63c0,0,23,41,33,104c0,0,10,61,11,142c0,0,-1,80,-11,142c0,0,-10,60,-33,101c0,0,-23,40,-58,60c0,0,-38,20,-88,20c0,0,-60,0,-99,-19c0,0,-41,-20,-64,-61c0,0,-24,-40,-34,-101c0,0,-10,-62,-10,-144c0,0,0,-80,10,-141c0,0,10,-62,35,-103c0,0,23,-42,64,-63c0,0,39,-21,100,-21Zm27,-97c-1,0,-2,0,-3,0h-2c-8,0,-46,1,-77,10c0,0,-37,8,-65,26c0,0,-29,18,-50,43c0,0,-23,24,-39,54H299L272,0H28V64H40c0,0,25,0,49,4c0,0,22,3,39,16c0,0,17,11,27,32c0,0,10,21,10,58V993c0,0,0,33,-10,54c0,0,-11,21,-27,32c0,0,-18,11,-40,15c0,0,-24,3,-48,3H28v64H306V880c0,0,0,-26,0,-59c0,0,0,-35,0,-66c0,0,0,-36,0,-74h3c0,0,16,34,39,63c0,0,21,28,50,49c0,0,27,19,64,31c0,0,36,9,80,10c0,0,75,0,134,-25c0,0,58,-26,98,-76c0,0,38,-53,60,-132c0,0,20,-80,20,-190c0,0,0,-111,-20,-191c0,0,-22,-80,-60,-133c0,0,-40,-53,-98,-77c0,0,-57,-24,-131,-24Z" 
id="f0_k"
transform="scale(0.001,-0.001)" />

<path d="M99,350v90H755V350Zm0,300v91H755V650Z" 
id="f0_i"
transform="scale(0.001,-0.001)" />

<path d="M480,-194c0,0,-106,41,-180,101c0,0,-75,59,-122,141c0,0,-48,82,-69,191c0,0,-22,107,-22,245c0,0,0,137,22,246c0,0,21,106,69,188c0,0,47,82,122,142c0,0,74,59,180,101v-69c0,0,-79,-48,-125,-114c0,0,-48,-67,-71,-146c0,0,-24,-80,-30,-168c0,0,-9,-90,-8,-180c0,0,-1,-92,8,-180c0,0,6,-88,30,-167c0,0,23,-80,71,-146c0,0,46,-68,125,-115v-70Z" 
id="f0_18"
transform="scale(0.001,-0.001)" />

<path d="M78,0V112L333,407c0,0,61,70,103,126c0,0,40,56,66,106c0,0,25,49,37,97c0,0,11,47,11,100c0,0,0,43,-9,79c0,0,-11,35,-29,61c0,0,-19,25,-48,40c0,0,-31,13,-70,13c0,0,-53,0,-84,-18c0,0,-33,-20,-52,-50c0,0,-19,-31,-25,-73c0,0,-7,-41,-7,-86c0,0,-28,0,-51,4c0,0,-24,4,-42,17c0,0,-18,11,-28,30c0,0,-10,19,-10,48c0,0,0,43,19,82c0,0,19,37,57,65c0,0,36,28,93,43c0,0,56,15,130,15c0,0,72,0,130,-18c0,0,56,-19,97,-51c0,0,41,-34,62,-81c0,0,21,-47,21,-105c0,0,-1,-54,-17,-104c0,0,-18,-52,-50,-104c0,0,-33,-54,-80,-111c0,0,-48,-58,-108,-124L191,122H545c7,0,36,1,56,10c0,0,21,10,36,25c0,0,14,15,22,37c0,0,7,20,13,42l6,28h61V0Z" 
id="f0_z"
transform="scale(0.001,-0.001)" />

<path d="M49,-194v70c0,0,79,47,125,115c0,0,45,66,71,146c0,0,23,79,31,167c0,0,7,88,7,180c0,0,0,90,-7,180c0,0,-8,88,-31,168c0,0,-26,79,-71,146c0,0,-46,66,-125,114v69c0,0,105,-42,180,-101c0,0,75,-60,122,-142c0,0,47,-82,69,-188c0,0,21,-109,22,-246c0,0,-1,-138,-22,-245c0,0,-22,-109,-69,-191c0,0,-47,-82,-122,-141c0,0,-75,-60,-180,-101Z" 
id="f0_19"
transform="scale(0.001,-0.001)" />

<path d="M490,78c0,0,90,0,160,31c0,0,67,30,113,90c0,0,45,59,69,147c0,0,22,87,22,201c0,0,0,227,-90,347c0,0,-91,120,-272,121H357V78ZM529,0c-1,0,-2,0,-3,0H58V64H78c0,0,25,0,49,4c0,0,22,3,39,16c0,0,17,11,27,32c0,0,10,21,10,58V923c0,0,0,33,-10,54c0,0,-11,20,-27,32c0,0,-18,11,-40,14c0,0,-24,3,-48,3H58v65H526c0,0,117,0,210,-36c0,0,93,-37,157,-106c0,0,63,-69,97,-171c0,0,33,-102,33,-231c0,0,0,-126,-31,-226c0,0,-32,-102,-93,-173C899,148,836,77,744,39C744,39,651,0,529,0Z" 
id="f0_1b"
transform="scale(0.001,-0.001)" />

<path d="M147,0V64H249c0,0,26,0,49,4c0,0,23,3,40,16c0,0,16,11,27,32c0,0,9,21,9,58V976c0,0,-29,-35,-55,-64c0,0,-27,-29,-50,-50c0,0,-24,-22,-46,-32c0,0,-22,-12,-44,-12c0,0,-1,0,-1,0c0,0,-1,0,-1,0c-3,0,-35,0,-55,23c0,0,-21,21,-21,59c0,0,23,5,47,15c0,0,23,7,50,22c0,0,25,13,57,34c0,0,30,18,69,47l107,79h98V174c0,0,-1,-37,10,-58c0,0,9,-21,26,-32c0,0,17,-13,41,-16c0,0,22,-4,48,-4h75V0Z" 
id="f0_11"
transform="scale(0.001,-0.001)" />

<path d="M755,168L99,519v54L755,926V824L242,545L755,270V168Z" 
id="f0_1c"
transform="scale(0.001,-0.001)" />

<path d="M465,553c0,0,67,0,112,15c0,0,44,14,71,44c0,0,26,30,39,75c0,0,11,45,11,104c0,0,-1,61,-12,105c0,0,-14,42,-41,70c0,0,-29,27,-74,40c0,0,-46,12,-110,12H357V553ZM982,0C963,0,909,0,873,5c0,0,-46,5,-79,20c0,0,-32,15,-54,42c0,0,-24,26,-49,70L484,481H357V166c0,0,0,-33,11,-53c0,0,9,-22,27,-32c0,0,16,-10,40,-13c0,0,22,-4,48,-4h20V0H58V64H78c0,0,24,0,48,4c0,0,22,3,40,13c0,0,16,10,27,32c0,0,10,20,10,53V923c0,0,0,33,-10,54c0,0,-11,20,-27,32c0,0,-18,11,-40,14c0,0,-24,3,-48,3H58v65H469c0,0,198,-1,296,-73c0,0,97,-74,97,-222c0,0,-1,-62,-20,-107c0,0,-20,-46,-52,-80c0,0,-33,-33,-72,-55c0,0,-41,-23,-81,-36L847,186c0,0,38,-61,75,-91c0,0,37,-31,85,-31h5V0H990c0,0,-3,0,-8,0Z" 
id="f0_r"
transform="scale(0.001,-0.001)" />

<path d="M58,0V64H78c0,0,24,0,48,4c0,0,22,3,40,13c0,0,16,10,27,32c0,0,10,20,10,53V917c0,0,0,36,-10,57c0,0,-10,21,-27,34c0,0,-17,11,-39,15c0,0,-24,3,-49,3H58v65H832V824H756l-7,65c0,0,-4,25,-11,49c0,0,-9,22,-25,39c0,0,-17,17,-40,28c0,0,-25,10,-59,10H357V608H726V533H357V76H652c0,0,37,0,63,11c0,0,25,9,42,26c0,0,17,17,27,41c0,0,10,21,13,47l11,66h75V0Z" 
id="f0_1d"
transform="scale(0.001,-0.001)" />

<path d="M7,0V64H22c0,0,26,0,48,5c0,0,20,4,40,15c0,0,18,11,37,31c0,0,19,19,41,47L380,411L188,674c0,0,-34,38,-65,60c0,0,-33,21,-66,21H37v64H424V755h-4c0,0,-27,0,-43,-3c0,0,-17,-5,-27,-10c0,0,-11,-7,-14,-15c0,0,-3,-8,-3,-17c0,0,-1,-16,9,-30c0,0,9,-17,27,-40L469,503l79,114c0,0,17,25,28,49c0,0,10,23,10,44c0,0,0,28,-23,37c0,0,-24,7,-59,8h-4v64H834V755H821c0,0,-23,-1,-41,-4c0,0,-19,-4,-36,-14c0,0,-17,-11,-36,-30c0,0,-19,-20,-42,-50L509,448L733,145c0,0,34,-44,64,-62c0,0,29,-19,57,-19q1,0,2,0h20V0H481V64h8c0,0,91,0,91,51c0,0,0,7,-2,17c0,0,-2,8,-9,20c0,0,-7,11,-18,28c0,0,-11,16,-29,40L420,357L313,208c0,0,-6,-9,-14,-21c0,0,-8,-12,-13,-24c0,0,-7,-14,-10,-26c0,0,-4,-13,-4,-25c0,0,0,-27,22,-37c0,0,21,-11,73,-11h4V0Z" 
id="f0_13"
transform="scale(0.001,-0.001)" />

<path d="M508,76c11,0,67,1,107,12c0,0,45,12,74,39c0,0,27,25,41,68c0,0,12,42,12,104c0,0,0,59,-11,104c0,0,-11,43,-38,73c0,0,-28,28,-72,43c0,0,-45,14,-112,14H357V76H508ZM465,609c12,0,70,1,110,12c0,0,45,12,72,38c0,0,26,24,39,64c0,0,11,39,11,95c0,0,-1,56,-13,94c0,0,-13,36,-41,60c0,0,-28,22,-73,33c0,0,-46,10,-110,10H357V609H463c0,0,1,0,2,0ZM58,0V64H78c0,0,25,0,49,4c0,0,22,3,39,16c0,0,17,11,27,32c0,0,10,21,10,58V923c0,0,0,33,-10,54c0,0,-11,20,-27,32c0,0,-18,11,-40,14c0,0,-24,3,-48,3H58v65H468c0,0,197,0,295,-66c0,0,97,-66,97,-207c0,0,0,-52,-14,-91c0,0,-15,-39,-40,-68c0,0,-26,-29,-60,-48c0,0,-35,-20,-75,-34v-6c0,0,51,-9,95,-30c0,0,43,-22,75,-56c0,0,30,-35,47,-82c0,0,17,-49,18,-108c0,0,0,-149,-97,-221C809,74,711,0,513,0Z" 
id="f0_1e"
transform="scale(0.001,-0.001)" />

<path d="M43,0V64H63c0,0,25,0,47,4c0,0,21,3,38,16c0,0,15,11,24,32c0,0,8,21,9,58V650c0,0,0,33,-9,55c0,0,-9,20,-25,31c0,0,-16,11,-37,15c0,0,-22,3,-47,4H58v64H298L318,695h7c0,0,23,42,49,70c0,0,25,27,54,43c0,0,28,14,61,21c0,0,31,5,67,5c0,0,36,0,71,-7c0,0,33,-9,62,-24c0,0,28,-17,52,-43c0,0,21,-27,36,-65h13c0,0,23,42,50,70c0,0,27,27,57,43c0,0,30,14,64,21c0,0,32,5,68,5c0,0,59,-1,105,-17c0,0,45,-18,78,-54c0,0,32,-37,49,-93c0,0,17,-58,18,-135V174c0,0,0,-37,9,-58c0,0,9,-21,24,-32c0,0,16,-13,37,-16c0,0,21,-4,47,-4h5V0H1135V527c0,0,0,50,-8,89c0,0,-9,39,-27,66c0,0,-21,26,-50,41c0,0,-32,13,-75,13c0,0,-48,0,-80,-18c0,0,-33,-19,-53,-50c0,0,-21,-31,-28,-72c0,0,-9,-42,-9,-87V174c0,0,0,-37,9,-58c0,0,9,-21,24,-32c0,0,16,-13,38,-16c0,0,21,-4,47,-4h4V0H662V527c0,0,-1,50,-9,89c0,0,-8,39,-27,66c0,0,-20,26,-50,41c0,0,-31,13,-75,13c0,0,-50,0,-83,-20c0,0,-35,-20,-55,-54c0,0,-22,-35,-30,-79c0,0,-9,-45,-9,-94V166c0,0,0,-33,10,-53c0,0,10,-22,27,-32c0,0,16,-10,40,-13c0,0,22,-4,48,-4h5V0Z" 
id="f0_y"
transform="scale(0.001,-0.001)" />

<path d="M31,0V81h3c0,0,25,0,47,4c0,0,21,3,38,14c0,0,16,11,25,32c0,0,9,20,9,55V987c0,0,-1,30,-11,49c0,0,-11,18,-27,29c0,0,-17,8,-35,12c0,0,-20,3,-36,3H26v81H383V909c0,0,0,-30,0,-64c0,0,0,-35,-3,-63c0,0,-4,-35,-7,-67h13c0,0,24,43,50,68c0,0,25,24,54,37c0,0,29,12,62,16c0,0,32,2,68,2c0,0,59,0,106,-17c0,0,47,-17,80,-53c0,0,32,-36,49,-91c0,0,16,-56,17,-133V189c0,0,0,-35,7,-56c0,0,5,-22,18,-33c0,0,12,-12,33,-15c0,0,18,-4,45,-4h4V0H640V503c0,0,-1,48,-6,88c0,0,-7,38,-21,64c0,0,-15,25,-38,40c0,0,-24,14,-57,14c0,0,-38,-1,-64,-20c0,0,-26,-19,-40,-51c0,0,-16,-33,-22,-76c0,0,-7,-44,-7,-90V181c0,0,0,-33,8,-52c0,0,7,-20,22,-30c0,0,13,-11,35,-14c0,0,19,-4,45,-4h5V0Z" 
id="f1_u"
transform="scale(0.001,-0.001)" />

<path d="M26,0V81H44c0,0,16,0,37,4c0,0,17,3,35,13c0,0,15,10,26,30c0,0,10,19,11,53V645c0,0,-1,29,-11,49c0,0,-11,18,-27,28c0,0,-17,9,-35,13c0,0,-20,3,-36,3H26v81H385V181c0,0,0,-34,11,-53c0,0,10,-20,27,-30c0,0,16,-10,35,-13c0,0,19,-4,36,-4h18V0ZM261,956c0,0,-28,0,-51,7c0,0,-24,7,-41,20c0,0,-18,13,-27,35c0,0,-11,20,-11,49c0,0,0,28,11,50c0,0,9,21,27,34c0,0,17,12,41,19c0,0,23,6,51,6c0,0,25,0,50,-6c0,0,23,-7,42,-19c0,0,18,-13,29,-34c0,0,10,-22,10,-50c0,0,0,-29,-10,-49c0,0,-11,-22,-29,-35c0,0,-19,-13,-42,-20c0,0,-25,-7,-50,-7Z" 
id="f1_7"
transform="scale(0.001,-0.001)" />

<path d="M364,-274c9,0,135,0,195,39c0,0,61,38,61,114c0,0,-1,47,-31,68c0,0,-31,18,-92,19H319c0,0,-24,-1,-47,-4c0,0,-24,-5,-43,-17c0,0,-21,-13,-33,-35c0,0,-12,-24,-12,-60c0,0,0,-65,46,-94c0,0,45,-30,133,-30h1Zm28,653c0,0,30,0,51,13c0,0,20,12,32,35c0,0,11,24,17,57c0,0,5,32,5,74c0,0,0,43,-5,78c0,0,-6,34,-18,59c0,0,-12,23,-32,38c0,0,-21,14,-51,14c0,0,-31,0,-50,-14c0,0,-20,-15,-32,-40c0,0,-13,-26,-18,-60c0,0,-6,-36,-5,-77c0,0,0,-41,6,-73c0,0,5,-32,18,-56c0,0,12,-23,32,-35c0,0,20,-13,50,-13ZM366,-366c-2,0,-4,0,-6,0c-9,0,-183,1,-268,54c0,0,-89,54,-89,159c0,0,0,81,53,126c0,0,52,42,154,50c0,0,-22,8,-41,20c0,0,-21,12,-36,29c0,0,-16,17,-26,38c0,0,-10,21,-9,49c0,0,0,25,10,47c0,0,10,21,28,42c0,0,17,18,43,37c0,0,24,16,54,34c0,0,-34,12,-61,34c0,0,-30,20,-50,51c0,0,-21,29,-32,67c0,0,-13,39,-12,85c0,0,0,133,78,209c0,0,77,73,241,73c0,0,54,0,101,-13c0,0,46,-15,81,-34c0,0,12,14,28,30c0,0,14,14,35,27c0,0,18,12,43,21c0,0,23,8,53,8c0,0,27,0,48,-6c0,0,20,-9,35,-20c0,0,12,-13,20,-27c0,0,7,-16,7,-34c0,0,0,-17,-5,-33c0,0,-6,-17,-17,-28c0,0,-13,-13,-34,-19c0,0,-20,-7,-49,-7c-1,0,-2,0,-4,0c0,0,0,15,-4,27c0,0,-6,12,-14,20c0,0,-9,8,-18,13c0,0,-11,3,-22,4c0,0,-13,0,-27,-5c0,0,-15,-6,-23,-12c0,0,16,-17,29,-38c0,0,14,-23,24,-48c0,0,10,-25,16,-52c0,0,5,-27,6,-56c0,0,0,-58,-18,-106c0,0,-20,-49,-57,-84c0,0,-38,-36,-96,-56c0,0,-59,-21,-138,-21H351c0,0,-13,0,-24,2c0,0,-13,1,-18,2c0,0,-11,-6,-20,-13c0,0,-10,-8,-17,-17c0,0,-9,-11,-13,-22c0,0,-6,-13,-5,-25c0,0,0,-27,20,-38c0,0,17,-12,48,-12c1,0,2,0,3,0H510c0,0,76,0,132,-15c0,0,54,-17,91,-47c0,0,36,-30,53,-73c0,0,17,-43,17,-97c0,0,0,-72,-26,-126c0,0,-27,-56,-82,-94c0,0,-55,-40,-138,-59c0,0,-81,-21,-191,-21Z" 
id="f1_l"
transform="scale(0.001,-0.001)" />

<path d="M574,490c0,0,0,58,-6,105c0,0,-8,45,-22,78c0,0,-15,32,-37,49c0,0,-24,17,-56,17c0,0,-65,0,-103,-63c0,0,-38,-64,-38,-186ZM468,-14c0,0,-98,0,-171,27c0,0,-75,28,-125,82c0,0,-50,54,-75,133c0,0,-26,76,-25,177c0,0,-1,107,25,189c0,0,25,80,74,136c0,0,48,53,119,82c0,0,70,26,161,26c0,0,82,0,149,-23c0,0,65,-24,112,-70c0,0,46,-47,71,-115c0,0,25,-69,25,-159V392H308c0,0,0,-77,15,-132c0,0,14,-55,40,-91c0,0,26,-36,63,-53c0,0,37,-17,85,-17c0,0,1,0,2,0c8,0,41,1,71,10c0,0,34,9,61,26c0,0,28,16,48,40c0,0,21,22,34,48c0,0,41,-22,41,-75c0,0,0,-32,-18,-61c0,0,-18,-31,-55,-53C695,34,658,12,602,0c0,0,-57,-14,-134,-14Z" 
id="f1_5"
transform="scale(0.001,-0.001)" />

<path d="M31,0V81h4c0,0,25,0,48,4c0,0,21,3,37,16c0,0,16,11,25,33c0,0,7,20,8,57V634c0,0,0,33,-8,55c0,0,-8,20,-22,31c0,0,-15,11,-35,15c0,0,-20,3,-45,3H38v81H347L377,700h8c0,0,14,34,33,60c0,0,17,26,43,43c0,0,24,16,59,26c0,0,34,7,81,8c0,0,90,0,132,-31c0,0,43,-33,43,-93c0,0,-1,-71,-51,-109c0,0,-50,-39,-141,-39c0,0,-1,0,-2,0c0,0,-1,32,-4,56c0,0,-4,23,-12,39c0,0,-9,16,-23,24c0,0,-15,8,-36,8c0,0,-28,0,-47,-13c0,0,-20,-14,-33,-34c0,0,-14,-22,-22,-49c0,0,-9,-27,-13,-54c0,0,-6,-28,-6,-52c0,0,0,-25,0,-42V184c0,0,0,-34,9,-54c0,0,7,-22,22,-32c0,0,13,-10,34,-13c0,0,18,-4,41,-4h49V0Z" 
id="f1_6"
transform="scale(0.001,-0.001)" />

<path d="M315,0L115,674c0,0,-9,23,-19,39c0,0,-10,15,-22,26c0,0,-13,8,-29,12c0,0,-17,3,-39,4H1v64H379V755H359c0,0,-46,0,-69,-13c0,0,-24,-15,-23,-51c0,0,0,-13,5,-31c0,0,3,-18,8,-35L351,369c0,0,8,-29,16,-61c0,0,7,-33,16,-65c0,0,6,-33,12,-61c0,0,6,-29,10,-48h5c0,0,3,19,10,46c0,0,5,24,15,55c0,0,7,29,18,60c0,0,9,30,19,58L631,815h96L880,362c0,0,9,-29,20,-59c0,0,9,-33,18,-63c0,0,9,-31,17,-59c0,0,7,-28,11,-47h4c0,0,7,38,22,94c0,0,14,55,38,129l76,247c0,0,5,18,11,41c0,0,3,21,3,35c0,0,0,38,-24,57c0,0,-26,18,-77,18H988v64h327V755h-19c0,0,-23,0,-39,-5c0,0,-17,-5,-29,-17c0,0,-14,-13,-25,-36c0,0,-11,-24,-22,-61L984,0H862L680,538L652,639L436,0Z" 
id="f0_j"
transform="scale(0.001,-0.001)" />

<path d="M197,0V27c0,0,71,2,92,13c0,0,21,10,29,29c0,0,9,18,9,109V725c0,0,0,110,-8,141c0,0,-5,24,-19,35c0,0,-14,11,-33,11c0,0,-28,0,-77,-23l-11,23l246,121h25V178c0,0,0,-85,7,-106c0,0,7,-21,29,-32c0,0,23,-11,91,-13V0Z" 
id="f2_l"
transform="scale(0.001,-0.001)" />

<path d="M452,373V875L97,373ZM452,0V267H23v95l470,671h82V373H711V267H575V0Z" 
id="f2_o"
transform="scale(0.001,-0.001)" />


</defs>
</svg>