<?xml version="1.0" encoding="UTF-8" standalone="no"?>
<!DOCTYPE svg PUBLIC "-//W3C//DTD SVG 1.1//EN"
"http://www.w3.org/Graphics/SVG/1.1/DTD/svg11.dtd">
<svg viewBox="0 0 909 1286" version="1.1" xmlns="http://www.w3.org/2000/svg" xmlns:xlink="http://www.w3.org/1999/xlink">
<defs>
<clipPath id="c0_241"><path d="M35.1,1194.7V113.1H873.9V1194.7Z" /></clipPath>
</defs>
<g clip-path="url(#c0_241)">
<g fill="#000000" >
<use xlink:href="#f0_11" transform="matrix(12,0,0,12,47.4,154.3)" />
<use xlink:href="#f0_17" transform="matrix(12,0,0,12,54.7,154.3)" />
<use xlink:href="#f0_12" transform="matrix(12,0,0,12,66.6,154.3)" />
<use xlink:href="#f1_v" transform="matrix(12,0,0,12,78.7,154.3)" />
<use xlink:href="#f1_b" transform="matrix(12,0,0,12,91.7,154.3)" />
<use xlink:href="#f1_9" transform="matrix(12,0,0,12,100.4,154.3)" />
<use xlink:href="#f1_j" transform="matrix(12,0,0,12,110.7,154.3)" />
<use xlink:href="#f1_8" transform="matrix(12,0,0,12,121.3,154.3)" />
<use xlink:href="#f1_5" transform="matrix(12,0,0,12,127.1,154.3)" />
<use xlink:href="#f1_9" transform="matrix(12,0,0,12,133.6,154.3)" />
<use xlink:href="#f1_5" transform="matrix(12,0,0,12,143.9,154.3)" />
<use xlink:href="#f1_8" transform="matrix(12,0,0,12,150.3,154.3)" />
<use xlink:href="#f1_4" transform="matrix(12,0,0,12,156.2,154.3)" />
<use xlink:href="#f1_7" transform="matrix(12,0,0,12,166.7,154.3)" />
<use xlink:href="#f1_9" transform="matrix(12,0,0,12,178.6,154.3)" />
<use xlink:href="#f1_a" transform="matrix(12,0,0,12,188.9,154.3)" />
<use xlink:href="#f1_l" transform="matrix(12,0,0,12,199.3,154.3)" />
<use xlink:href="#f1_4" transform="matrix(12,0,0,12,206.1,154.3)" />
<use xlink:href="#f1_b" transform="matrix(12,0,0,12,216.6,154.3)" />
<use xlink:href="#f1_m" transform="matrix(12,0,0,12,225.3,154.3)" />
<use xlink:href="#f1_6" transform="matrix(12,0,0,12,234.3,154.3)" />
<use xlink:href="#f1_8" transform="matrix(12,0,0,12,248.8,154.3)" />
<use xlink:href="#f1_e" transform="matrix(12,0,0,12,254.7,154.3)" />
<use xlink:href="#f1_9" transform="matrix(12,0,0,12,267.7,154.3)" />
<use xlink:href="#f1_m" transform="matrix(12,0,0,12,282.8,154.3)" />
<use xlink:href="#f1_4" transform="matrix(12,0,0,12,291.8,154.3)" />
<use xlink:href="#f1_7" transform="matrix(12,0,0,12,302.4,154.3)" />
<use xlink:href="#f1_e" transform="matrix(12,0,0,12,314.2,154.3)" />
<use xlink:href="#f1_6" transform="matrix(12,0,0,12,322.4,154.3)" />
<use xlink:href="#f1_b" transform="matrix(12,0,0,12,332.2,154.3)" />
<use xlink:href="#f1_j" transform="matrix(12,0,0,12,340.9,154.3)" />
<use xlink:href="#f1_9" transform="matrix(12,0,0,12,351.5,154.3)" />
<use xlink:href="#f1_5" transform="matrix(12,0,0,12,361.8,154.3)" />
<use xlink:href="#f1_8" transform="matrix(12,0,0,12,368.2,154.3)" />
<use xlink:href="#f1_j" transform="matrix(12,0,0,12,374.1,154.3)" />
<use xlink:href="#f1_6" transform="matrix(12,0,0,12,384.7,154.3)" />
<use xlink:href="#f1_l" transform="matrix(12,0,0,12,399.2,154.3)" />
<use xlink:href="#f1_4" transform="matrix(12,0,0,12,406,154.3)" />
<use xlink:href="#f1_b" transform="matrix(12,0,0,12,416.6,154.3)" />
<use xlink:href="#f1_m" transform="matrix(12,0,0,12,425.2,154.3)" />
<use xlink:href="#f1_6" transform="matrix(12,0,0,12,434.2,154.3)" />
<use xlink:href="#f1_u" transform="matrix(12,0,0,12,444,154.3)" />
<use xlink:href="#f1_19" transform="matrix(12,0,0,12,454,154.3)" />
<use xlink:href="#f1_8" transform="matrix(12,0,0,12,463.9,154.3)" />
<use xlink:href="#f1_7" transform="matrix(12,0,0,12,469.8,154.3)" />
<use xlink:href="#f1_m" transform="matrix(12,0,0,12,481.6,154.3)" />
<use xlink:href="#f1_6" transform="matrix(12,0,0,12,490.6,154.3)" />
<use xlink:href="#f1_5" transform="matrix(12,0,0,12,505.2,154.3)" />
<use xlink:href="#f1_f" transform="matrix(12,0,0,12,511.6,154.3)" />
<use xlink:href="#f1_6" transform="matrix(12,0,0,12,523.3,154.3)" />
<use xlink:href="#f1_s" transform="matrix(12,0,0,12,537.8,154.3)" />
<use xlink:href="#f1_4" transform="matrix(12,0,0,12,553.6,154.3)" />
<use xlink:href="#f1_b" transform="matrix(12,0,0,12,564.2,154.3)" />
<use xlink:href="#f1_t" transform="matrix(12,0,0,12,572.8,154.3)" />
<use xlink:href="#f1_h" transform="matrix(12,0,0,12,588.3,154.3)" />
<use xlink:href="#f1_4" transform="matrix(12,0,0,12,599.5,154.3)" />
<use xlink:href="#f1_7" transform="matrix(12,0,0,12,610.1,154.3)" />
<use xlink:href="#f1_6" transform="matrix(12,0,0,12,621.9,154.3)" />
<use xlink:href="#f1_i" transform="matrix(12,0,0,12,636.5,154.3)" />
<use xlink:href="#f1_d" transform="matrix(12,0,0,12,647.7,154.3)" />
<use xlink:href="#f1_9" transform="matrix(12,0,0,12,662.8,154.3)" />
<use xlink:href="#f1_m" transform="matrix(12,0,0,12,677.9,154.3)" />
<use xlink:href="#f1_4" transform="matrix(12,0,0,12,686.9,154.3)" />
<use xlink:href="#f1_7" transform="matrix(12,0,0,12,697.5,154.3)" />
<use xlink:href="#f1_e" transform="matrix(12,0,0,12,709.3,154.3)" />
<use xlink:href="#f1_6" transform="matrix(12,0,0,12,717.5,154.3)" />
<use xlink:href="#f1_b" transform="matrix(12,0,0,12,727.3,154.3)" />
<use xlink:href="#f1_j" transform="matrix(12,0,0,12,736,154.3)" />
<use xlink:href="#f1_9" transform="matrix(12,0,0,12,746.6,154.3)" />
<use xlink:href="#f1_5" transform="matrix(12,0,0,12,756.9,154.3)" />
<use xlink:href="#f1_8" transform="matrix(12,0,0,12,763.3,154.3)" />
<use xlink:href="#f1_j" transform="matrix(12,0,0,12,769.2,154.3)" />
<use xlink:href="#f1_6" transform="matrix(12,0,0,12,779.8,154.3)" />
<use xlink:href="#f1_l" transform="matrix(12,0,0,12,794.3,154.3)" />
<use xlink:href="#f1_4" transform="matrix(12,0,0,12,801.1,154.3)" />
<use xlink:href="#f1_b" transform="matrix(12,0,0,12,811.7,154.3)" />
<use xlink:href="#f1_m" transform="matrix(12,0,0,12,820.3,154.3)" />
<use xlink:href="#f1_6" transform="matrix(12,0,0,12,829.3,154.3)" />
<use xlink:href="#f1_4" transform="matrix(12,0,0,12,47.4,186.4)" />
<use xlink:href="#f1_j" transform="matrix(12,0,0,12,57.9,186.4)" />
<use xlink:href="#f1_6" transform="matrix(12,0,0,12,68.5,186.4)" />
<use xlink:href="#f1_b" transform="matrix(12,0,0,12,78.3,186.4)" />
<use xlink:href="#f1_9" transform="matrix(12,0,0,12,91.7,186.4)" />
<use xlink:href="#f1_m" transform="matrix(12,0,0,12,106.8,186.4)" />
<use xlink:href="#f1_a" transform="matrix(12,0,0,12,115.8,186.4)" />
<use xlink:href="#f1_4" transform="matrix(12,0,0,12,121.5,186.4)" />
<use xlink:href="#f1_e" transform="matrix(12,0,0,12,132.1,186.4)" />
<use xlink:href="#f1_6" transform="matrix(12,0,0,12,140.3,186.4)" />
<use xlink:href="#f1_h" transform="matrix(12,0,0,12,150.1,186.4)" />
<use xlink:href="#f1_g" transform="matrix(12,0,0,12,166.1,186.4)" />
<use xlink:href="#f1_9" transform="matrix(12,0,0,12,177.4,186.4)" />
<use xlink:href="#f1_5" transform="matrix(12,0,0,12,187.7,186.4)" />
<use xlink:href="#f1_f" transform="matrix(12,0,0,12,194.1,186.4)" />
<use xlink:href="#f1_8" transform="matrix(12,0,0,12,210.5,186.4)" />
<use xlink:href="#f1_e" transform="matrix(12,0,0,12,216.3,186.4)" />
<use xlink:href="#f1_w" transform="matrix(12,0,0,12,229.4,186.4)" />
<use xlink:href="#f1_6" transform="matrix(12,0,0,12,238.7,186.4)" />
<use xlink:href="#f1_b" transform="matrix(12,0,0,12,248.5,186.4)" />
<use xlink:href="#f1_4" transform="matrix(12,0,0,12,257.1,186.4)" />
<use xlink:href="#f1_r" transform="matrix(12,0,0,12,267.7,186.4)" />
<use xlink:href="#f1_5" transform="matrix(12,0,0,12,277.1,186.4)" />
<use xlink:href="#f1_f" transform="matrix(12,0,0,12,283.5,186.4)" />
<use xlink:href="#f1_6" transform="matrix(12,0,0,12,295.1,186.4)" />
<use xlink:href="#f1_s" transform="matrix(12,0,0,12,309.7,186.4)" />
<use xlink:href="#f1_4" transform="matrix(12,0,0,12,325.5,186.4)" />
<use xlink:href="#f1_b" transform="matrix(12,0,0,12,336,186.4)" />
<use xlink:href="#f1_t" transform="matrix(12,0,0,12,344.7,186.4)" />
<use xlink:href="#f1_h" transform="matrix(12,0,0,12,360.1,186.4)" />
<use xlink:href="#f1_4" transform="matrix(12,0,0,12,371.4,186.4)" />
<use xlink:href="#f1_7" transform="matrix(12,0,0,12,381.9,186.4)" />
<use xlink:href="#f1_6" transform="matrix(12,0,0,12,393.8,186.4)" />
<use xlink:href="#f1_i" transform="matrix(12,0,0,12,408.3,186.4)" />
<use xlink:href="#f1_d" transform="matrix(12,0,0,12,419.6,186.4)" />
<use xlink:href="#f1_5" transform="matrix(12,0,0,12,434.7,186.4)" />
<use xlink:href="#f1_f" transform="matrix(12,0,0,12,441.1,186.4)" />
<use xlink:href="#f1_6" transform="matrix(12,0,0,12,452.7,186.4)" />
<use xlink:href="#f1_c" transform="matrix(12,0,0,12,467.3,186.4)" />
<use xlink:href="#f1_b" transform="matrix(12,0,0,12,477.1,186.4)" />
<use xlink:href="#f1_9" transform="matrix(12,0,0,12,485.8,186.4)" />
<use xlink:href="#f1_j" transform="matrix(12,0,0,12,496.1,186.4)" />
<use xlink:href="#f1_8" transform="matrix(12,0,0,12,506.7,186.4)" />
<use xlink:href="#f1_5" transform="matrix(12,0,0,12,512.5,186.4)" />
<use xlink:href="#f1_9" transform="matrix(12,0,0,12,519,186.4)" />
<use xlink:href="#f1_5" transform="matrix(12,0,0,12,529.3,186.4)" />
<use xlink:href="#f1_8" transform="matrix(12,0,0,12,535.7,186.4)" />
<use xlink:href="#f1_4" transform="matrix(12,0,0,12,541.6,186.4)" />
<use xlink:href="#f1_7" transform="matrix(12,0,0,12,552.1,186.4)" />
<use xlink:href="#f1_9" transform="matrix(12,0,0,12,564,186.4)" />
<use xlink:href="#f1_a" transform="matrix(12,0,0,12,574.3,186.4)" />
<use xlink:href="#f1_l" transform="matrix(12,0,0,12,584.7,186.4)" />
<use xlink:href="#f1_4" transform="matrix(12,0,0,12,591.5,186.4)" />
<use xlink:href="#f1_b" transform="matrix(12,0,0,12,602,186.4)" />
<use xlink:href="#f1_m" transform="matrix(12,0,0,12,610.7,186.4)" />
<use xlink:href="#f1_6" transform="matrix(12,0,0,12,619.7,186.4)" />
<use xlink:href="#f1_4" transform="matrix(12,0,0,12,634.2,186.4)" />
<use xlink:href="#f1_j" transform="matrix(12,0,0,12,644.8,186.4)" />
<use xlink:href="#f1_6" transform="matrix(12,0,0,12,655.4,186.4)" />
<use xlink:href="#f1_b" transform="matrix(12,0,0,12,665.2,186.4)" />
<use xlink:href="#f1_6" transform="matrix(12,0,0,12,678.6,186.4)" />
<use xlink:href="#f1_j" transform="matrix(12,0,0,12,688.4,186.4)" />
<use xlink:href="#f1_6" transform="matrix(12,0,0,12,699,186.4)" />
<use xlink:href="#f1_b" transform="matrix(12,0,0,12,708.8,186.4)" />
<use xlink:href="#f1_d" transform="matrix(12,0,0,12,717.4,186.4)" />
<use xlink:href="#f1_m" transform="matrix(12,0,0,12,732.5,186.4)" />
<use xlink:href="#f1_4" transform="matrix(12,0,0,12,741.5,186.4)" />
<use xlink:href="#f1_o" transform="matrix(12,0,0,12,752.1,186.4)" />
<use xlink:href="#f1_g" transform="matrix(12,0,0,12,769.4,186.4)" />
<use xlink:href="#f1_a" transform="matrix(12,0,0,12,780.7,186.4)" />
<use xlink:href="#f1_6" transform="matrix(12,0,0,12,786.4,186.4)" />
<use xlink:href="#f1_5" transform="matrix(12,0,0,12,796.2,186.4)" />
<use xlink:href="#f1_6" transform="matrix(12,0,0,12,802.6,186.4)" />
<use xlink:href="#f1_4" transform="matrix(12,0,0,12,817.2,186.4)" />
<use xlink:href="#f1_b" transform="matrix(12,0,0,12,827.7,186.4)" />
<use xlink:href="#f1_i" transform="matrix(12,0,0,12,836.4,186.4)" />
<use xlink:href="#f1_8" transform="matrix(12,0,0,12,847.6,186.4)" />
<use xlink:href="#f1_5" transform="matrix(12,0,0,12,853.5,186.4)" />
<use xlink:href="#f1_4" transform="matrix(12,0,0,12,47.4,218.5)" />
<use xlink:href="#f1_l" transform="matrix(12,0,0,12,57.9,218.5)" />
<use xlink:href="#f1_9" transform="matrix(12,0,0,12,69.4,218.5)" />
<use xlink:href="#f1_m" transform="matrix(12,0,0,12,84.5,218.5)" />
<use xlink:href="#f1_4" transform="matrix(12,0,0,12,93.5,218.5)" />
<use xlink:href="#f1_o" transform="matrix(12,0,0,12,104.1,218.5)" />
<use xlink:href="#f1_6" transform="matrix(12,0,0,12,121.4,218.5)" />
<use xlink:href="#f1_5" transform="matrix(12,0,0,12,131.2,218.5)" />
<use xlink:href="#f1_8" transform="matrix(12,0,0,12,142.4,218.5)" />
<use xlink:href="#f1_e" transform="matrix(12,0,0,12,148.3,218.5)" />
<use xlink:href="#f1_w" transform="matrix(12,0,0,12,161.3,218.5)" />
<use xlink:href="#f1_6" transform="matrix(12,0,0,12,170.6,218.5)" />
<use xlink:href="#f1_b" transform="matrix(12,0,0,12,180.4,218.5)" />
<use xlink:href="#f1_4" transform="matrix(12,0,0,12,189.1,218.5)" />
<use xlink:href="#f1_u" transform="matrix(12,0,0,12,199.6,218.5)" />
<use xlink:href="#f0_11" transform="matrix(12,0,0,12,47.4,268.9)" />
<use xlink:href="#f0_o" transform="matrix(12,0,0,12,54.7,268.9)" />
<use xlink:href="#f0_12" transform="matrix(12,0,0,12,64.3,268.9)" />
<use xlink:href="#f1_1a" transform="matrix(12,0,0,12,76.4,268.9)" />
<use xlink:href="#f1_f" transform="matrix(12,0,0,12,95.6,268.9)" />
<use xlink:href="#f1_6" transform="matrix(12,0,0,12,107.2,268.9)" />
<use xlink:href="#f1_7" transform="matrix(12,0,0,12,117,268.9)" />
<use xlink:href="#f1_9" transform="matrix(12,0,0,12,133.6,268.9)" />
<use xlink:href="#f1_7" transform="matrix(12,0,0,12,143.9,268.9)" />
<use xlink:href="#f1_9" transform="matrix(12,0,0,12,160.5,268.9)" />
<use xlink:href="#f1_b" transform="matrix(12,0,0,12,170.8,268.9)" />
<use xlink:href="#f1_5" transform="matrix(12,0,0,12,179.4,268.9)" />
<use xlink:href="#f1_8" transform="matrix(12,0,0,12,185.9,268.9)" />
<use xlink:href="#f1_l" transform="matrix(12,0,0,12,191.7,268.9)" />
<use xlink:href="#f1_8" transform="matrix(12,0,0,12,198.5,268.9)" />
<use xlink:href="#f1_m" transform="matrix(12,0,0,12,204.3,268.9)" />
<use xlink:href="#f1_8" transform="matrix(12,0,0,12,213.3,268.9)" />
<use xlink:href="#f1_9" transform="matrix(12,0,0,12,219.2,268.9)" />
<use xlink:href="#f1_a" transform="matrix(12,0,0,12,229.5,268.9)" />
<use xlink:href="#f1_e" transform="matrix(12,0,0,12,239.9,268.9)" />
<use xlink:href="#f1_9" transform="matrix(12,0,0,12,248.2,268.9)" />
<use xlink:href="#f1_5" transform="matrix(12,0,0,12,258.5,268.9)" />
<use xlink:href="#f1_6" transform="matrix(12,0,0,12,265,268.9)" />
<use xlink:href="#f1_a" transform="matrix(12,0,0,12,274.8,268.9)" />
<use xlink:href="#f1_a" transform="matrix(12,0,0,12,280.4,268.9)" />
<use xlink:href="#f1_8" transform="matrix(12,0,0,12,286.1,268.9)" />
<use xlink:href="#f1_5" transform="matrix(12,0,0,12,292,268.9)" />
<use xlink:href="#f1_6" transform="matrix(12,0,0,12,298.4,268.9)" />
<use xlink:href="#f1_r" transform="matrix(12,0,0,12,308.2,268.9)" />
<use xlink:href="#f1_4" transform="matrix(12,0,0,12,317.6,268.9)" />
<use xlink:href="#f1_b" transform="matrix(12,0,0,12,328.1,268.9)" />
<use xlink:href="#f1_i" transform="matrix(12,0,0,12,336.8,268.9)" />
<use xlink:href="#f1_8" transform="matrix(12,0,0,12,348,268.9)" />
<use xlink:href="#f1_5" transform="matrix(12,0,0,12,353.8,268.9)" />
<use xlink:href="#f1_8" transform="matrix(12,0,0,12,360.3,268.9)" />
<use xlink:href="#f1_7" transform="matrix(12,0,0,12,366.1,268.9)" />
<use xlink:href="#f1_c" transform="matrix(12,0,0,12,378,268.9)" />
<use xlink:href="#f1_9" transform="matrix(12,0,0,12,392.6,268.9)" />
<use xlink:href="#f1_b" transform="matrix(12,0,0,12,402.9,268.9)" />
<use xlink:href="#f1_4" transform="matrix(12,0,0,12,411.5,268.9)" />
<use xlink:href="#f1_k" transform="matrix(12,0,0,12,422.1,268.9)" />
<use xlink:href="#f1_7" transform="matrix(12,0,0,12,433.7,268.9)" />
<use xlink:href="#f1_h" transform="matrix(12,0,0,12,445.5,268.9)" />
<use xlink:href="#f1_6" transform="matrix(12,0,0,12,461.5,268.9)" />
<use xlink:href="#f1_9" transform="matrix(12,0,0,12,471.3,268.9)" />
<use xlink:href="#f1_b" transform="matrix(12,0,0,12,481.6,268.9)" />
<use xlink:href="#f1_5" transform="matrix(12,0,0,12,490.3,268.9)" />
<use xlink:href="#f1_f" transform="matrix(12,0,0,12,496.7,268.9)" />
<use xlink:href="#f1_r" transform="matrix(12,0,0,12,508.3,268.9)" />
<use xlink:href="#f1_o" transform="matrix(12,0,0,12,517.7,268.9)" />
<use xlink:href="#f1_4" transform="matrix(12,0,0,12,535,268.9)" />
<use xlink:href="#f1_j" transform="matrix(12,0,0,12,545.5,268.9)" />
<use xlink:href="#f1_6" transform="matrix(12,0,0,12,556.1,268.9)" />
<use xlink:href="#f1_e" transform="matrix(12,0,0,12,565.9,268.9)" />
<use xlink:href="#f1_m" transform="matrix(12,0,0,12,579,268.9)" />
<use xlink:href="#f1_a" transform="matrix(12,0,0,12,588,268.9)" />
<use xlink:href="#f1_4" transform="matrix(12,0,0,12,593.7,268.9)" />
<use xlink:href="#f1_e" transform="matrix(12,0,0,12,604.2,268.9)" />
<use xlink:href="#f1_6" transform="matrix(12,0,0,12,612.5,268.9)" />
<use xlink:href="#f1_b" transform="matrix(12,0,0,12,622.3,268.9)" />
<use xlink:href="#f1_5" transform="matrix(12,0,0,12,635.7,268.9)" />
<use xlink:href="#f1_4" transform="matrix(12,0,0,12,642.1,268.9)" />
<use xlink:href="#f1_6" transform="matrix(12,0,0,12,657.4,268.9)" />
<use xlink:href="#f1_9" transform="matrix(12,0,0,12,667.3,268.9)" />
<use xlink:href="#f1_b" transform="matrix(12,0,0,12,677.6,268.9)" />
<use xlink:href="#f1_5" transform="matrix(12,0,0,12,686.2,268.9)" />
<use xlink:href="#f1_f" transform="matrix(12,0,0,12,692.6,268.9)" />
<use xlink:href="#f1_r" transform="matrix(12,0,0,12,704.3,268.9)" />
<use xlink:href="#f1_8" transform="matrix(12,0,0,12,713.6,268.9)" />
<use xlink:href="#f1_5" transform="matrix(12,0,0,12,719.4,268.9)" />
<use xlink:href="#f1_e" transform="matrix(12,0,0,12,725.9,268.9)" />
<use xlink:href="#f1_g" transform="matrix(12,0,0,12,738.9,268.9)" />
<use xlink:href="#f1_4" transform="matrix(12,0,0,12,750.1,268.9)" />
<use xlink:href="#f1_5" transform="matrix(12,0,0,12,760.7,268.9)" />
<use xlink:href="#f1_6" transform="matrix(12,0,0,12,767.2,268.9)" />
<use xlink:href="#f1_7" transform="matrix(12,0,0,12,777,268.9)" />
<use xlink:href="#f1_5" transform="matrix(12,0,0,12,788.8,268.9)" />
<use xlink:href="#f1_8" transform="matrix(12,0,0,12,795.2,268.9)" />
<use xlink:href="#f1_9" transform="matrix(12,0,0,12,801.1,268.9)" />
<use xlink:href="#f1_a" transform="matrix(12,0,0,12,811.4,268.9)" />
<use xlink:href="#f1_6" transform="matrix(12,0,0,12,47.4,301)" />
<use xlink:href="#f1_7" transform="matrix(12,0,0,12,57.2,301)" />
<use xlink:href="#f1_6" transform="matrix(12,0,0,12,69,301)" />
<use xlink:href="#f1_b" transform="matrix(12,0,0,12,78.8,301)" />
<use xlink:href="#f1_c" transform="matrix(12,0,0,12,87.4,301)" />
<use xlink:href="#f1_d" transform="matrix(12,0,0,12,97.3,301)" />
<use xlink:href="#f1_h" transform="matrix(12,0,0,12,112.4,301)" />
<use xlink:href="#f1_6" transform="matrix(12,0,0,12,123.6,301)" />
<use xlink:href="#f1_m" transform="matrix(12,0,0,12,133.4,301)" />
<use xlink:href="#f1_b" transform="matrix(12,0,0,12,142.4,301)" />
<use xlink:href="#f1_6" transform="matrix(12,0,0,12,151.1,301)" />
<use xlink:href="#f1_9" transform="matrix(12,0,0,12,160.9,301)" />
<use xlink:href="#f1_e" transform="matrix(12,0,0,12,171.2,301)" />
<use xlink:href="#f1_6" transform="matrix(12,0,0,12,179.4,301)" />
<use xlink:href="#f1_e" transform="matrix(12,0,0,12,189.3,301)" />
<use xlink:href="#f1_i" transform="matrix(12,0,0,12,202.3,301)" />
<use xlink:href="#f1_6" transform="matrix(12,0,0,12,213.5,301)" />
<use xlink:href="#f1_m" transform="matrix(12,0,0,12,223.3,301)" />
<use xlink:href="#f1_9" transform="matrix(12,0,0,12,232.3,301)" />
<use xlink:href="#f1_k" transform="matrix(12,0,0,12,242.7,301)" />
<use xlink:href="#f1_e" transform="matrix(12,0,0,12,254.3,301)" />
<use xlink:href="#f1_6" transform="matrix(12,0,0,12,262.5,301)" />
<use xlink:href="#f1_4" transform="matrix(12,0,0,12,277.1,301)" />
<use xlink:href="#f1_l" transform="matrix(12,0,0,12,287.7,301)" />
<use xlink:href="#f1_5" transform="matrix(12,0,0,12,299.2,301)" />
<use xlink:href="#f1_f" transform="matrix(12,0,0,12,305.6,301)" />
<use xlink:href="#f1_6" transform="matrix(12,0,0,12,317.3,301)" />
<use xlink:href="#f1_b" transform="matrix(12,0,0,12,331.8,301)" />
<use xlink:href="#f1_6" transform="matrix(12,0,0,12,340.4,301)" />
<use xlink:href="#f1_h" transform="matrix(12,0,0,12,350.2,301)" />
<use xlink:href="#f1_k" transform="matrix(12,0,0,12,361.5,301)" />
<use xlink:href="#f1_m" transform="matrix(12,0,0,12,373.1,301)" />
<use xlink:href="#f1_5" transform="matrix(12,0,0,12,382.1,301)" />
<use xlink:href="#f1_8" transform="matrix(12,0,0,12,388.6,301)" />
<use xlink:href="#f1_4" transform="matrix(12,0,0,12,394.4,301)" />
<use xlink:href="#f1_7" transform="matrix(12,0,0,12,405,301)" />
<use xlink:href="#f1_8" transform="matrix(12,0,0,12,421.6,301)" />
<use xlink:href="#f1_7" transform="matrix(12,0,0,12,427.4,301)" />
<use xlink:href="#f1_5" transform="matrix(12,0,0,12,444,301)" />
<use xlink:href="#f1_f" transform="matrix(12,0,0,12,450.4,301)" />
<use xlink:href="#f1_6" transform="matrix(12,0,0,12,462.1,301)" />
<use xlink:href="#f1_f" transform="matrix(12,0,0,12,476.6,301)" />
<use xlink:href="#f1_6" transform="matrix(12,0,0,12,488.2,301)" />
<use xlink:href="#f1_8" transform="matrix(12,0,0,12,498.1,301)" />
<use xlink:href="#f1_c" transform="matrix(12,0,0,12,503.9,301)" />
<use xlink:href="#f1_f" transform="matrix(12,0,0,12,513.8,301)" />
<use xlink:href="#f1_5" transform="matrix(12,0,0,12,525.4,301)" />
<use xlink:href="#f1_u" transform="matrix(12,0,0,12,531.8,301)" />
<use xlink:href="#f1_19" transform="matrix(12,0,0,12,541.8,301)" />
<use xlink:href="#f1_8" transform="matrix(12,0,0,12,551.8,301)" />
<use xlink:href="#f1_7" transform="matrix(12,0,0,12,557.6,301)" />
<use xlink:href="#f1_m" transform="matrix(12,0,0,12,569.4,301)" />
<use xlink:href="#f1_6" transform="matrix(12,0,0,12,578.5,301)" />
<use xlink:href="#f1_5" transform="matrix(12,0,0,12,593,301)" />
<use xlink:href="#f1_f" transform="matrix(12,0,0,12,599.5,301)" />
<use xlink:href="#f1_6" transform="matrix(12,0,0,12,611.1,301)" />
<use xlink:href="#f1_5" transform="matrix(12,0,0,12,625.6,301)" />
<use xlink:href="#f1_4" transform="matrix(12,0,0,12,632.1,301)" />
<use xlink:href="#f1_5" transform="matrix(12,0,0,12,642.7,301)" />
<use xlink:href="#f1_9" transform="matrix(12,0,0,12,649.1,301)" />
<use xlink:href="#f1_a" transform="matrix(12,0,0,12,659.4,301)" />
<use xlink:href="#f1_6" transform="matrix(12,0,0,12,669.9,301)" />
<use xlink:href="#f1_7" transform="matrix(12,0,0,12,679.7,301)" />
<use xlink:href="#f1_6" transform="matrix(12,0,0,12,691.5,301)" />
<use xlink:href="#f1_b" transform="matrix(12,0,0,12,701.3,301)" />
<use xlink:href="#f1_c" transform="matrix(12,0,0,12,709.9,301)" />
<use xlink:href="#f1_d" transform="matrix(12,0,0,12,719.8,301)" />
<use xlink:href="#f1_4" transform="matrix(12,0,0,12,734.9,301)" />
<use xlink:href="#f1_l" transform="matrix(12,0,0,12,745.4,301)" />
<use xlink:href="#f1_5" transform="matrix(12,0,0,12,756.9,301)" />
<use xlink:href="#f1_f" transform="matrix(12,0,0,12,763.4,301)" />
<use xlink:href="#f1_6" transform="matrix(12,0,0,12,775,301)" />
<use xlink:href="#f1_e" transform="matrix(12,0,0,12,789.6,301)" />
<use xlink:href="#f1_d" transform="matrix(12,0,0,12,797.8,301)" />
<use xlink:href="#f1_e" transform="matrix(12,0,0,12,808.2,301)" />
<use xlink:href="#f1_5" transform="matrix(12,0,0,12,816.4,301)" />
<use xlink:href="#f1_6" transform="matrix(12,0,0,12,822.9,301)" />
<use xlink:href="#f1_o" transform="matrix(12,0,0,12,832.7,301)" />
<use xlink:href="#f1_b" transform="matrix(12,0,0,12,47.4,333.1)" />
<use xlink:href="#f1_6" transform="matrix(12,0,0,12,56,333.1)" />
<use xlink:href="#f1_o" transform="matrix(12,0,0,12,65.8,333.1)" />
<use xlink:href="#f1_9" transform="matrix(12,0,0,12,83.1,333.1)" />
<use xlink:href="#f1_8" transform="matrix(12,0,0,12,93.4,333.1)" />
<use xlink:href="#f1_7" transform="matrix(12,0,0,12,99.3,333.1)" />
<use xlink:href="#f1_e" transform="matrix(12,0,0,12,111.1,333.1)" />
<use xlink:href="#f1_m" transform="matrix(12,0,0,12,124.1,333.1)" />
<use xlink:href="#f1_4" transform="matrix(12,0,0,12,133.1,333.1)" />
<use xlink:href="#f1_7" transform="matrix(12,0,0,12,143.7,333.1)" />
<use xlink:href="#f1_e" transform="matrix(12,0,0,12,155.5,333.1)" />
<use xlink:href="#f1_5" transform="matrix(12,0,0,12,163.8,333.1)" />
<use xlink:href="#f1_9" transform="matrix(12,0,0,12,170.2,333.1)" />
<use xlink:href="#f1_7" transform="matrix(12,0,0,12,180.5,333.1)" />
<use xlink:href="#f1_5" transform="matrix(12,0,0,12,192.3,333.1)" />
<use xlink:href="#f1_r" transform="matrix(12,0,0,12,198.8,333.1)" />
<use xlink:href="#f1_5" transform="matrix(12,0,0,12,208.1,333.1)" />
<use xlink:href="#f1_f" transform="matrix(12,0,0,12,214.6,333.1)" />
<use xlink:href="#f1_6" transform="matrix(12,0,0,12,226.2,333.1)" />
<use xlink:href="#f1_b" transform="matrix(12,0,0,12,240.7,333.1)" />
<use xlink:href="#f1_6" transform="matrix(12,0,0,12,249.4,333.1)" />
<use xlink:href="#f1_h" transform="matrix(12,0,0,12,259.2,333.1)" />
<use xlink:href="#f1_k" transform="matrix(12,0,0,12,270.4,333.1)" />
<use xlink:href="#f1_m" transform="matrix(12,0,0,12,282,333.1)" />
<use xlink:href="#f1_5" transform="matrix(12,0,0,12,291.1,333.1)" />
<use xlink:href="#f1_8" transform="matrix(12,0,0,12,297.5,333.1)" />
<use xlink:href="#f1_4" transform="matrix(12,0,0,12,303.4,333.1)" />
<use xlink:href="#f1_7" transform="matrix(12,0,0,12,313.9,333.1)" />
<use xlink:href="#f1_8" transform="matrix(12,0,0,12,330.5,333.1)" />
<use xlink:href="#f1_7" transform="matrix(12,0,0,12,336.3,333.1)" />
<use xlink:href="#f1_3" transform="matrix(12,0,0,12,352.9,333.1)" />
<use xlink:href="#f1_u" transform="matrix(12,0,0,12,364,333.1)" />
<use xlink:href="#f1_10" transform="matrix(12,0,0,12,369.2,333.1)" />
<use xlink:href="#f1_u" transform="matrix(12,0,0,12,380.6,333.1)" />
<use xlink:href="#f1_b" transform="matrix(12,0,0,12,390.6,333.1)" />
<use xlink:href="#f1_6" transform="matrix(12,0,0,12,399.2,333.1)" />
<use xlink:href="#f1_e" transform="matrix(12,0,0,12,409,333.1)" />
<use xlink:href="#f1_k" transform="matrix(12,0,0,12,417.3,333.1)" />
<use xlink:href="#f1_a" transform="matrix(12,0,0,12,428.9,333.1)" />
<use xlink:href="#f1_5" transform="matrix(12,0,0,12,434.6,333.1)" />
<use xlink:href="#f1_e" transform="matrix(12,0,0,12,441,333.1)" />
<use xlink:href="#f1_8" transform="matrix(12,0,0,12,454,333.1)" />
<use xlink:href="#f1_7" transform="matrix(12,0,0,12,459.9,333.1)" />
<use xlink:href="#f1_9" transform="matrix(12,0,0,12,476.5,333.1)" />
<use xlink:href="#f1_7" transform="matrix(12,0,0,12,486.8,333.1)" />
<use xlink:href="#f1_8" transform="matrix(12,0,0,12,503.3,333.1)" />
<use xlink:href="#f1_7" transform="matrix(12,0,0,12,509.2,333.1)" />
<use xlink:href="#f1_m" transform="matrix(12,0,0,12,521,333.1)" />
<use xlink:href="#f1_b" transform="matrix(12,0,0,12,530,333.1)" />
<use xlink:href="#f1_6" transform="matrix(12,0,0,12,538.6,333.1)" />
<use xlink:href="#f1_9" transform="matrix(12,0,0,12,548.4,333.1)" />
<use xlink:href="#f1_e" transform="matrix(12,0,0,12,558.8,333.1)" />
<use xlink:href="#f1_6" transform="matrix(12,0,0,12,567,333.1)" />
<use xlink:href="#f1_8" transform="matrix(12,0,0,12,581.6,333.1)" />
<use xlink:href="#f1_7" transform="matrix(12,0,0,12,587.4,333.1)" />
<use xlink:href="#f1_x" transform="matrix(12,0,0,12,604,333.1)" />
<use xlink:href="#f1_u" transform="matrix(12,0,0,12,616.8,333.1)" />
<use xlink:href="#f1_10" transform="matrix(12,0,0,12,622,333.1)" />
<use xlink:href="#f1_u" transform="matrix(12,0,0,12,633.5,333.1)" />
<use xlink:href="#f1_1b" transform="matrix(12,0,0,12,643.4,333.1)" />
<use xlink:href="#f1_6" transform="matrix(12,0,0,12,658,333.1)" />
<use xlink:href="#f1_7" transform="matrix(12,0,0,12,667.8,333.1)" />
<use xlink:href="#f1_m" transform="matrix(12,0,0,12,679.6,333.1)" />
<use xlink:href="#f1_6" transform="matrix(12,0,0,12,688.6,333.1)" />
<use xlink:href="#f1_r" transform="matrix(12,0,0,12,698.4,333.1)" />
<use xlink:href="#f1_5" transform="matrix(12,0,0,12,707.8,333.1)" />
<use xlink:href="#f1_f" transform="matrix(12,0,0,12,714.2,333.1)" />
<use xlink:href="#f1_6" transform="matrix(12,0,0,12,725.8,333.1)" />
<use xlink:href="#f1_j" transform="matrix(12,0,0,12,740.4,333.1)" />
<use xlink:href="#f1_6" transform="matrix(12,0,0,12,751,333.1)" />
<use xlink:href="#f1_a" transform="matrix(12,0,0,12,760.8,333.1)" />
<use xlink:href="#f1_4" transform="matrix(12,0,0,12,766.5,333.1)" />
<use xlink:href="#f1_m" transform="matrix(12,0,0,12,777.1,333.1)" />
<use xlink:href="#f1_8" transform="matrix(12,0,0,12,786.1,333.1)" />
<use xlink:href="#f1_5" transform="matrix(12,0,0,12,791.9,333.1)" />
<use xlink:href="#f1_d" transform="matrix(12,0,0,12,798.4,333.1)" />
<use xlink:href="#f1_4" transform="matrix(12,0,0,12,813.5,333.1)" />
<use xlink:href="#f1_l" transform="matrix(12,0,0,12,824,333.1)" />
<use xlink:href="#f1_5" transform="matrix(12,0,0,12,47.4,365.1)" />
<use xlink:href="#f1_f" transform="matrix(12,0,0,12,53.8,365.1)" />
<use xlink:href="#f1_6" transform="matrix(12,0,0,12,65.4,365.1)" />
<use xlink:href="#f1_e" transform="matrix(12,0,0,12,80,365.1)" />
<use xlink:href="#f1_9" transform="matrix(12,0,0,12,88.3,365.1)" />
<use xlink:href="#f1_5" transform="matrix(12,0,0,12,98.6,365.1)" />
<use xlink:href="#f1_6" transform="matrix(12,0,0,12,105,365.1)" />
<use xlink:href="#f1_a" transform="matrix(12,0,0,12,114.8,365.1)" />
<use xlink:href="#f1_a" transform="matrix(12,0,0,12,120.5,365.1)" />
<use xlink:href="#f1_8" transform="matrix(12,0,0,12,126.2,365.1)" />
<use xlink:href="#f1_5" transform="matrix(12,0,0,12,132,365.1)" />
<use xlink:href="#f1_6" transform="matrix(12,0,0,12,138.5,365.1)" />
<use xlink:href="#f1_8" transform="matrix(12,0,0,12,153,365.1)" />
<use xlink:href="#f1_7" transform="matrix(12,0,0,12,158.9,365.1)" />
<use xlink:href="#f1_m" transform="matrix(12,0,0,12,170.7,365.1)" />
<use xlink:href="#f1_b" transform="matrix(12,0,0,12,179.7,365.1)" />
<use xlink:href="#f1_6" transform="matrix(12,0,0,12,188.3,365.1)" />
<use xlink:href="#f1_9" transform="matrix(12,0,0,12,198.2,365.1)" />
<use xlink:href="#f1_e" transform="matrix(12,0,0,12,208.5,365.1)" />
<use xlink:href="#f1_6" transform="matrix(12,0,0,12,216.7,365.1)" />
<use xlink:href="#f1_e" transform="matrix(12,0,0,12,226.5,365.1)" />
<use xlink:href="#f1_u" transform="matrix(12,0,0,12,234.8,365.1)" />
<use xlink:href="#f1_1b" transform="matrix(12,0,0,12,244.8,365.1)" />
<use xlink:href="#f1_4" transform="matrix(12,0,0,12,259.3,365.1)" />
<use xlink:href="#f1_s" transform="matrix(12,0,0,12,269.9,365.1)" />
<use xlink:href="#f1_6" transform="matrix(12,0,0,12,285.7,365.1)" />
<use xlink:href="#f1_j" transform="matrix(12,0,0,12,295.5,365.1)" />
<use xlink:href="#f1_6" transform="matrix(12,0,0,12,306.1,365.1)" />
<use xlink:href="#f1_b" transform="matrix(12,0,0,12,315.9,365.1)" />
<use xlink:href="#f1_r" transform="matrix(12,0,0,12,324.5,365.1)" />
<use xlink:href="#f1_h" transform="matrix(12,0,0,12,333.8,365.1)" />
<use xlink:href="#f1_k" transform="matrix(12,0,0,12,345.1,365.1)" />
<use xlink:href="#f1_6" transform="matrix(12,0,0,12,356.7,365.1)" />
<use xlink:href="#f1_5" transform="matrix(12,0,0,12,371.3,365.1)" />
<use xlink:href="#f1_4" transform="matrix(12,0,0,12,377.7,365.1)" />
<use xlink:href="#f1_9" transform="matrix(12,0,0,12,393,365.1)" />
<use xlink:href="#f1_5" transform="matrix(12,0,0,12,403.4,365.1)" />
<use xlink:href="#f1_o" transform="matrix(12,0,0,12,409.8,365.1)" />
<use xlink:href="#f1_4" transform="matrix(12,0,0,12,427.1,365.1)" />
<use xlink:href="#f1_e" transform="matrix(12,0,0,12,437.7,365.1)" />
<use xlink:href="#f1_g" transform="matrix(12,0,0,12,445.9,365.1)" />
<use xlink:href="#f1_f" transform="matrix(12,0,0,12,457.2,365.1)" />
<use xlink:href="#f1_6" transform="matrix(12,0,0,12,468.8,365.1)" />
<use xlink:href="#f1_b" transform="matrix(12,0,0,12,478.6,365.1)" />
<use xlink:href="#f1_8" transform="matrix(12,0,0,12,487.2,365.1)" />
<use xlink:href="#f1_m" transform="matrix(12,0,0,12,493.1,365.1)" />
<use xlink:href="#f1_l" transform="matrix(12,0,0,12,506.9,365.1)" />
<use xlink:href="#f1_b" transform="matrix(12,0,0,12,513.6,365.1)" />
<use xlink:href="#f1_8" transform="matrix(12,0,0,12,522.2,365.1)" />
<use xlink:href="#f1_m" transform="matrix(12,0,0,12,528.1,365.1)" />
<use xlink:href="#f1_5" transform="matrix(12,0,0,12,537.1,365.1)" />
<use xlink:href="#f1_8" transform="matrix(12,0,0,12,543.6,365.1)" />
<use xlink:href="#f1_4" transform="matrix(12,0,0,12,549.4,365.1)" />
<use xlink:href="#f1_7" transform="matrix(12,0,0,12,560,365.1)" />
<use xlink:href="#f1_r" transform="matrix(12,0,0,12,571.8,365.1)" />
<use xlink:href="#f1_5" transform="matrix(12,0,0,12,581.1,365.1)" />
<use xlink:href="#f1_f" transform="matrix(12,0,0,12,587.6,365.1)" />
<use xlink:href="#f1_6" transform="matrix(12,0,0,12,599.2,365.1)" />
<use xlink:href="#f1_5" transform="matrix(12,0,0,12,613.8,365.1)" />
<use xlink:href="#f1_4" transform="matrix(12,0,0,12,620.2,365.1)" />
<use xlink:href="#f1_5" transform="matrix(12,0,0,12,630.8,365.1)" />
<use xlink:href="#f1_9" transform="matrix(12,0,0,12,637.2,365.1)" />
<use xlink:href="#f1_a" transform="matrix(12,0,0,12,647.5,365.1)" />
<use xlink:href="#f1_6" transform="matrix(12,0,0,12,658,365.1)" />
<use xlink:href="#f1_7" transform="matrix(12,0,0,12,667.8,365.1)" />
<use xlink:href="#f1_6" transform="matrix(12,0,0,12,679.6,365.1)" />
<use xlink:href="#f1_b" transform="matrix(12,0,0,12,689.4,365.1)" />
<use xlink:href="#f1_c" transform="matrix(12,0,0,12,698,365.1)" />
<use xlink:href="#f1_d" transform="matrix(12,0,0,12,707.9,365.1)" />
<use xlink:href="#f1_4" transform="matrix(12,0,0,12,723,365.1)" />
<use xlink:href="#f1_l" transform="matrix(12,0,0,12,733.5,365.1)" />
<use xlink:href="#f1_5" transform="matrix(12,0,0,12,745.1,365.1)" />
<use xlink:href="#f1_f" transform="matrix(12,0,0,12,751.5,365.1)" />
<use xlink:href="#f1_6" transform="matrix(12,0,0,12,763.1,365.1)" />
<use xlink:href="#f1_e" transform="matrix(12,0,0,12,777.7,365.1)" />
<use xlink:href="#f1_9" transform="matrix(12,0,0,12,785.9,365.1)" />
<use xlink:href="#f1_5" transform="matrix(12,0,0,12,796.3,365.1)" />
<use xlink:href="#f1_6" transform="matrix(12,0,0,12,802.7,365.1)" />
<use xlink:href="#f1_a" transform="matrix(12,0,0,12,812.5,365.1)" />
<use xlink:href="#f1_a" transform="matrix(12,0,0,12,818.2,365.1)" />
<use xlink:href="#f1_8" transform="matrix(12,0,0,12,823.9,365.1)" />
<use xlink:href="#f1_5" transform="matrix(12,0,0,12,829.7,365.1)" />
<use xlink:href="#f1_6" transform="matrix(12,0,0,12,836.2,365.1)" />
<use xlink:href="#f1_h" transform="matrix(12,0,0,12,47.4,397.2)" />
<use xlink:href="#f1_6" transform="matrix(12,0,0,12,58.6,397.2)" />
<use xlink:href="#f1_m" transform="matrix(12,0,0,12,68.4,397.2)" />
<use xlink:href="#f1_b" transform="matrix(12,0,0,12,77.4,397.2)" />
<use xlink:href="#f1_6" transform="matrix(12,0,0,12,86.1,397.2)" />
<use xlink:href="#f1_9" transform="matrix(12,0,0,12,95.9,397.2)" />
<use xlink:href="#f1_e" transform="matrix(12,0,0,12,106.2,397.2)" />
<use xlink:href="#f1_6" transform="matrix(12,0,0,12,114.4,397.2)" />
<use xlink:href="#f1_e" transform="matrix(12,0,0,12,124.3,397.2)" />
<use xlink:href="#f1_i" transform="matrix(12,0,0,12,137.3,397.2)" />
<use xlink:href="#f1_d" transform="matrix(12,0,0,12,148.5,397.2)" />
<use xlink:href="#f1_9" transform="matrix(12,0,0,12,163.6,397.2)" />
<use xlink:href="#f1_e" transform="matrix(12,0,0,12,178.7,397.2)" />
<use xlink:href="#f1_o" transform="matrix(12,0,0,12,186.9,397.2)" />
<use xlink:href="#f1_9" transform="matrix(12,0,0,12,204.2,397.2)" />
<use xlink:href="#f1_a" transform="matrix(12,0,0,12,214.5,397.2)" />
<use xlink:href="#f1_a" transform="matrix(12,0,0,12,220.2,397.2)" />
<use xlink:href="#f1_9" transform="matrix(12,0,0,12,230.6,397.2)" />
<use xlink:href="#f1_o" transform="matrix(12,0,0,12,241,397.2)" />
<use xlink:href="#f1_4" transform="matrix(12,0,0,12,258.3,397.2)" />
<use xlink:href="#f1_k" transform="matrix(12,0,0,12,268.8,397.2)" />
<use xlink:href="#f1_7" transform="matrix(12,0,0,12,280.5,397.2)" />
<use xlink:href="#f1_5" transform="matrix(12,0,0,12,292.3,397.2)" />
<use xlink:href="#f1_u" transform="matrix(12,0,0,12,298.7,397.2)" />
<use xlink:href="#f0_11" transform="matrix(12,0,0,12,47.4,447.6)" />
<use xlink:href="#f0_a" transform="matrix(12,0,0,12,54.7,447.6)" />
<use xlink:href="#f0_12" transform="matrix(12,0,0,12,66.6,447.6)" />
<use xlink:href="#f1_1c" transform="matrix(12,0,0,12,78.7,447.6)" />
<use xlink:href="#f1_7" transform="matrix(12,0,0,12,85.4,447.6)" />
<use xlink:href="#f1_5" transform="matrix(12,0,0,12,102,447.6)" />
<use xlink:href="#f1_f" transform="matrix(12,0,0,12,108.4,447.6)" />
<use xlink:href="#f1_6" transform="matrix(12,0,0,12,120,447.6)" />
<use xlink:href="#f1_e" transform="matrix(12,0,0,12,134.6,447.6)" />
<use xlink:href="#f1_6" transform="matrix(12,0,0,12,142.8,447.6)" />
<use xlink:href="#f1_m" transform="matrix(12,0,0,12,152.7,447.6)" />
<use xlink:href="#f1_4" transform="matrix(12,0,0,12,161.7,447.6)" />
<use xlink:href="#f1_7" transform="matrix(12,0,0,12,172.3,447.6)" />
<use xlink:href="#f1_h" transform="matrix(12,0,0,12,184.1,447.6)" />
<use xlink:href="#f1_m" transform="matrix(12,0,0,12,200.1,447.6)" />
<use xlink:href="#f1_9" transform="matrix(12,0,0,12,209.1,447.6)" />
<use xlink:href="#f1_e" transform="matrix(12,0,0,12,219.4,447.6)" />
<use xlink:href="#f1_6" transform="matrix(12,0,0,12,227.7,447.6)" />
<use xlink:href="#f0_h" transform="matrix(12,0,0,12,47.4,498.1)" />
<use xlink:href="#f0_3" transform="matrix(12,0,0,12,59.6,498.1)" />
<use xlink:href="#f0_r" transform="matrix(12,0,0,12,70.6,498.1)" />
<use xlink:href="#f0_5" transform="matrix(12,0,0,12,79.5,498.1)" />
<use xlink:href="#f0_11" transform="matrix(12,0,0,12,94.7,498.1)" />
<use xlink:href="#f0_7" transform="matrix(12,0,0,12,102.1,498.1)" />
<use xlink:href="#f0_12" transform="matrix(12,0,0,12,108.5,498.1)" />
<use xlink:href="#f1_1d" transform="matrix(12,0,0,12,47.4,548.5)" />
<use xlink:href="#f1_9" transform="matrix(12,0,0,12,64.5,548.5)" />
<use xlink:href="#f1_e" transform="matrix(12,0,0,12,74.9,548.5)" />
<use xlink:href="#f1_e" transform="matrix(12,0,0,12,83.1,548.5)" />
<use xlink:href="#f1_r" transform="matrix(12,0,0,12,91.4,548.5)" />
<use xlink:href="#f2_2" transform="matrix(12,0,0,12,100.7,548.5)" />
<use xlink:href="#f1_16" transform="matrix(12,0,0,12,121.9,548.5)" />
<use xlink:href="#f1_1e" transform="matrix(12,0,0,12,136.9,548.5)" />
<use xlink:href="#f1_1f" transform="matrix(12,0,0,12,147.1,548.5)" />
<use xlink:href="#f1_t" transform="matrix(12,0,0,12,162.1,548.5)" />
<use xlink:href="#f1_c" transform="matrix(12,0,0,12,172.8,548.5)" />
<use xlink:href="#f1_1g" transform="matrix(12,0,0,12,47.4,598.9)" />
<use xlink:href="#f1_8" transform="matrix(12,0,0,12,60.7,598.9)" />
<use xlink:href="#f1_e" transform="matrix(12,0,0,12,66.5,598.9)" />
<use xlink:href="#f1_g" transform="matrix(12,0,0,12,74.8,598.9)" />
<use xlink:href="#f1_a" transform="matrix(12,0,0,12,86,598.9)" />
<use xlink:href="#f1_9" transform="matrix(12,0,0,12,91.7,598.9)" />
<use xlink:href="#f1_m" transform="matrix(12,0,0,12,102,598.9)" />
<use xlink:href="#f1_6" transform="matrix(12,0,0,12,111.1,598.9)" />
<use xlink:href="#f1_o" transform="matrix(12,0,0,12,120.9,598.9)" />
<use xlink:href="#f1_6" transform="matrix(12,0,0,12,138.2,598.9)" />
<use xlink:href="#f1_7" transform="matrix(12,0,0,12,148,598.9)" />
<use xlink:href="#f1_5" transform="matrix(12,0,0,12,159.8,598.9)" />
<use xlink:href="#f1_r" transform="matrix(12,0,0,12,166.2,598.9)" />
<use xlink:href="#f2_3" transform="matrix(12,0,0,12,175.6,598.9)" />
<use xlink:href="#f1_16" transform="matrix(12,0,0,12,188.8,598.9)" />
<use xlink:href="#f1_1h" transform="matrix(12,0,0,12,203.8,598.9)" />
<use xlink:href="#f1_o" transform="matrix(12,0,0,12,218.8,598.9)" />
<use xlink:href="#f1_1a" transform="matrix(12,0,0,12,47.4,649.3)" />
<use xlink:href="#f1_4" transform="matrix(12,0,0,12,66.6,649.3)" />
<use xlink:href="#f1_b" transform="matrix(12,0,0,12,77.1,649.3)" />
<use xlink:href="#f1_t" transform="matrix(12,0,0,12,85.7,649.3)" />
<use xlink:href="#f1_h" transform="matrix(12,0,0,12,101.2,649.3)" />
<use xlink:href="#f1_4" transform="matrix(12,0,0,12,112.5,649.3)" />
<use xlink:href="#f1_7" transform="matrix(12,0,0,12,123,649.3)" />
<use xlink:href="#f1_6" transform="matrix(12,0,0,12,134.9,649.3)" />
<use xlink:href="#f1_r" transform="matrix(12,0,0,12,144.7,649.3)" />
<use xlink:href="#f1_1a" transform="matrix(12,0,0,12,154,649.3)" />
</g>
</g>
<image preserveAspectRatio="none" x="173" y="628" width="105" height="34" xlink:href="img/1.png" />
<g clip-path="url(#c0_241)">
<g fill="#000000" >
<use xlink:href="#f1_1a" transform="matrix(12,0,0,12,47.4,702.8)" />
<use xlink:href="#f1_f" transform="matrix(12,0,0,12,66.6,702.8)" />
<use xlink:href="#f1_6" transform="matrix(12,0,0,12,78.2,702.8)" />
<use xlink:href="#f1_b" transform="matrix(12,0,0,12,88,702.8)" />
<use xlink:href="#f1_6" transform="matrix(12,0,0,12,96.6,702.8)" />
<use xlink:href="#f1_r" transform="matrix(12,0,0,12,106.4,702.8)" />
</g>
</g>
<image preserveAspectRatio="none" x="116" y="684" width="20" height="28" xlink:href="img/2.png" />
<g clip-path="url(#c0_241)">
<g fill="#000000" >
<use xlink:href="#f1_16" transform="matrix(12,0,0,12,135.6,702.8)" />
<use xlink:href="#f1_q" transform="matrix(12,0,0,12,145.9,702.8)" />
<use xlink:href="#f1_7" transform="matrix(12,0,0,12,158.8,702.8)" />
<use xlink:href="#f1_c" transform="matrix(12,0,0,12,170.6,702.8)" />
<use xlink:href="#f1_a" transform="matrix(12,0,0,12,180.4,702.8)" />
<use xlink:href="#f1_6" transform="matrix(12,0,0,12,186.1,702.8)" />
<use xlink:href="#f1_i" transform="matrix(12,0,0,12,200.7,702.8)" />
<use xlink:href="#f1_6" transform="matrix(12,0,0,12,211.9,702.8)" />
<use xlink:href="#f1_5" transform="matrix(12,0,0,12,221.7,702.8)" />
<use xlink:href="#f1_s" transform="matrix(12,0,0,12,228.2,702.8)" />
<use xlink:href="#f1_6" transform="matrix(12,0,0,12,244,702.8)" />
<use xlink:href="#f1_6" transform="matrix(12,0,0,12,253.8,702.8)" />
<use xlink:href="#f1_7" transform="matrix(12,0,0,12,263.6,702.8)" />
<use xlink:href="#f1_l" transform="matrix(12,0,0,12,280.2,702.8)" />
<use xlink:href="#f1_4" transform="matrix(12,0,0,12,286.9,702.8)" />
<use xlink:href="#f1_b" transform="matrix(12,0,0,12,297.5,702.8)" />
<use xlink:href="#f1_m" transform="matrix(12,0,0,12,306.1,702.8)" />
<use xlink:href="#f1_6" transform="matrix(12,0,0,12,315.1,702.8)" />
<use xlink:href="#f1_9" transform="matrix(12,0,0,12,329.7,702.8)" />
<use xlink:href="#f1_7" transform="matrix(12,0,0,12,340,702.8)" />
<use xlink:href="#f1_h" transform="matrix(12,0,0,12,351.8,702.8)" />
<use xlink:href="#f1_h" transform="matrix(12,0,0,12,367.8,702.8)" />
<use xlink:href="#f1_8" transform="matrix(12,0,0,12,379.1,702.8)" />
<use xlink:href="#f1_e" transform="matrix(12,0,0,12,384.9,702.8)" />
<use xlink:href="#f1_g" transform="matrix(12,0,0,12,393.2,702.8)" />
<use xlink:href="#f1_a" transform="matrix(12,0,0,12,404.4,702.8)" />
<use xlink:href="#f1_9" transform="matrix(12,0,0,12,410.1,702.8)" />
<use xlink:href="#f1_m" transform="matrix(12,0,0,12,420.4,702.8)" />
<use xlink:href="#f1_6" transform="matrix(12,0,0,12,429.4,702.8)" />
<use xlink:href="#f1_o" transform="matrix(12,0,0,12,439.2,702.8)" />
<use xlink:href="#f1_6" transform="matrix(12,0,0,12,456.5,702.8)" />
<use xlink:href="#f1_7" transform="matrix(12,0,0,12,466.4,702.8)" />
<use xlink:href="#f1_5" transform="matrix(12,0,0,12,478.2,702.8)" />
</g>
</g>
<image preserveAspectRatio="none" x="47" y="730" width="318" height="78" xlink:href="img/3.png" />
<g clip-path="url(#c0_241)">
<g fill="#000000" >
<use xlink:href="#f0_h" transform="matrix(12,0,0,12,47.4,849.4)" />
<use xlink:href="#f0_3" transform="matrix(12,0,0,12,59.6,849.4)" />
<use xlink:href="#f0_r" transform="matrix(12,0,0,12,70.6,849.4)" />
<use xlink:href="#f0_5" transform="matrix(12,0,0,12,79.5,849.4)" />
<use xlink:href="#f0_11" transform="matrix(12,0,0,12,94.7,849.4)" />
<use xlink:href="#f0_7" transform="matrix(12,0,0,12,102.1,849.4)" />
<use xlink:href="#f0_7" transform="matrix(12,0,0,12,108.5,849.4)" />
<use xlink:href="#f0_12" transform="matrix(12,0,0,12,114.9,849.4)" />
<use xlink:href="#f1_1d" transform="matrix(12,0,0,12,47.4,899.9)" />
<use xlink:href="#f1_9" transform="matrix(12,0,0,12,64.5,899.9)" />
<use xlink:href="#f1_e" transform="matrix(12,0,0,12,74.9,899.9)" />
<use xlink:href="#f1_e" transform="matrix(12,0,0,12,83.1,899.9)" />
<use xlink:href="#f1_r" transform="matrix(12,0,0,12,91.4,899.9)" />
<use xlink:href="#f2_2" transform="matrix(12,0,0,12,100.7,899.9)" />
<use xlink:href="#f1_16" transform="matrix(12,0,0,12,121.9,899.9)" />
<use xlink:href="#f1_1e" transform="matrix(12,0,0,12,136.9,899.9)" />
<use xlink:href="#f1_1f" transform="matrix(12,0,0,12,147.1,899.9)" />
<use xlink:href="#f1_t" transform="matrix(12,0,0,12,162.1,899.9)" />
<use xlink:href="#f1_c" transform="matrix(12,0,0,12,172.8,899.9)" />
<use xlink:href="#f1_1g" transform="matrix(12,0,0,12,47.4,950.3)" />
<use xlink:href="#f1_8" transform="matrix(12,0,0,12,60.7,950.3)" />
<use xlink:href="#f1_e" transform="matrix(12,0,0,12,66.5,950.3)" />
<use xlink:href="#f1_g" transform="matrix(12,0,0,12,74.8,950.3)" />
<use xlink:href="#f1_a" transform="matrix(12,0,0,12,86,950.3)" />
<use xlink:href="#f1_9" transform="matrix(12,0,0,12,91.7,950.3)" />
<use xlink:href="#f1_m" transform="matrix(12,0,0,12,102,950.3)" />
<use xlink:href="#f1_6" transform="matrix(12,0,0,12,111.1,950.3)" />
<use xlink:href="#f1_o" transform="matrix(12,0,0,12,120.9,950.3)" />
<use xlink:href="#f1_6" transform="matrix(12,0,0,12,138.2,950.3)" />
<use xlink:href="#f1_7" transform="matrix(12,0,0,12,148,950.3)" />
<use xlink:href="#f1_5" transform="matrix(12,0,0,12,159.8,950.3)" />
<use xlink:href="#f1_r" transform="matrix(12,0,0,12,166.2,950.3)" />
<use xlink:href="#f2_3" transform="matrix(12,0,0,12,175.6,950.3)" />
<use xlink:href="#f1_16" transform="matrix(12,0,0,12,188.8,950.3)" />
<use xlink:href="#f1_1h" transform="matrix(12,0,0,12,203.8,950.3)" />
<use xlink:href="#f1_o" transform="matrix(12,0,0,12,218.8,950.3)" />
<use xlink:href="#f1_1b" transform="matrix(12,0,0,12,47.4,1000.7)" />
<use xlink:href="#f1_6" transform="matrix(12,0,0,12,61.9,1000.7)" />
<use xlink:href="#f1_b" transform="matrix(12,0,0,12,71.7,1000.7)" />
<use xlink:href="#f1_6" transform="matrix(12,0,0,12,80.3,1000.7)" />
<use xlink:href="#f1_r" transform="matrix(12,0,0,12,90.1,1000.7)" />
<use xlink:href="#f1_5" transform="matrix(12,0,0,12,99.5,1000.7)" />
<use xlink:href="#f1_f" transform="matrix(12,0,0,12,105.9,1000.7)" />
<use xlink:href="#f1_6" transform="matrix(12,0,0,12,117.5,1000.7)" />
<use xlink:href="#f1_h" transform="matrix(12,0,0,12,132.1,1000.7)" />
<use xlink:href="#f1_8" transform="matrix(12,0,0,12,143.3,1000.7)" />
<use xlink:href="#f1_b" transform="matrix(12,0,0,12,149.2,1000.7)" />
<use xlink:href="#f1_6" transform="matrix(12,0,0,12,157.8,1000.7)" />
<use xlink:href="#f1_m" transform="matrix(12,0,0,12,167.6,1000.7)" />
<use xlink:href="#f1_5" transform="matrix(12,0,0,12,176.6,1000.7)" />
<use xlink:href="#f1_8" transform="matrix(12,0,0,12,183.1,1000.7)" />
<use xlink:href="#f1_4" transform="matrix(12,0,0,12,188.9,1000.7)" />
<use xlink:href="#f1_7" transform="matrix(12,0,0,12,199.5,1000.7)" />
<use xlink:href="#f1_4" transform="matrix(12,0,0,12,216.1,1000.7)" />
<use xlink:href="#f1_l" transform="matrix(12,0,0,12,226.7,1000.7)" />
<use xlink:href="#f1_5" transform="matrix(12,0,0,12,238.2,1000.7)" />
<use xlink:href="#f1_f" transform="matrix(12,0,0,12,244.6,1000.7)" />
<use xlink:href="#f1_6" transform="matrix(12,0,0,12,256.2,1000.7)" />
<use xlink:href="#f1_l" transform="matrix(12,0,0,12,270.8,1000.7)" />
<use xlink:href="#f1_4" transform="matrix(12,0,0,12,277.6,1000.7)" />
<use xlink:href="#f1_b" transform="matrix(12,0,0,12,288.1,1000.7)" />
<use xlink:href="#f1_m" transform="matrix(12,0,0,12,296.7,1000.7)" />
<use xlink:href="#f1_6" transform="matrix(12,0,0,12,305.8,1000.7)" />
<use xlink:href="#f1_9" transform="matrix(12,0,0,12,320.3,1000.7)" />
<use xlink:href="#f1_g" transform="matrix(12,0,0,12,330.6,1000.7)" />
<use xlink:href="#f1_g" transform="matrix(12,0,0,12,341.9,1000.7)" />
<use xlink:href="#f1_a" transform="matrix(12,0,0,12,353.1,1000.7)" />
<use xlink:href="#f1_8" transform="matrix(12,0,0,12,358.8,1000.7)" />
<use xlink:href="#f1_6" transform="matrix(12,0,0,12,364.7,1000.7)" />
<use xlink:href="#f1_h" transform="matrix(12,0,0,12,374.5,1000.7)" />
<use xlink:href="#f1_4" transform="matrix(12,0,0,12,390.5,1000.7)" />
<use xlink:href="#f1_7" transform="matrix(12,0,0,12,401,1000.7)" />
<use xlink:href="#f1_5" transform="matrix(12,0,0,12,417.6,1000.7)" />
<use xlink:href="#f1_f" transform="matrix(12,0,0,12,424.1,1000.7)" />
<use xlink:href="#f1_6" transform="matrix(12,0,0,12,435.7,1000.7)" />
<use xlink:href="#f1_b" transform="matrix(12,0,0,12,450.2,1000.7)" />
<use xlink:href="#f1_4" transform="matrix(12,0,0,12,458.9,1000.7)" />
<use xlink:href="#f1_g" transform="matrix(12,0,0,12,469.4,1000.7)" />
<use xlink:href="#f1_6" transform="matrix(12,0,0,12,480.7,1000.7)" />
<use xlink:href="#f1_9" transform="matrix(12,0,0,12,495.2,1000.7)" />
<use xlink:href="#f1_7" transform="matrix(12,0,0,12,505.6,1000.7)" />
<use xlink:href="#f1_h" transform="matrix(12,0,0,12,517.4,1000.7)" />
<use xlink:href="#f1_5" transform="matrix(12,0,0,12,533.4,1000.7)" />
<use xlink:href="#f1_f" transform="matrix(12,0,0,12,539.8,1000.7)" />
<use xlink:href="#f1_6" transform="matrix(12,0,0,12,551.4,1000.7)" />
<use xlink:href="#f1_h" transform="matrix(12,0,0,12,566,1000.7)" />
<use xlink:href="#f1_8" transform="matrix(12,0,0,12,577.2,1000.7)" />
<use xlink:href="#f1_b" transform="matrix(12,0,0,12,583.1,1000.7)" />
<use xlink:href="#f1_6" transform="matrix(12,0,0,12,591.7,1000.7)" />
<use xlink:href="#f1_m" transform="matrix(12,0,0,12,601.5,1000.7)" />
<use xlink:href="#f1_5" transform="matrix(12,0,0,12,610.5,1000.7)" />
<use xlink:href="#f1_8" transform="matrix(12,0,0,12,617,1000.7)" />
<use xlink:href="#f1_4" transform="matrix(12,0,0,12,622.8,1000.7)" />
<use xlink:href="#f1_7" transform="matrix(12,0,0,12,633.4,1000.7)" />
<use xlink:href="#f1_4" transform="matrix(12,0,0,12,650,1000.7)" />
<use xlink:href="#f1_l" transform="matrix(12,0,0,12,660.5,1000.7)" />
<use xlink:href="#f1_5" transform="matrix(12,0,0,12,672.1,1000.7)" />
<use xlink:href="#f1_f" transform="matrix(12,0,0,12,678.5,1000.7)" />
<use xlink:href="#f1_6" transform="matrix(12,0,0,12,690.1,1000.7)" />
<use xlink:href="#f1_h" transform="matrix(12,0,0,12,704.7,1000.7)" />
<use xlink:href="#f1_8" transform="matrix(12,0,0,12,715.9,1000.7)" />
<use xlink:href="#f1_e" transform="matrix(12,0,0,12,721.8,1000.7)" />
<use xlink:href="#f1_g" transform="matrix(12,0,0,12,730,1000.7)" />
<use xlink:href="#f1_a" transform="matrix(12,0,0,12,741.3,1000.7)" />
<use xlink:href="#f1_9" transform="matrix(12,0,0,12,747,1000.7)" />
<use xlink:href="#f1_m" transform="matrix(12,0,0,12,757.3,1000.7)" />
<use xlink:href="#f1_6" transform="matrix(12,0,0,12,766.3,1000.7)" />
<use xlink:href="#f1_o" transform="matrix(12,0,0,12,776.1,1000.7)" />
<use xlink:href="#f1_6" transform="matrix(12,0,0,12,793.4,1000.7)" />
<use xlink:href="#f1_7" transform="matrix(12,0,0,12,803.2,1000.7)" />
<use xlink:href="#f1_5" transform="matrix(12,0,0,12,815,1000.7)" />
<use xlink:href="#f1_4" transform="matrix(12,0,0,12,826.2,1000.7)" />
<use xlink:href="#f1_l" transform="matrix(12,0,0,12,836.8,1000.7)" />
<use xlink:href="#f1_5" transform="matrix(12,0,0,12,47.4,1032.8)" />
<use xlink:href="#f1_f" transform="matrix(12,0,0,12,53.8,1032.8)" />
<use xlink:href="#f1_6" transform="matrix(12,0,0,12,65.4,1032.8)" />
<use xlink:href="#f1_b" transform="matrix(12,0,0,12,80,1032.8)" />
<use xlink:href="#f1_4" transform="matrix(12,0,0,12,88.6,1032.8)" />
<use xlink:href="#f1_g" transform="matrix(12,0,0,12,99.2,1032.8)" />
<use xlink:href="#f1_6" transform="matrix(12,0,0,12,110.4,1032.8)" />
<use xlink:href="#f1_9" transform="matrix(12,0,0,12,125,1032.8)" />
<use xlink:href="#f1_b" transform="matrix(12,0,0,12,135.3,1032.8)" />
<use xlink:href="#f1_6" transform="matrix(12,0,0,12,143.9,1032.8)" />
<use xlink:href="#f1_e" transform="matrix(12,0,0,12,158.5,1032.8)" />
<use xlink:href="#f1_9" transform="matrix(12,0,0,12,166.7,1032.8)" />
<use xlink:href="#f1_o" transform="matrix(12,0,0,12,177.1,1032.8)" />
<use xlink:href="#f1_6" transform="matrix(12,0,0,12,194.4,1032.8)" />
<use xlink:href="#f1_u" transform="matrix(12,0,0,12,204.2,1032.8)" />
<use xlink:href="#f1_14" transform="matrix(12,0,0,12,47.4,1083.2)" />
<use xlink:href="#f1_f" transform="matrix(12,0,0,12,58.6,1083.2)" />
<use xlink:href="#f1_6" transform="matrix(12,0,0,12,70.2,1083.2)" />
<use xlink:href="#f1_b" transform="matrix(12,0,0,12,80,1083.2)" />
<use xlink:href="#f1_6" transform="matrix(12,0,0,12,88.6,1083.2)" />
<use xlink:href="#f1_l" transform="matrix(12,0,0,12,98.4,1083.2)" />
<use xlink:href="#f1_4" transform="matrix(12,0,0,12,105.2,1083.2)" />
<use xlink:href="#f1_b" transform="matrix(12,0,0,12,115.8,1083.2)" />
<use xlink:href="#f1_6" transform="matrix(12,0,0,12,124.4,1083.2)" />
<use xlink:href="#f1_r" transform="matrix(12,0,0,12,134.2,1083.2)" />
<use xlink:href="#f1_5" transform="matrix(12,0,0,12,143.5,1083.2)" />
<use xlink:href="#f1_f" transform="matrix(12,0,0,12,150,1083.2)" />
<use xlink:href="#f1_6" transform="matrix(12,0,0,12,161.6,1083.2)" />
<use xlink:href="#f1_9" transform="matrix(12,0,0,12,176.2,1083.2)" />
<use xlink:href="#f1_7" transform="matrix(12,0,0,12,186.5,1083.2)" />
<use xlink:href="#f1_c" transform="matrix(12,0,0,12,198.3,1083.2)" />
<use xlink:href="#f1_a" transform="matrix(12,0,0,12,208.2,1083.2)" />
<use xlink:href="#f1_6" transform="matrix(12,0,0,12,213.8,1083.2)" />
<use xlink:href="#f1_i" transform="matrix(12,0,0,12,228.4,1083.2)" />
<use xlink:href="#f1_6" transform="matrix(12,0,0,12,239.6,1083.2)" />
<use xlink:href="#f1_5" transform="matrix(12,0,0,12,249.5,1083.2)" />
<use xlink:href="#f1_s" transform="matrix(12,0,0,12,255.9,1083.2)" />
<use xlink:href="#f1_6" transform="matrix(12,0,0,12,271.7,1083.2)" />
<use xlink:href="#f1_6" transform="matrix(12,0,0,12,281.5,1083.2)" />
<use xlink:href="#f1_7" transform="matrix(12,0,0,12,291.3,1083.2)" />
<use xlink:href="#f1_5" transform="matrix(12,0,0,12,307.9,1083.2)" />
<use xlink:href="#f1_f" transform="matrix(12,0,0,12,314.3,1083.2)" />
<use xlink:href="#f1_6" transform="matrix(12,0,0,12,325.9,1083.2)" />
<use xlink:href="#f1_o" transform="matrix(12,0,0,12,335.8,1083.2)" />
<use xlink:href="#f1_r" transform="matrix(12,0,0,12,353.1,1083.2)" />
</g>
</g>
<image preserveAspectRatio="none" x="362" y="1065" width="75" height="27" xlink:href="img/4.png" />
<g clip-path="url(#c0_241)">
<g fill="#000000" >
<use xlink:href="#f1_19" transform="matrix(12,0,0,12,47.4,1133.6)" />
<use xlink:href="#f1_8" transform="matrix(12,0,0,12,57.3,1133.6)" />
<use xlink:href="#f1_7" transform="matrix(12,0,0,12,63.2,1133.6)" />
<use xlink:href="#f1_m" transform="matrix(12,0,0,12,75,1133.6)" />
<use xlink:href="#f1_6" transform="matrix(12,0,0,12,84,1133.6)" />
</g>
</g>
<image preserveAspectRatio="none" x="99" y="1115" width="119" height="28" xlink:href="img/5.png" />
<g fill="#000000" >
<use xlink:href="#f3_o" transform="matrix(12,0,0,12,835.7,1269.6)" />
<use xlink:href="#f3_r" transform="matrix(12,0,0,12,844.9,1269.6)" />
</g>
<defs>
<path d="M562,-212c0,0,-127,52,-217,121c0,0,-91,68,-147,155c0,0,-58,87,-84,193c0,0,-27,104,-27,229c0,0,0,123,27,228c0,0,26,104,84,191c0,0,56,86,147,155c0,0,90,68,217,119v-96c0,0,-70,-47,-115,-112c0,0,-45,-66,-70,-143c0,0,-26,-78,-35,-164c0,0,-10,-88,-9,-178c0,0,-1,-91,9,-179c0,0,9,-88,35,-165c0,0,25,-79,70,-143c0,0,45,-67,115,-113v-98Z" 
id="f0_11"
transform="scale(0.001,-0.001)" />

<path d="M540,99c1,0,2,0,2,0c3,0,76,1,109,82c0,0,34,81,34,233c0,0,0,155,-34,234c0,0,-33,76,-110,76c0,0,-46,0,-76,-18c0,0,-30,-20,-47,-58c0,0,-18,-40,-26,-97c0,0,-8,-60,-7,-138c0,0,-1,-76,7,-134c0,0,8,-60,26,-98c0,0,18,-41,48,-61c0,0,29,-21,74,-21ZM610,-14c-1,0,-2,0,-4,0h-1c-9,0,-47,1,-78,10c0,0,-37,8,-64,26c0,0,-30,18,-51,43c0,0,-23,24,-39,54H359L316,0H26V81H37c0,0,20,0,42,4c0,0,20,3,37,15c0,0,17,10,27,32c0,0,10,21,10,56V978c0,0,0,32,-10,53c0,0,-10,19,-26,31c0,0,-17,11,-38,14c0,0,-22,3,-47,4H26v81H383V900c0,0,0,-24,0,-56c0,0,0,-33,-3,-61c0,0,-4,-34,-7,-68h10c0,0,33,56,88,89c0,0,55,32,141,33c0,0,75,0,132,-25c0,0,57,-26,97,-76c0,0,39,-53,59,-132c0,0,20,-81,20,-191c0,0,0,-112,-20,-192c0,0,-22,-81,-61,-133c0,0,-39,-53,-97,-78c0,0,-59,-24,-132,-24Z" 
id="f0_17"
transform="scale(0.001,-0.001)" />

<path d="M49,-212v98c0,0,70,46,116,113c0,0,44,64,70,143c0,0,24,77,34,165c0,0,9,88,9,179c0,0,0,90,-9,178c0,0,-10,86,-34,164c0,0,-26,77,-70,143c0,0,-46,65,-116,112v96c0,0,127,-51,218,-119c0,0,90,-69,148,-155c0,0,56,-87,83,-191c0,0,25,-105,26,-228c0,0,-1,-125,-26,-229c0,0,-27,-106,-83,-193c0,0,-58,-87,-148,-155c0,0,-91,-69,-218,-121Z" 
id="f0_12"
transform="scale(0.001,-0.001)" />

<path d="M612,-14c0,0,-133,0,-231,39c0,0,-100,41,-164,115c0,0,-66,73,-98,177c0,0,-32,103,-32,230c0,0,0,124,35,227c0,0,32,103,101,176c0,0,67,73,167,115c0,0,99,41,232,41c0,0,84,0,149,-12c0,0,62,-14,105,-37c0,0,41,-24,62,-54c0,0,21,-32,21,-68c0,0,0,-26,-11,-44c0,0,-11,-20,-30,-34c0,0,-19,-15,-44,-21c0,0,-24,-8,-53,-8c-1,0,-2,0,-3,0c0,0,-1,36,-11,71c0,0,-11,34,-34,63c0,0,-24,28,-63,46c0,0,-39,16,-95,17c0,0,-97,0,-164,-31c0,0,-69,-33,-112,-93c0,0,-44,-62,-63,-150c0,0,-19,-89,-19,-204c0,0,0,-115,20,-203c0,0,19,-89,65,-149c0,0,45,-61,118,-92c0,0,73,-31,177,-31c0,0,43,0,86,4c0,0,40,4,73,14V336c0,0,0,33,-10,55c0,0,-11,20,-27,31c0,0,-17,10,-40,14c0,0,-24,3,-48,4h-6v64h397V440h-6c0,0,-23,-1,-41,-4c0,0,-20,-3,-34,-15c0,0,-15,-12,-22,-33c0,0,-9,-22,-9,-58V55C950,55,873,19,792,2c0,0,-82,-16,-180,-16Z" 
id="f1_v"
transform="scale(0.001,-0.001)" />

<path d="M51,0V64h4c0,0,26,0,49,4c0,0,23,3,40,16c0,0,16,11,27,32c0,0,10,21,10,58V650c0,0,0,33,-10,55c0,0,-11,20,-28,31c0,0,-17,11,-39,15c0,0,-24,3,-49,4H51v64H286L315,668h7c0,0,14,34,31,65c0,0,15,29,39,53c0,0,22,22,56,35c0,0,33,12,84,13c0,0,83,0,124,-29c0,0,41,-30,41,-82c0,0,0,-24,-8,-44c0,0,-9,-20,-25,-34c0,0,-17,-15,-44,-23c0,0,-27,-8,-66,-8c0,0,0,63,-18,92c0,0,-18,27,-62,27c0,0,-29,0,-51,-15c0,0,-22,-18,-39,-43c0,0,-17,-27,-28,-61c0,0,-13,-35,-19,-70c0,0,-8,-37,-10,-73c0,0,-4,-35,-3,-64V166c0,0,0,-33,10,-53c0,0,10,-22,27,-32c0,0,16,-10,40,-13c0,0,22,-4,48,-4h43V0Z" 
id="f1_b"
transform="scale(0.001,-0.001)" />

<path d="M348,79c0,0,46,0,85,15c0,0,36,14,64,42c0,0,25,27,40,66c0,0,14,39,14,87V412H454c0,0,-65,0,-109,-14c0,0,-44,-13,-70,-36c0,0,-27,-25,-39,-59c0,0,-12,-35,-11,-80c0,0,0,-73,30,-108c0,0,29,-36,93,-36ZM313,-14c0,0,-50,0,-94,14c0,0,-44,14,-75,45c0,0,-33,30,-50,77c0,0,-18,47,-18,109c0,0,0,123,87,182c0,0,85,59,261,60H551v93c0,0,0,42,-4,78c0,0,-5,34,-20,60c0,0,-15,26,-42,40c0,0,-28,14,-75,14c0,0,-44,0,-71,-12c0,0,-29,-13,-43,-35c0,0,-16,-23,-21,-53c0,0,-6,-31,-5,-66c0,0,-64,0,-96,21c0,0,-34,21,-34,75c0,0,0,39,22,67c0,0,21,28,60,45c0,0,36,17,87,26c0,0,49,7,107,8c0,0,69,0,122,-13c0,0,52,-15,87,-46c0,0,34,-31,53,-81c0,0,17,-52,17,-124V174c0,0,0,-33,5,-53c0,0,6,-22,17,-34c0,0,10,-12,30,-18c0,0,15,-5,38,-5c2,0,3,0,5,0h4V0H588L564,131H551c0,0,-24,-33,-46,-59c0,0,-22,-27,-49,-46C456,26,429,6,395,-3c0,0,-35,-11,-82,-11Z" 
id="f1_9"
transform="scale(0.001,-0.001)" />

<path d="M365,0L119,674c0,0,-9,23,-18,39c0,0,-11,15,-23,26c0,0,-12,8,-29,12c0,0,-17,3,-39,4H6v64H388V755H369c0,0,-47,0,-69,-18c0,0,-24,-18,-23,-56c0,0,-1,-13,3,-25c0,0,3,-14,9,-31L392,336c0,0,10,-26,21,-58c0,0,9,-33,20,-65c0,0,8,-31,16,-59c0,0,7,-29,11,-47h5c0,0,3,16,12,41c0,0,8,23,20,53c0,0,10,27,22,58c0,0,11,29,22,57L650,614c0,0,8,19,12,36c0,0,3,16,3,30c0,0,0,38,-25,57c0,0,-26,18,-76,18H553v64H880V755H862c0,0,-23,0,-38,-5c0,0,-17,-6,-29,-18c0,0,-12,-14,-24,-37c0,0,-12,-24,-26,-59L504,0Z" 
id="f1_j"
transform="scale(0.001,-0.001)" />

<path d="M35,0V64H55c0,0,25,0,49,4c0,0,22,3,39,13c0,0,17,10,28,32c0,0,10,20,10,53V650c0,0,0,33,-10,55c0,0,-11,20,-28,31c0,0,-17,11,-39,15c0,0,-24,3,-49,4H51v64H324V174c0,0,0,-37,10,-58c0,0,10,-21,27,-32c0,0,16,-13,40,-16c0,0,22,-4,48,-4h20V0ZM249,972c-1,0,-2,0,-3,0c0,0,-1,0,-2,0c-5,0,-20,0,-32,5c0,0,-16,5,-28,16c0,0,-12,11,-18,29c0,0,-7,18,-7,45c0,0,0,27,7,45c0,0,6,17,18,29c0,0,12,11,28,15c0,0,15,5,34,5c0,0,18,0,34,-5c0,0,15,-4,27,-15c0,0,11,-12,19,-29c0,0,7,-18,7,-45c0,0,0,-27,-7,-45c0,0,-8,-18,-19,-29c0,0,-12,-11,-27,-16c0,0,-14,-5,-31,-5Z" 
id="f1_8"
transform="scale(0.001,-0.001)" />

<path d="M367,-14c0,0,-59,0,-100,13c0,0,-42,10,-69,38c0,0,-27,27,-39,73c0,0,-14,45,-14,112V732H29v61c0,0,28,0,61,11c0,0,32,11,58,37c0,0,26,28,43,68c0,0,15,38,28,98h70V819H489V732H289V217c0,0,-1,-78,32,-115c0,0,30,-36,83,-36c0,0,1,0,1,0c0,0,2,0,6,0c9,0,28,0,45,3c0,0,23,3,47,7V9C503,9,492,4,477,0c0,0,-15,-3,-33,-6c0,0,-20,-5,-39,-6c0,0,-20,-2,-38,-2Z" 
id="f1_5"
transform="scale(0.001,-0.001)" />

<path d="M442,64c0,0,56,0,97,23c0,0,38,22,64,66c0,0,24,43,36,108c0,0,9,65,10,150c0,0,0,85,-11,149c0,0,-11,64,-36,108c0,0,-25,42,-64,64c0,0,-41,21,-98,21c0,0,-58,0,-97,-21c0,0,-39,-22,-64,-64c0,0,-25,-44,-36,-108c0,0,-11,-64,-11,-149c0,0,0,-85,11,-150c0,0,11,-65,37,-108c0,0,24,-44,65,-66c0,0,38,-23,97,-23Zm-3,-78c0,0,-83,0,-149,25c0,0,-66,26,-111,79c0,0,-47,52,-70,134c0,0,-25,79,-25,187c0,0,0,213,91,319c0,0,90,103,268,104c0,0,82,0,149,-25c0,0,65,-26,111,-79c0,0,46,-53,71,-132c0,0,23,-80,23,-187c0,0,0,-216,-91,-321C706,90,614,-14,439,-14Z" 
id="f1_4"
transform="scale(0.001,-0.001)" />

<path d="M43,0V64H55c0,0,26,0,49,4c0,0,23,3,40,16c0,0,16,11,27,32c0,0,10,21,10,58V650c0,0,0,33,-10,55c0,0,-11,20,-28,31c0,0,-17,11,-39,15c0,0,-24,3,-49,4H51v64H298L318,695h7c0,0,23,42,51,70c0,0,25,27,56,43c0,0,29,14,63,21c0,0,32,5,69,5c0,0,60,-1,108,-17c0,0,47,-18,81,-54c0,0,32,-37,50,-93c0,0,17,-58,18,-135V174c0,0,0,-37,9,-58c0,0,7,-21,23,-32c0,0,16,-13,38,-16c0,0,21,-4,47,-4h5V0H677V527c0,0,0,50,-9,89c0,0,-10,39,-29,66c0,0,-20,26,-52,41c0,0,-33,13,-78,13c0,0,-53,0,-88,-20c0,0,-36,-20,-57,-54c0,0,-22,-35,-31,-79c0,0,-10,-45,-9,-94V166c0,0,0,-33,10,-53c0,0,10,-22,27,-32c0,0,16,-10,40,-13c0,0,22,-4,48,-4h5V0Z" 
id="f1_7"
transform="scale(0.001,-0.001)" />

<path d="M20,0V64H40c0,0,25,0,49,4c0,0,22,3,39,16c0,0,17,11,27,32c0,0,10,21,10,58V993c0,0,0,33,-10,54c0,0,-11,21,-27,32c0,0,-18,11,-40,15c0,0,-24,3,-48,3H20v64H309V174c0,0,-1,-37,10,-58c0,0,9,-21,26,-32c0,0,17,-13,41,-16c0,0,22,-4,48,-4h20V0Z" 
id="f1_a"
transform="scale(0.001,-0.001)" />

<path d="M41,0V64H61c0,0,26,0,49,4c0,0,23,3,40,16c0,0,16,11,27,32c0,0,9,21,9,58V747H47v72H186v76c0,0,0,68,19,121c0,0,19,52,54,88c0,0,34,35,85,55c0,0,50,17,113,17c0,0,58,0,100,-7c0,0,41,-8,67,-22c0,0,24,-15,35,-34c0,0,12,-20,12,-43c0,0,0,-22,-9,-37c0,0,-11,-17,-26,-27c0,0,-18,-11,-40,-16c0,0,-24,-6,-51,-6c0,0,0,23,-4,45c0,0,-6,21,-17,39c0,0,-12,17,-31,28c0,0,-19,10,-48,10c0,0,-34,0,-55,-12c0,0,-22,-13,-36,-38c0,0,-13,-26,-18,-62c0,0,-6,-37,-6,-85V819H545V747H330V174c0,0,0,-37,10,-58c0,0,10,-21,27,-32c0,0,16,-13,40,-16c0,0,22,-4,48,-4h58V0Z" 
id="f1_l"
transform="scale(0.001,-0.001)" />

<path d="M433,-14c0,0,-77,0,-141,23c0,0,-64,23,-110,74c0,0,-46,50,-72,130c0,0,-26,79,-26,192c0,0,0,122,26,205c0,0,26,82,72,132c0,0,46,49,108,71c0,0,61,21,134,21c0,0,47,0,96,-9c0,0,47,-10,85,-29c0,0,38,-19,62,-49c0,0,23,-30,24,-69c0,0,0,-54,-35,-74c0,0,-35,-22,-102,-22c0,0,0,35,-6,68c0,0,-6,32,-20,56c0,0,-15,24,-39,38c0,0,-26,14,-65,14c0,0,-44,0,-79,-16c0,0,-35,-18,-61,-57c0,0,-26,-40,-39,-108c0,0,-13,-69,-13,-170c0,0,-1,-164,54,-243c0,0,54,-80,177,-80h1c6,0,72,1,123,30c0,0,52,30,79,77c0,0,11,-10,19,-24c0,0,7,-15,7,-36c0,0,0,-27,-16,-52c0,0,-17,-26,-49,-47C627,32,594,10,546,0c0,0,-48,-14,-113,-14Z" 
id="f1_m"
transform="scale(0.001,-0.001)" />

<path d="M586,481c0,0,0,60,-9,111c0,0,-9,50,-29,85c0,0,-19,36,-51,56c0,0,-33,18,-79,19c0,0,-87,-1,-133,-69c0,0,-46,-69,-46,-202ZM439,-14c0,0,-83,0,-149,27c0,0,-66,28,-112,82c0,0,-46,53,-69,132c0,0,-25,77,-25,177c0,0,0,213,88,322c0,0,88,108,251,108c0,0,73,0,133,-23c0,0,58,-24,100,-69c0,0,41,-46,63,-114c0,0,21,-69,22,-159V399H233c0,0,0,-84,15,-143c0,0,15,-61,44,-99c0,0,28,-40,71,-57c0,0,40,-19,93,-19c1,0,2,0,4,0c0,0,38,0,73,9c0,0,33,9,62,24c0,0,26,14,48,34c0,0,21,18,35,40c0,0,10,-4,20,-19c0,0,9,-15,9,-33c0,0,0,-24,-16,-49c0,0,-17,-27,-50,-50C641,37,607,14,557,0c0,0,-50,-14,-118,-14Z" 
id="f1_6"
transform="scale(0.001,-0.001)" />

<path d="M321,-14c0,0,-58,0,-104,11c0,0,-48,7,-80,29c0,0,-33,20,-50,51c0,0,-18,30,-18,70c0,0,0,30,10,51c0,0,10,20,25,33c0,0,14,11,31,17c0,0,16,4,30,4c0,0,0,-41,8,-75c0,0,8,-36,28,-61c0,0,18,-28,51,-42c0,0,31,-16,78,-16c0,0,41,0,72,11c0,0,31,9,53,28c0,0,21,18,32,44c0,0,11,25,11,56c0,0,0,28,-8,49c0,0,-9,20,-30,38c0,0,-21,17,-58,37c0,0,-37,18,-92,42c0,0,-59,26,-102,51c0,0,-45,23,-72,52c0,0,-29,28,-43,65c0,0,-15,35,-14,86c0,0,-1,52,21,92c0,0,20,40,58,68c0,0,38,26,91,41c0,0,52,15,118,15c0,0,54,0,96,-12c0,0,41,-11,70,-30c0,0,28,-19,43,-44c0,0,14,-27,14,-55c0,0,-1,-42,-28,-66c0,0,-29,-25,-80,-25c-1,0,-2,0,-2,0c0,0,0,76,-32,119c0,0,-32,42,-100,42c0,0,-39,0,-66,-9c0,0,-28,-9,-45,-25c0,0,-18,-17,-26,-39c0,0,-8,-22,-8,-49c0,0,0,-29,10,-50c0,0,10,-22,34,-39c0,0,22,-18,59,-35c0,0,36,-17,86,-38c0,0,60,-26,104,-50c0,0,43,-24,72,-54c0,0,27,-29,41,-65c0,0,13,-37,13,-84c0,0,-1,-60,-21,-105c0,0,-23,-45,-62,-74C539,46,499,14,445,0c0,0,-56,-14,-124,-14Z" 
id="f1_e"
transform="scale(0.001,-0.001)" />

<path d="M222,-9c-1,0,-2,0,-3,0c0,0,-1,0,-3,0c-6,0,-22,0,-35,5c0,0,-18,4,-30,16c0,0,-14,12,-21,32c0,0,-8,20,-8,49c0,0,0,30,8,50c0,0,7,19,21,32c0,0,12,11,30,17c0,0,17,5,38,5c0,0,18,0,37,-5c0,0,16,-6,30,-17c0,0,12,-13,21,-32c0,0,8,-20,8,-50c0,0,0,-29,-8,-49c0,0,-9,-20,-21,-32C286,12,272,0,256,-4c0,0,-17,-5,-34,-5Z" 
id="f1_u"
transform="scale(0.001,-0.001)" />

<path d="M382,-14c-2,0,-3,0,-5,0c0,0,-75,0,-131,15c0,0,-57,15,-95,44c0,0,-40,27,-58,68c0,0,-20,38,-20,87c0,0,0,45,29,75c0,0,29,27,82,28c0,0,0,-49,13,-92c0,0,12,-44,36,-77c0,0,24,-34,64,-54c0,0,38,-20,92,-20c6,0,104,0,161,50c0,0,58,49,58,142c0,0,0,41,-12,74c0,0,-13,31,-39,60c0,0,-29,26,-73,52c0,0,-46,24,-113,52c0,0,-71,29,-123,63c0,0,-54,32,-88,74c0,0,-36,39,-53,90c0,0,-17,50,-17,113c0,0,0,65,26,117c0,0,24,51,69,87c0,0,44,34,106,54c0,0,60,18,133,18c0,0,68,0,122,-14c0,0,52,-15,90,-38c0,0,36,-25,56,-54c0,0,18,-32,18,-65c0,0,0,-50,-32,-74c0,0,-33,-26,-86,-26c0,0,-1,1,-2,1c0,0,-1,35,-8,70c0,0,-9,34,-29,62c0,0,-21,27,-53,44c0,0,-34,17,-81,17c0,0,-45,0,-79,-11c0,0,-36,-13,-59,-36c0,0,-24,-23,-36,-55c0,0,-13,-33,-13,-71c0,0,-1,-47,12,-80c0,0,12,-35,40,-63c0,0,27,-28,73,-53c0,0,46,-26,112,-52c0,0,67,-28,120,-58c0,0,52,-32,89,-68c0,0,37,-39,56,-84c0,0,19,-47,19,-106c0,0,0,-73,-26,-129c0,0,-27,-59,-76,-97C651,66,602,26,533,6c0,0,-67,-20,-151,-20Z" 
id="f1_19"
transform="scale(0.001,-0.001)" />

<path d="M28,0V64H40c0,0,25,0,49,4c0,0,22,3,39,16c0,0,17,11,27,32c0,0,10,21,10,58V993c0,0,0,33,-10,54c0,0,-11,21,-27,32c0,0,-18,11,-40,15c0,0,-24,3,-48,3H28v64H308V825c0,0,0,-22,0,-43c0,0,-1,-24,-4,-43c0,0,0,-23,0,-44h6c0,0,68,139,225,139c0,0,65,-1,115,-17c0,0,50,-18,85,-54c0,0,34,-37,52,-93c0,0,18,-58,18,-135V174c0,0,0,-37,9,-58c0,0,9,-21,24,-32c0,0,16,-13,38,-16c0,0,21,-4,47,-4h4V0H662V527c0,0,0,50,-9,89c0,0,-10,39,-29,66c0,0,-20,26,-52,41c0,0,-33,13,-78,13c0,0,-49,0,-82,-17c0,0,-35,-18,-58,-50c0,0,-24,-33,-34,-78c0,0,-11,-46,-11,-102V166c0,0,0,-33,10,-53c0,0,10,-22,27,-32c0,0,17,-10,40,-13c0,0,22,-4,48,-4h5V0Z" 
id="f1_f"
transform="scale(0.001,-0.001)" />

<path d="M315,0L115,674c0,0,-9,23,-19,39c0,0,-10,15,-22,26c0,0,-13,8,-29,12c0,0,-17,3,-39,4H1v64H379V755H359c0,0,-46,0,-69,-13c0,0,-24,-15,-23,-51c0,0,0,-13,5,-31c0,0,3,-18,8,-35L351,369c0,0,8,-29,16,-61c0,0,7,-33,16,-65c0,0,6,-33,12,-61c0,0,6,-29,10,-48h5c0,0,3,19,10,46c0,0,5,24,15,55c0,0,7,29,18,60c0,0,9,30,19,58L631,815h96L880,362c0,0,9,-29,20,-59c0,0,9,-33,18,-63c0,0,9,-31,17,-59c0,0,7,-28,11,-47h4c0,0,7,38,22,94c0,0,14,55,38,129l76,247c0,0,5,18,11,41c0,0,3,21,3,35c0,0,0,38,-24,57c0,0,-26,18,-77,18H988v64h327V755h-19c0,0,-23,0,-39,-5c0,0,-17,-5,-29,-17c0,0,-14,-13,-25,-36c0,0,-11,-24,-22,-61L984,0H862L680,538L652,639L436,0Z" 
id="f1_s"
transform="scale(0.001,-0.001)" />

<path d="M28,0V64H40c0,0,25,0,49,4c0,0,22,3,39,16c0,0,17,11,27,32c0,0,10,21,10,58V993c0,0,0,33,-10,54c0,0,-11,21,-27,32c0,0,-18,11,-40,15c0,0,-24,3,-48,3H28v64H306V571c0,0,0,-21,0,-53c0,0,0,-32,0,-64c0,0,0,-36,0,-75L495,588c0,0,24,27,40,48c0,0,16,21,25,37c0,0,10,16,14,28c0,0,3,12,3,23c0,0,0,19,-18,26c0,0,-19,5,-56,5v64H840V755c0,0,-54,-1,-104,-37c0,0,-52,-38,-111,-106L518,492L721,189c0,0,39,-61,79,-93c0,0,38,-32,89,-32q1,0,2,0h4V0H874c0,0,-67,0,-109,4c0,0,-44,3,-75,20c0,0,-32,14,-57,45c0,0,-27,29,-59,79L421,388L309,304V166c0,0,0,-33,10,-53c0,0,10,-22,27,-32c0,0,17,-10,40,-13c0,0,22,-4,48,-4h5V0Z" 
id="f1_t"
transform="scale(0.001,-0.001)" />

<path d="M421,83c0,0,59,0,100,20c0,0,39,19,65,60c0,0,23,39,34,101c0,0,10,61,10,144c0,0,0,79,-10,141c0,0,-11,61,-34,103c0,0,-25,41,-65,63c0,0,-41,21,-101,21c0,0,-51,0,-86,-21c0,0,-36,-23,-58,-64c0,0,-24,-42,-34,-103c0,0,-10,-62,-10,-141c0,0,0,-163,44,-244c0,0,43,-80,145,-80ZM395,-14c-8,0,-78,1,-133,24c0,0,-59,24,-98,77c0,0,-39,52,-60,132c0,0,-20,79,-20,189c0,0,0,110,20,191c0,0,21,80,60,133c0,0,39,51,98,77c0,0,58,25,133,25c0,0,44,0,80,-10c0,0,36,-10,65,-27c0,0,28,-18,51,-43c0,0,21,-24,39,-54h4c0,0,0,36,0,70c0,0,0,27,0,57c0,0,0,27,0,41V993c0,0,-1,33,-10,54c0,0,-11,21,-29,32c0,0,-18,11,-41,15c0,0,-24,3,-49,3H492v64H773V168c0,0,0,-34,10,-54c0,0,10,-21,27,-32c0,0,17,-11,40,-14c0,0,22,-4,48,-4h13V0H652L636,137h-6c0,0,-18,-35,-39,-62c0,0,-23,-29,-51,-48C540,27,512,6,476,-3c0,0,-36,-11,-81,-11Z" 
id="f1_h"
transform="scale(0.001,-0.001)" />

<path d="M518,83c0,0,50,0,86,21c0,0,35,21,58,63c0,0,23,41,33,104c0,0,10,61,11,142c0,0,-1,80,-11,142c0,0,-10,60,-33,101c0,0,-23,40,-58,60c0,0,-38,20,-88,20c0,0,-60,0,-99,-19c0,0,-41,-20,-64,-61c0,0,-24,-40,-34,-101c0,0,-10,-62,-10,-144c0,0,0,-80,10,-141c0,0,10,-62,35,-103c0,0,23,-42,64,-63c0,0,39,-21,100,-21Zm27,-97c-1,0,-2,0,-3,0h-2c-8,0,-46,1,-77,10c0,0,-37,8,-65,26c0,0,-29,18,-50,43c0,0,-23,24,-39,54H299L272,0H28V64H40c0,0,25,0,49,4c0,0,22,3,39,16c0,0,17,11,27,32c0,0,10,21,10,58V993c0,0,0,33,-10,54c0,0,-11,21,-27,32c0,0,-18,11,-40,15c0,0,-24,3,-48,3H28v64H306V880c0,0,0,-26,0,-59c0,0,0,-35,0,-66c0,0,0,-36,0,-74h3c0,0,16,34,39,63c0,0,21,28,50,49c0,0,27,19,64,31c0,0,36,9,80,10c0,0,75,0,134,-25c0,0,58,-26,98,-76c0,0,38,-53,60,-132c0,0,20,-80,20,-190c0,0,0,-111,-20,-191c0,0,-22,-80,-60,-133c0,0,-40,-53,-98,-77c0,0,-57,-24,-131,-24Z" 
id="f1_i"
transform="scale(0.001,-0.001)" />

<path d="M58,-366v72h1c8,0,79,1,133,23c0,0,55,24,97,64c0,0,39,40,68,95c0,0,26,55,45,118L119,674c0,0,-10,23,-20,39c0,0,-10,14,-21,25c0,0,-13,9,-29,13c0,0,-17,3,-39,4H6v64H373V755h-4c0,0,-47,0,-69,-18c0,0,-24,-18,-23,-56c0,0,-1,-13,3,-25c0,0,2,-14,9,-31L401,353c0,0,9,-27,22,-57c0,0,11,-31,22,-61c0,0,9,-31,18,-57c0,0,7,-28,11,-47h4c0,0,8,34,23,82c0,0,14,48,34,103L637,614c0,0,7,19,11,36c0,0,2,16,2,30c0,0,0,38,-24,57c0,0,-26,18,-76,18h-5v64H863V755h-4c0,0,-23,0,-38,-5c0,0,-18,-6,-30,-18c0,0,-13,-14,-24,-37c0,0,-11,-24,-25,-59L510,-5c0,0,-27,-74,-50,-130c0,0,-25,-56,-50,-95c0,0,-27,-41,-57,-67c0,0,-32,-26,-71,-41c0,0,-40,-17,-91,-22c0,0,-51,-6,-119,-6Z" 
id="f1_d"
transform="scale(0.001,-0.001)" />

<path d="M518,83c0,0,50,0,86,21c0,0,35,21,58,63c0,0,23,41,33,104c0,0,10,61,11,142c0,0,-1,80,-11,142c0,0,-10,60,-33,101c0,0,-23,40,-58,60c0,0,-38,20,-88,20c0,0,-60,0,-99,-19c0,0,-41,-20,-64,-61c0,0,-24,-40,-34,-101c0,0,-10,-62,-10,-144c0,0,0,-80,10,-141c0,0,10,-62,35,-103c0,0,23,-42,64,-63c0,0,39,-21,100,-21ZM28,-366v64H40c0,0,25,0,49,4c0,0,22,3,39,16c0,0,17,11,27,33c0,0,10,21,10,58V650c0,0,0,33,-10,55c0,0,-11,20,-27,31c0,0,-18,11,-40,15c0,0,-24,3,-48,4H20v64H287L303,681h6c0,0,16,34,39,63c0,0,21,28,50,49c0,0,27,19,64,31c0,0,36,9,80,10c0,0,75,0,134,-25c0,0,58,-26,98,-76c0,0,38,-53,60,-132c0,0,20,-80,20,-190c0,0,0,-111,-20,-191c0,0,-22,-80,-60,-133c0,0,-40,-53,-98,-77c0,0,-57,-24,-131,-24c-1,0,-2,0,-3,0h-2c-8,0,-46,1,-77,10c0,0,-37,8,-65,26c0,0,-29,18,-50,43c0,0,-23,24,-39,54h-3c0,0,0,-39,0,-73c0,0,0,-15,0,-30c0,0,0,-15,0,-28c0,0,0,-14,0,-24c0,0,0,-11,0,-17V-199c0,0,0,-33,10,-54c0,0,10,-21,28,-31c0,0,17,-11,41,-14c0,0,23,-4,49,-4h5v-64Z" 
id="f1_g"
transform="scale(0.001,-0.001)" />

<path d="M64,0V61L507,732H269c0,0,-31,0,-50,-8c0,0,-19,-8,-31,-24c0,0,-13,-15,-20,-38c0,0,-9,-24,-17,-54l-1,-6H93V819H686V756L242,87H519c0,0,27,0,45,11c0,0,16,9,29,27c0,0,11,17,19,41c0,0,6,22,12,47l7,35h61V0Z" 
id="f1_w"
transform="scale(0.001,-0.001)" />

<path d="M46,-234v64c0,0,74,23,110,58c0,0,34,35,35,79c0,0,-1,15,-8,26c0,0,-9,8,-21,17c0,0,-13,6,-27,15c0,0,-15,7,-27,18c0,0,-13,9,-21,26c0,0,-8,14,-8,38c0,0,0,43,29,67c0,0,28,23,71,23c0,0,23,-1,45,-8c0,0,20,-9,37,-26c0,0,16,-17,26,-41c0,0,9,-27,9,-58c0,0,0,-48,-13,-93c0,0,-14,-46,-44,-84c0,0,-30,-40,-77,-70c0,0,-49,-31,-116,-51Z" 
id="f1_r"
transform="scale(0.001,-0.001)" />

<path d="M351,-291c2,0,3,0,5,0c0,0,1,0,2,0c12,0,84,1,134,15c0,0,52,13,84,38c0,0,31,23,44,58c0,0,12,34,13,74c0,0,0,35,-10,59c0,0,-11,22,-30,35c0,0,-20,12,-49,17c0,0,-29,5,-67,5H327c0,0,-33,0,-62,-5c0,0,-31,-5,-54,-20c0,0,-24,-17,-38,-44c0,0,-15,-29,-14,-74c0,0,0,-34,9,-63c0,0,9,-29,31,-50c0,0,23,-22,61,-33c0,0,35,-12,91,-12Zm34,658c0,0,1,0,1,0c0,0,37,0,64,11c0,0,24,11,42,35c0,0,15,22,23,59c0,0,7,35,7,86c0,0,0,103,-31,152c0,0,-31,49,-106,49c0,0,-74,0,-105,-50c0,0,-33,-50,-32,-153c0,0,0,-98,32,-143c0,0,32,-46,105,-46ZM353,-366c-8,0,-162,1,-239,59c0,0,-80,59,-79,164c0,0,0,45,16,78c0,0,15,34,42,58c0,0,26,22,61,38c0,0,34,14,72,21c0,0,-16,7,-31,18c0,0,-14,11,-26,27c0,0,-13,16,-20,36c0,0,-8,20,-7,45c0,0,0,45,24,79c0,0,23,32,76,64c0,0,-33,13,-58,37c0,0,-27,23,-44,54c0,0,-18,30,-27,65c0,0,-10,36,-9,74c0,0,0,66,18,119c0,0,18,51,53,89c0,0,36,36,90,56c0,0,53,18,126,19c0,0,28,-1,54,-4c0,0,26,-4,50,-11c0,0,22,-8,41,-16c0,0,18,-9,29,-19c0,0,12,12,27,27c0,0,14,14,33,27c0,0,19,12,41,20c0,0,21,7,47,8c0,0,23,-1,40,-6c0,0,17,-7,28,-17c0,0,11,-11,17,-25c0,0,5,-15,5,-31c0,0,0,-17,-4,-31c0,0,-6,-15,-15,-25c0,0,-10,-12,-25,-17c0,0,-15,-7,-36,-7c0,0,0,9,-2,18c0,0,-3,9,-8,17c0,0,-6,7,-16,13c0,0,-10,4,-25,4c0,0,-19,0,-35,-4c0,0,-16,-5,-31,-14c0,0,26,-33,44,-76c0,0,16,-44,16,-109c0,0,-1,-57,-17,-105c0,0,-17,-48,-51,-82c0,0,-35,-36,-86,-56c0,0,-52,-19,-121,-19H348c0,0,-11,0,-21,1c0,0,-10,1,-15,3c0,0,-15,-9,-29,-17c0,0,-13,-9,-23,-20c0,0,-11,-11,-16,-25c0,0,-6,-15,-6,-32c0,0,-1,-19,7,-29c0,0,7,-12,20,-18c0,0,12,-7,30,-8c0,0,17,-2,38,-2H506c0,0,68,-1,116,-17c0,0,48,-17,78,-47c0,0,30,-32,44,-73c0,0,14,-41,14,-90c0,0,-1,-67,-24,-119c0,0,-25,-53,-75,-89c0,0,-50,-38,-126,-58c0,0,-77,-20,-180,-20Z" 
id="f1_c"
transform="scale(0.001,-0.001)" />

<path d="M43,0V64H63c0,0,25,0,47,4c0,0,21,3,38,16c0,0,15,11,24,32c0,0,8,21,9,58V650c0,0,0,33,-9,55c0,0,-9,20,-25,31c0,0,-16,11,-37,15c0,0,-22,3,-47,4H58v64H298L318,695h7c0,0,23,42,49,70c0,0,25,27,54,43c0,0,28,14,61,21c0,0,31,5,67,5c0,0,36,0,71,-7c0,0,33,-9,62,-24c0,0,28,-17,52,-43c0,0,21,-27,36,-65h13c0,0,23,42,50,70c0,0,27,27,57,43c0,0,30,14,64,21c0,0,32,5,68,5c0,0,59,-1,105,-17c0,0,45,-18,78,-54c0,0,32,-37,49,-93c0,0,17,-58,18,-135V174c0,0,0,-37,9,-58c0,0,9,-21,24,-32c0,0,16,-13,37,-16c0,0,21,-4,47,-4h5V0H1135V527c0,0,0,50,-8,89c0,0,-9,39,-27,66c0,0,-21,26,-50,41c0,0,-32,13,-75,13c0,0,-48,0,-80,-18c0,0,-33,-19,-53,-50c0,0,-21,-31,-28,-72c0,0,-9,-42,-9,-87V174c0,0,0,-37,9,-58c0,0,9,-21,24,-32c0,0,16,-13,38,-16c0,0,21,-4,47,-4h4V0H662V527c0,0,-1,50,-9,89c0,0,-8,39,-27,66c0,0,-20,26,-50,41c0,0,-31,13,-75,13c0,0,-50,0,-83,-20c0,0,-35,-20,-55,-54c0,0,-22,-35,-30,-79c0,0,-9,-45,-9,-94V166c0,0,0,-33,10,-53c0,0,10,-22,27,-32c0,0,16,-10,40,-13c0,0,22,-4,48,-4h5V0Z" 
id="f1_o"
transform="scale(0.001,-0.001)" />

<path d="M451,-14c0,0,-85,0,-154,21c0,0,-71,21,-120,71c0,0,-51,50,-78,131c0,0,-28,80,-27,198c0,0,0,123,29,206c0,0,27,82,79,133c0,0,50,50,118,72c0,0,68,20,148,20c0,0,73,0,131,-11c0,0,56,-14,94,-35c0,0,38,-21,59,-50c0,0,18,-31,19,-64c0,0,-1,-25,-8,-48c0,0,-10,-24,-31,-41c0,0,-22,-18,-60,-30c0,0,-40,-11,-99,-11c0,0,0,39,-4,76c0,0,-6,35,-17,62c0,0,-11,26,-29,44c0,0,-20,15,-49,15c0,0,-34,0,-60,-15c0,0,-26,-18,-45,-56c0,0,-20,-39,-29,-103c0,0,-11,-66,-11,-163c0,0,0,-156,43,-232c0,0,42,-77,137,-77q1,0,2,0h1c8,0,42,1,73,10c0,0,35,9,63,26c0,0,27,16,50,40c0,0,21,22,34,48c0,0,19,-11,28,-30c0,0,9,-19,9,-40c0,0,-1,-29,-17,-59c0,0,-18,-31,-53,-54C677,40,639,15,584,1c0,0,-57,-15,-133,-15Z" 
id="f0_o"
transform="scale(0.001,-0.001)" />

<path d="M421,0L142,946c0,0,-8,23,-17,39c0,0,-10,16,-22,25c0,0,-13,9,-30,13c0,0,-17,3,-39,3H13v65H434v-65H399c0,0,-46,0,-69,-17c0,0,-23,-18,-23,-56c0,0,0,-12,4,-26c0,0,3,-14,8,-30L460,408c0,0,18,-70,36,-136c0,0,16,-68,30,-122c0,0,11,59,27,130c0,0,14,71,35,144l182,656H880L1071,419c0,0,21,-77,39,-146c0,0,16,-71,27,-123c0,0,11,54,26,116c0,0,13,61,35,135l134,471c0,0,2,9,6,20c0,0,3,11,5,23c0,0,2,10,4,20c0,0,1,10,2,17c0,0,0,39,-25,57c0,0,-26,17,-76,17h-35v65h373v-65h-29c0,0,-23,0,-39,-4c0,0,-17,-5,-31,-17c0,0,-13,-13,-24,-36c0,0,-11,-24,-23,-61L1182,0H1045L796,856L562,0Z" 
id="f1_1a"
transform="scale(0.001,-0.001)" />

<path d="M417,-14c0,0,-60,0,-107,16c0,0,-47,17,-79,54c0,0,-33,36,-49,93c0,0,-17,57,-17,135V650c0,0,0,33,-10,55c0,0,-11,20,-27,31c0,0,-18,11,-40,15c0,0,-24,3,-48,4H35v64H309V292c0,0,0,-51,8,-89c0,0,7,-40,26,-66c0,0,18,-27,49,-40c0,0,29,-14,74,-14c1,0,2,0,3,0c0,0,50,0,88,18c0,0,35,18,59,50c0,0,23,32,34,78c0,0,12,46,12,101V645c0,0,0,35,-10,58c0,0,-10,21,-27,33c0,0,-17,11,-39,15c0,0,-24,3,-50,4h-4v64H805V166c0,0,0,-33,10,-53c0,0,10,-22,27,-32c0,0,17,-10,41,-13c0,0,21,-4,47,-4h5V0H692L672,124h-7c0,0,-24,-44,-51,-70c0,0,-28,-28,-60,-42c0,0,-31,-15,-65,-20c0,0,-35,-6,-72,-6Z" 
id="f1_k"
transform="scale(0.001,-0.001)" />

<path d="M439,497c0,0,69,0,118,15c0,0,49,14,81,47c0,0,31,32,46,83c0,0,14,50,14,123c0,0,-1,64,-12,112c0,0,-14,47,-41,79c0,0,-29,31,-74,47c0,0,-46,14,-110,15H357V497ZM58,0V64H78c0,0,25,0,49,4c0,0,22,3,39,16c0,0,17,11,27,32c0,0,10,21,10,58V923c0,0,0,33,-10,54c0,0,-11,20,-27,32c0,0,-18,11,-40,14c0,0,-24,3,-48,3H58v65H487c0,0,96,-1,167,-22c0,0,70,-22,117,-63c0,0,46,-42,70,-101c0,0,22,-60,22,-134c0,0,0,-68,-21,-130c0,0,-22,-63,-70,-111c0,0,-48,-49,-127,-76c0,0,-79,-30,-191,-30H357V166c0,0,0,-33,11,-53c0,0,9,-22,27,-32c0,0,16,-10,40,-13c0,0,22,-4,48,-4h50V0Z" 
id="f1_3"
transform="scale(0.001,-0.001)" />

<path d="M58,0V64H78c0,0,24,0,48,4c0,0,22,3,40,13c0,0,16,10,27,32c0,0,10,20,10,53V917c0,0,0,36,-10,57c0,0,-10,21,-27,34c0,0,-17,11,-39,15c0,0,-24,3,-49,3H58v65H832V824H756l-7,65c0,0,-4,25,-11,49c0,0,-9,22,-25,39c0,0,-17,17,-40,28c0,0,-25,10,-59,10H357V608H726V533H357V76H652c0,0,37,0,63,11c0,0,25,9,42,26c0,0,17,17,27,41c0,0,10,21,13,47l11,66h75V0Z" 
id="f1_10"
transform="scale(0.001,-0.001)" />

<path d="M58,0V64H78c0,0,24,0,48,4c0,0,22,3,40,13c0,0,16,10,27,32c0,0,10,20,10,53V923c0,0,0,33,-10,54c0,0,-11,20,-27,32c0,0,-18,11,-40,14c0,0,-24,3,-48,3H58v65H503v-65H483c0,0,-26,0,-49,-3c0,0,-24,-4,-39,-15c0,0,-18,-13,-27,-34c0,0,-11,-21,-11,-57V486L674,848c0,0,23,28,41,51c0,0,15,21,26,39c0,0,9,18,13,32c0,0,3,13,4,24c0,0,0,19,-19,27c0,0,-19,7,-56,7v63h338v-63c0,0,-27,0,-50,-10c0,0,-26,-10,-49,-28c0,0,-25,-19,-50,-45c0,0,-26,-27,-56,-60L595,636L917,186c0,0,43,-61,85,-91c0,0,40,-31,83,-31h3V0h-17c0,0,-77,0,-126,6c0,0,-49,5,-83,22c0,0,-33,15,-58,42c0,0,-26,25,-54,67L487,515L357,410V174c0,0,0,-37,11,-58c0,0,9,-21,27,-32c0,0,15,-13,39,-16c0,0,23,-4,49,-4h20V0Z" 
id="f1_x"
transform="scale(0.001,-0.001)" />

<path d="M58,0V64H78c0,0,25,0,49,4c0,0,22,3,39,16c0,0,17,11,27,32c0,0,10,21,10,58V923c0,0,0,33,-10,54c0,0,-11,20,-27,32c0,0,-18,11,-40,14c0,0,-24,3,-48,3H58v65H503v-65H483c0,0,-26,0,-49,-3c0,0,-24,-4,-39,-15c0,0,-18,-13,-27,-34c0,0,-11,-21,-11,-57V608H854V917c0,0,0,36,-10,57c0,0,-10,21,-26,34c0,0,-18,11,-40,15c0,0,-24,3,-49,3H709v65h444v-65h-19c0,0,-26,0,-49,-3c0,0,-23,-4,-40,-15c0,0,-17,-13,-27,-34c0,0,-10,-21,-9,-57V166c0,0,0,-33,10,-53c0,0,10,-22,27,-32c0,0,16,-10,40,-13c0,0,22,-4,48,-4h19V0H709V64h20c0,0,25,0,49,4c0,0,22,3,40,16c0,0,16,11,26,32c0,0,10,21,10,58V532H357V174c0,0,0,-37,11,-58c0,0,9,-21,27,-32c0,0,15,-13,39,-16c0,0,23,-4,49,-4h20V0Z" 
id="f1_1b"
transform="scale(0.001,-0.001)" />

<path d="M448,99c0,0,45,0,76,20c0,0,29,18,48,57c0,0,17,38,26,98c0,0,7,57,7,137c0,0,0,75,-7,134c0,0,-9,59,-26,99c0,0,-19,39,-48,60c0,0,-31,20,-76,20c0,0,-38,0,-65,-20c0,0,-29,-21,-44,-61c0,0,-17,-40,-25,-98c0,0,-8,-60,-8,-135c0,0,0,-156,33,-233c0,0,31,-78,109,-78ZM386,-14c-1,0,-3,0,-4,0h-1c-7,0,-77,1,-132,24c0,0,-59,24,-98,77c0,0,-40,52,-60,132c0,0,-22,79,-21,189c0,0,-1,110,21,192c0,0,20,80,60,133c0,0,38,53,97,79c0,0,56,25,131,25c0,0,43,0,78,-9c0,0,35,-10,63,-25c0,0,28,-17,49,-39c0,0,21,-22,37,-49h9c0,0,0,42,-6,79c0,0,0,15,0,33c0,0,0,16,-2,31c0,0,-2,14,-2,25c0,0,0,11,0,18v84c0,0,0,32,-10,51c0,0,-10,18,-27,29c0,0,-17,8,-39,12c0,0,-22,3,-48,3H469v81H837V188c0,0,0,-35,10,-56c0,0,10,-22,29,-32c0,0,16,-12,40,-15c0,0,22,-4,48,-4h6V0H674L631,119H617c0,0,-18,-31,-39,-56c0,0,-23,-25,-51,-41C527,22,498,4,463,-4c0,0,-34,-10,-77,-10Z" 
id="f0_a"
transform="scale(0.001,-0.001)" />

<path d="M58,0V64H78c0,0,25,0,49,4c0,0,22,3,39,16c0,0,17,11,27,32c0,0,10,21,10,58V917c0,0,0,36,-10,57c0,0,-10,21,-27,34c0,0,-17,11,-39,15c0,0,-24,3,-49,3H58v65H503v-65H483c0,0,-26,0,-49,-3c0,0,-24,-4,-39,-15c0,0,-18,-13,-27,-34c0,0,-11,-21,-11,-57V174c0,0,0,-37,11,-58c0,0,9,-21,27,-32c0,0,15,-13,39,-16c0,0,23,-4,49,-4h20V0Z" 
id="f1_1c"
transform="scale(0.001,-0.001)" />

<path d="M612,-14c0,0,-133,0,-232,39c0,0,-100,41,-164,115c0,0,-67,73,-99,177c0,0,-33,103,-33,230c0,0,0,124,34,227c0,0,33,103,100,176c0,0,65,73,165,115c0,0,98,41,228,41c0,0,87,0,154,-13c0,0,64,-15,108,-38c0,0,43,-24,65,-56c0,0,21,-34,21,-70c0,0,0,-29,-12,-52c0,0,-13,-25,-36,-43c0,0,-25,-18,-61,-28c0,0,-36,-10,-82,-10c0,0,0,38,-8,76c0,0,-9,37,-27,68c0,0,-21,30,-53,50c0,0,-32,19,-79,19c0,0,-74,-1,-123,-31c0,0,-51,-31,-80,-90c0,0,-30,-59,-44,-144c0,0,-13,-87,-13,-197c0,0,-1,-111,16,-193c0,0,16,-83,53,-138c0,0,36,-55,96,-82c0,0,56,-27,140,-27c1,0,2,0,3,0c0,0,56,0,100,13c0,0,42,12,78,34c0,0,34,21,60,47c0,0,25,25,45,51c0,0,11,-9,19,-27c0,0,7,-20,7,-39c0,0,-1,-32,-17,-67c0,0,-17,-35,-58,-65C883,54,842,23,777,4c0,0,-68,-18,-165,-18Z" 
id="f0_h"
transform="scale(0.001,-0.001)" />

<path d="M392,96c0,0,32,0,60,14c0,0,25,13,46,38c0,0,18,26,29,62c0,0,9,35,9,79V403H468c0,0,-47,-1,-77,-13c0,0,-31,-13,-50,-34c0,0,-19,-22,-27,-53c0,0,-8,-33,-8,-74c0,0,-1,-67,21,-100c0,0,21,-33,65,-33ZM314,-14c-2,0,-3,0,-5,0c0,0,-51,0,-94,14c0,0,-44,15,-76,46c0,0,-33,32,-52,79c0,0,-19,47,-18,111c0,0,-1,125,85,185c0,0,85,61,257,61H536v86c0,0,0,38,-3,71c0,0,-3,32,-12,57c0,0,-11,23,-29,37c0,0,-19,11,-50,12c0,0,-30,0,-49,-12c0,0,-20,-13,-32,-34c0,0,-13,-22,-16,-52c0,0,-6,-31,-6,-67h-1c-11,0,-105,1,-153,24c0,0,-53,23,-52,79c0,0,-1,41,25,71c0,0,24,29,68,49c0,0,43,18,100,27c0,0,57,8,122,8c0,0,80,0,141,-13c0,0,59,-15,100,-45c0,0,38,-30,59,-80c0,0,20,-50,20,-121V189c0,0,0,-31,6,-52c0,0,4,-21,15,-33c0,0,9,-12,28,-17c0,0,15,-6,39,-6c1,0,3,0,4,0h6V0H582L550,105H536c0,0,-26,-30,-47,-53c0,0,-23,-24,-48,-38C441,14,415,0,384,-6c0,0,-30,-8,-70,-8Z" 
id="f0_3"
transform="scale(0.001,-0.001)" />

<path d="M357,-14c-1,0,-3,0,-4,0c0,0,-83,0,-141,14c0,0,-60,12,-96,36c0,0,-37,23,-53,57c0,0,-17,32,-17,70c0,0,0,37,14,61c0,0,15,22,37,35c0,0,21,12,46,17c0,0,25,3,45,4c0,0,-1,-49,12,-86c0,0,12,-39,33,-64c0,0,21,-27,53,-41c0,0,28,-14,64,-14c1,0,2,0,3,0c0,0,39,0,68,8c0,0,28,7,47,23c0,0,18,14,27,34c0,0,9,17,9,39c0,0,0,25,-9,46c0,0,-10,18,-31,37c0,0,-22,16,-57,34c0,0,-38,16,-91,35c0,0,-62,21,-109,46c0,0,-48,24,-79,56c0,0,-33,30,-50,71c0,0,-17,38,-17,91c0,0,0,60,24,106c0,0,22,46,66,76c0,0,44,30,104,45c0,0,61,14,134,15c0,0,73,0,123,-12c0,0,50,-13,83,-33c0,0,32,-20,47,-45c0,0,14,-26,15,-52c0,0,0,-51,-36,-78c0,0,-37,-27,-120,-27c0,0,0,76,-33,119c0,0,-35,41,-101,41c0,0,-25,0,-47,-6c0,0,-24,-5,-40,-17c0,0,-17,-13,-26,-30c0,0,-11,-18,-11,-41c0,0,-1,-26,10,-44c0,0,9,-20,33,-37c0,0,23,-18,63,-36c0,0,40,-18,103,-39c0,0,50,-18,94,-40c0,0,43,-24,74,-53c0,0,30,-30,48,-67c0,0,16,-39,17,-86c0,0,-1,-65,-22,-114c0,0,-22,-50,-65,-84C598,56,555,21,494,4c0,0,-60,-18,-137,-18Z" 
id="f0_r"
transform="scale(0.001,-0.001)" />

<path d="M574,490c0,0,0,58,-6,105c0,0,-8,45,-22,78c0,0,-15,32,-37,49c0,0,-24,17,-56,17c0,0,-65,0,-103,-63c0,0,-38,-64,-38,-186ZM468,-14c0,0,-98,0,-171,27c0,0,-75,28,-125,82c0,0,-50,54,-75,133c0,0,-26,76,-25,177c0,0,-1,107,25,189c0,0,25,80,74,136c0,0,48,53,119,82c0,0,70,26,161,26c0,0,82,0,149,-23c0,0,65,-24,112,-70c0,0,46,-47,71,-115c0,0,25,-69,25,-159V392H308c0,0,0,-77,15,-132c0,0,14,-55,40,-91c0,0,26,-36,63,-53c0,0,37,-17,85,-17c0,0,1,0,2,0c8,0,41,1,71,10c0,0,34,9,61,26c0,0,28,16,48,40c0,0,21,22,34,48c0,0,41,-22,41,-75c0,0,0,-32,-18,-61c0,0,-18,-31,-55,-53C695,34,658,12,602,0c0,0,-57,-14,-134,-14Z" 
id="f0_5"
transform="scale(0.001,-0.001)" />

<path d="M26,0V81H44c0,0,16,0,37,4c0,0,17,3,35,13c0,0,15,10,26,30c0,0,10,19,11,53V645c0,0,-1,29,-11,49c0,0,-11,18,-27,28c0,0,-17,9,-35,13c0,0,-20,3,-36,3H26v81H385V181c0,0,0,-34,11,-53c0,0,10,-20,27,-30c0,0,16,-10,35,-13c0,0,19,-4,36,-4h18V0ZM261,956c0,0,-28,0,-51,7c0,0,-24,7,-41,20c0,0,-18,13,-27,35c0,0,-11,20,-11,49c0,0,0,28,11,50c0,0,9,21,27,34c0,0,17,12,41,19c0,0,23,6,51,6c0,0,25,0,50,-6c0,0,23,-7,42,-19c0,0,18,-13,29,-34c0,0,10,-22,10,-50c0,0,0,-29,-10,-49c0,0,-11,-22,-29,-35c0,0,-19,-13,-42,-20c0,0,-25,-7,-50,-7Z" 
id="f0_7"
transform="scale(0.001,-0.001)" />

<path d="M58,0V64H78c0,0,24,0,48,4c0,0,22,3,40,13c0,0,16,10,27,32c0,0,10,20,10,53V923c0,0,0,33,-10,54c0,0,-11,20,-27,32c0,0,-18,11,-40,14c0,0,-24,3,-48,3H58v65H407L723,217l313,874h339v-65h-20c0,0,-26,0,-48,-3c0,0,-24,-4,-40,-15c0,0,-17,-13,-27,-34c0,0,-11,-21,-10,-57V174c0,0,-1,-37,10,-58c0,0,10,-21,27,-32c0,0,16,-13,40,-16c0,0,22,-4,48,-4h20V0H968V64h6c0,0,24,0,44,4c0,0,20,3,34,13c0,0,14,10,22,29c0,0,8,19,8,50V976L733,0H650L296,974V174c0,0,-1,-37,8,-58c0,0,7,-21,22,-32c0,0,13,-13,35,-16c0,0,19,-4,46,-4h4V0Z" 
id="f1_1d"
transform="scale(0.001,-0.001)" />

<path d="M1156,-14c-4,0,-64,1,-100,40c0,0,-38,40,-38,111c0,0,0,70,29,207l26,119c0,0,32,146,32,182c0,0,-1,90,-71,90c0,0,-78,-1,-162,-100c0,0,-84,-101,-117,-211L730,315c0,0,-10,-42,-27,-164C703,151,686,29,686,0H541c0,0,0,34,19,159c0,0,19,123,33,185l35,158c0,0,22,92,22,143c0,0,0,90,-70,90c0,0,-85,-1,-174,-116c0,0,-91,-116,-114,-228L210,0H67L195,614c0,0,9,42,9,69c0,0,0,72,-106,72H86l13,64H382L341,627h15c0,0,124,206,278,206c0,0,163,-1,163,-170c0,0,0,-19,-3,-36h15c0,0,124,206,279,206c0,0,163,-1,163,-170c0,0,0,-48,-28,-168L1184,315c0,0,-20,-89,-20,-161c0,0,0,-73,53,-73c0,0,44,0,98,35l28,-44c0,0,-98,-86,-187,-86Z" 
id="f2_2"
transform="scale(0.001,-0.001)" />

<path d="M99,350v90H755V350Zm0,300v91H755V650Z" 
id="f1_16"
transform="scale(0.001,-0.001)" />

<path d="M147,0V64H249c0,0,26,0,49,4c0,0,23,3,40,16c0,0,16,11,27,32c0,0,9,21,9,58V976c0,0,-29,-35,-55,-64c0,0,-27,-29,-50,-50c0,0,-24,-22,-46,-32c0,0,-22,-12,-44,-12c0,0,-1,0,-1,0c0,0,-1,0,-1,0c-3,0,-35,0,-55,23c0,0,-21,21,-21,59c0,0,23,5,47,15c0,0,23,7,50,22c0,0,25,13,57,34c0,0,30,18,69,47l107,79h98V174c0,0,-1,-37,10,-58c0,0,9,-21,26,-32c0,0,17,-13,41,-16c0,0,22,-4,48,-4h75V0Z" 
id="f1_1e"
transform="scale(0.001,-0.001)" />

<path d="M377,-14c-2,0,-3,0,-4,0c0,0,-86,0,-140,14c0,0,-57,14,-89,37c0,0,-33,21,-46,50c0,0,-14,26,-14,52c0,0,0,42,24,66c0,0,23,23,73,24c0,0,-1,-34,11,-61c0,0,11,-28,35,-49c0,0,22,-21,57,-32c0,0,33,-12,77,-12c1,0,2,0,4,0c0,0,47,0,87,13c0,0,39,12,69,43c0,0,29,29,46,80c0,0,16,49,16,122c0,0,0,60,-16,105c0,0,-17,44,-47,74c0,0,-31,30,-73,45c0,0,-43,14,-96,14c0,0,-40,0,-68,-3c0,0,-29,-3,-50,-7c0,0,-23,-6,-39,-11c0,0,-17,-7,-31,-12l-36,10l49,541H690V859H630l-6,45c0,0,-3,16,-6,28c0,0,-5,12,-14,20c0,0,-9,7,-24,11c0,0,-16,3,-39,4H245L216,631c0,0,23,8,67,17c0,0,42,7,111,8c0,0,74,0,138,-20c0,0,63,-21,110,-61c0,0,47,-40,74,-101c0,0,26,-61,26,-141c0,0,0,-79,-24,-142c0,0,-26,-64,-73,-110C645,81,597,35,529,10c0,0,-67,-24,-152,-24Z" 
id="f1_1f"
transform="scale(0.001,-0.001)" />

<path d="M490,78c0,0,90,0,160,31c0,0,67,30,113,90c0,0,45,59,69,147c0,0,22,87,22,201c0,0,0,227,-90,347c0,0,-91,120,-272,121H357V78ZM529,0c-1,0,-2,0,-3,0H58V64H78c0,0,25,0,49,4c0,0,22,3,39,16c0,0,17,11,27,32c0,0,10,21,10,58V923c0,0,0,33,-10,54c0,0,-11,20,-27,32c0,0,-18,11,-40,14c0,0,-24,3,-48,3H58v65H526c0,0,117,0,210,-36c0,0,93,-37,157,-106c0,0,63,-69,97,-171c0,0,33,-102,33,-231c0,0,0,-126,-31,-226c0,0,-32,-102,-93,-173C899,148,836,77,744,39C744,39,651,0,529,0Z" 
id="f1_1g"
transform="scale(0.001,-0.001)" />

<path d="M290,-14c0,0,-115,0,-183,46c0,0,-69,46,-69,125c0,0,-1,50,28,76c0,0,27,25,68,25c0,0,0,-95,47,-147c0,0,45,-53,128,-53c3,0,164,1,165,142c0,0,-1,54,-35,92c0,0,-36,37,-120,77c0,0,-110,52,-147,108c0,0,-38,54,-38,128c0,0,0,99,82,164c0,0,82,64,213,64c0,0,112,-1,176,-42c0,0,63,-42,63,-103c0,0,0,-95,-114,-95c0,0,-1,0,-1,0c0,0,0,77,-36,123c0,0,-37,46,-101,46c0,0,-70,0,-109,-36c0,0,-40,-38,-40,-95c0,0,0,-51,38,-86c0,0,38,-37,118,-71c0,0,183,-82,183,-238c0,0,0,-113,-86,-182c0,0,-87,-68,-230,-68Z" 
id="f2_3"
transform="scale(0.001,-0.001)" />

<path d="M78,0V112L333,407c0,0,61,70,103,126c0,0,40,56,66,106c0,0,25,49,37,97c0,0,11,47,11,100c0,0,0,43,-9,79c0,0,-11,35,-29,61c0,0,-19,25,-48,40c0,0,-31,13,-70,13c0,0,-53,0,-84,-18c0,0,-33,-20,-52,-50c0,0,-19,-31,-25,-73c0,0,-7,-41,-7,-86c0,0,-28,0,-51,4c0,0,-24,4,-42,17c0,0,-18,11,-28,30c0,0,-10,19,-10,48c0,0,0,43,19,82c0,0,19,37,57,65c0,0,36,28,93,43c0,0,56,15,130,15c0,0,72,0,130,-18c0,0,56,-19,97,-51c0,0,41,-34,62,-81c0,0,21,-47,21,-105c0,0,-1,-54,-17,-104c0,0,-18,-52,-50,-104c0,0,-33,-54,-80,-111c0,0,-48,-58,-108,-124L191,122H545c7,0,36,1,56,10c0,0,21,10,36,25c0,0,14,15,22,37c0,0,7,20,13,42l6,28h61V0Z" 
id="f1_1h"
transform="scale(0.001,-0.001)" />

<path d="M683,442L588,709c0,0,-25,68,-43,127c0,0,-21,59,-33,114c0,0,-6,-28,-12,-53c0,0,-8,-26,-16,-53c0,0,-9,-26,-19,-55c0,0,-10,-31,-23,-66L338,442ZM0,0V64H29c0,0,1,0,3,0c6,0,23,1,35,5c0,0,16,5,28,18c0,0,12,13,25,37c0,0,11,22,25,60l339,907H604L949,145c0,0,8,-23,19,-39c0,0,8,-16,21,-25c0,0,12,-10,29,-13c0,0,17,-4,39,-4h20V0H657V64h35c0,0,92,0,92,73c0,0,0,12,-3,26c0,0,-4,14,-10,31L710,365H309L251,204c0,0,-8,-18,-11,-35c0,0,-4,-18,-4,-30c0,0,0,-40,26,-57c0,0,24,-18,76,-18h35V0Z" 
id="f1_q"
transform="scale(0.001,-0.001)" />

<path d="M229,0V64h35c0,0,25,0,49,4c0,0,22,3,39,13c0,0,17,10,28,32c0,0,9,20,9,53v849H243c0,0,-33,0,-56,-10c0,0,-24,-11,-37,-28c0,0,-15,-17,-22,-39c0,0,-8,-24,-10,-49l-8,-65H34v267H902V824H827l-8,65c0,0,-4,25,-10,49c0,0,-9,22,-22,39c0,0,-15,17,-37,28c0,0,-24,10,-58,10H544V174c0,0,0,-37,10,-58c0,0,10,-21,27,-32c0,0,16,-13,40,-16c0,0,22,-4,48,-4h35V0Z" 
id="f1_14"
transform="scale(0.001,-0.001)" />

<path d="M452,373V875L97,373ZM452,0V267H23v95l470,671h82V373H711V267H575V0Z" 
id="f3_o"
transform="scale(0.001,-0.001)" />

<path d="M275,-20L578,891H299c0,0,-84,0,-120,-20c0,0,-63,-35,-101,-106l-21,8l97,239H696V983L359,-20Z" 
id="f3_r"
transform="scale(0.001,-0.001)" />


</defs>
</svg>