<?xml version="1.0" encoding="UTF-8" standalone="no"?>
<!DOCTYPE svg PUBLIC "-//W3C//DTD SVG 1.1//EN"
"http://www.w3.org/Graphics/SVG/1.1/DTD/svg11.dtd">
<svg viewBox="0 0 909 1286" version="1.1" xmlns="http://www.w3.org/2000/svg" xmlns:xlink="http://www.w3.org/1999/xlink">
<defs>
<clipPath id="c0_153"><path d="M35.1,1194.7V113.1H873.9V1194.7Z" /></clipPath>
</defs>
<image preserveAspectRatio="none" x="47" y="113" width="242" height="165" xlink:href="img/1.png" />
<g clip-path="url(#c0_153)">
<g fill="#000000" >
<use xlink:href="#f0_11" transform="matrix(12,0,0,12,47.4,319.3)" />
<use xlink:href="#f0_d" transform="matrix(12,0,0,12,61.2,319.3)" />
<use xlink:href="#f0_s" transform="matrix(12,0,0,12,73.4,319.3)" />
<use xlink:href="#f0_n" transform="matrix(12,0,0,12,82.3,319.3)" />
<use xlink:href="#f1_16" transform="matrix(12,0,0,12,52.1,369.7)" />
<use xlink:href="#f1_v" transform="matrix(12,0,0,12,62.4,369.7)" />
<use xlink:href="#f1_x" transform="matrix(12,0,0,12,72.6,369.7)" />
<use xlink:href="#f1_10" transform="matrix(12,0,0,12,87.6,369.7)" />
<use xlink:href="#f1_c" transform="matrix(12,0,0,12,106.3,369.7)" />
<use xlink:href="#f1_7" transform="matrix(12,0,0,12,116.6,369.7)" />
<use xlink:href="#f1_i" transform="matrix(12,0,0,12,128.5,369.7)" />
<use xlink:href="#f1_19" transform="matrix(12,0,0,12,144.4,369.7)" />
<use xlink:href="#f1_v" transform="matrix(12,0,0,12,154.7,369.7)" />
<use xlink:href="#f1_x" transform="matrix(12,0,0,12,164.9,369.7)" />
<use xlink:href="#f1_10" transform="matrix(12,0,0,12,179.9,369.7)" />
<use xlink:href="#f1_a" transform="matrix(12,0,0,12,198.7,369.7)" />
<use xlink:href="#f1_7" transform="matrix(12,0,0,12,204.5,369.7)" />
<use xlink:href="#f1_8" transform="matrix(12,0,0,12,221.1,369.7)" />
<use xlink:href="#f1_4" transform="matrix(12,0,0,12,227.5,369.7)" />
<use xlink:href="#f1_5" transform="matrix(12,0,0,12,239.1,369.7)" />
<use xlink:href="#f1_9" transform="matrix(12,0,0,12,253.7,369.7)" />
<use xlink:href="#f1_5" transform="matrix(12,0,0,12,262.3,369.7)" />
<use xlink:href="#f1_g" transform="matrix(12,0,0,12,272.1,369.7)" />
<use xlink:href="#f1_b" transform="matrix(12,0,0,12,280.4,369.7)" />
<use xlink:href="#f1_5" transform="matrix(12,0,0,12,291.6,369.7)" />
<use xlink:href="#f1_6" transform="matrix(12,0,0,12,301.4,369.7)" />
<use xlink:href="#f1_8" transform="matrix(12,0,0,12,310.5,369.7)" />
<use xlink:href="#f1_a" transform="matrix(12,0,0,12,316.9,369.7)" />
<use xlink:href="#f1_h" transform="matrix(12,0,0,12,322.8,369.7)" />
<use xlink:href="#f1_5" transform="matrix(12,0,0,12,333.4,369.7)" />
<use xlink:href="#f1_6" transform="matrix(12,0,0,12,347.9,369.7)" />
<use xlink:href="#f1_c" transform="matrix(12,0,0,12,357,369.7)" />
<use xlink:href="#f1_g" transform="matrix(12,0,0,12,367.3,369.7)" />
<use xlink:href="#f1_5" transform="matrix(12,0,0,12,375.5,369.7)" />
<use xlink:href="#f1_g" transform="matrix(12,0,0,12,385.3,369.7)" />
<use xlink:href="#f1_1t" transform="matrix(12,0,0,12,393.6,369.7)" />
<use xlink:href="#f1_q" transform="matrix(12,0,0,12,402.9,369.7)" />
<use xlink:href="#f1_5" transform="matrix(12,0,0,12,420.1,369.7)" />
<use xlink:href="#f1_8" transform="matrix(12,0,0,12,429.9,369.7)" />
<use xlink:href="#f1_4" transform="matrix(12,0,0,12,436.4,369.7)" />
<use xlink:href="#f1_f" transform="matrix(12,0,0,12,448,369.7)" />
<use xlink:href="#f1_i" transform="matrix(12,0,0,12,458.6,369.7)" />
<use xlink:href="#f1_13" transform="matrix(12,0,0,12,474.6,369.7)" />
<use xlink:href="#f1_j" transform="matrix(12,0,0,12,480.9,369.7)" />
<use xlink:href="#f1_14" transform="matrix(12,0,0,12,492.1,369.7)" />
<use xlink:href="#f1_q" transform="matrix(12,0,0,12,47.4,420.1)" />
<use xlink:href="#f1_c" transform="matrix(12,0,0,12,64.5,420.1)" />
<use xlink:href="#f1_g" transform="matrix(12,0,0,12,74.9,420.1)" />
<use xlink:href="#f1_g" transform="matrix(12,0,0,12,83.1,420.1)" />
<use xlink:href="#f1_f" transform="matrix(12,0,0,12,96.1,420.1)" />
<use xlink:href="#f1_e" transform="matrix(12,0,0,12,106.7,420.1)" />
<use xlink:href="#f1_8" transform="matrix(12,0,0,12,118.2,420.1)" />
<use xlink:href="#f1_4" transform="matrix(12,0,0,12,124.7,420.1)" />
<use xlink:href="#f1_5" transform="matrix(12,0,0,12,136.3,420.1)" />
<use xlink:href="#f1_j" transform="matrix(12,0,0,12,150.8,420.1)" />
<use xlink:href="#f1_d" transform="matrix(12,0,0,12,162.1,420.1)" />
<use xlink:href="#f1_f" transform="matrix(12,0,0,12,167.8,420.1)" />
<use xlink:href="#f1_6" transform="matrix(12,0,0,12,178.3,420.1)" />
<use xlink:href="#f1_r" transform="matrix(12,0,0,12,187.4,420.1)" />
<use xlink:href="#f1_s" transform="matrix(12,0,0,12,198.1,420.1)" />
<use xlink:href="#f2_2" transform="matrix(12,0,0,12,207.4,420.1)" />
<use xlink:href="#f1_t" transform="matrix(12,0,0,12,228.6,420.1)" />
<use xlink:href="#f1_19" transform="matrix(12,0,0,12,243.6,420.1)" />
<use xlink:href="#f1_v" transform="matrix(12,0,0,12,253.8,420.1)" />
<use xlink:href="#f1_r" transform="matrix(12,0,0,12,268.8,420.1)" />
<use xlink:href="#f1_l" transform="matrix(12,0,0,12,279.5,420.1)" />
<use xlink:href="#f1_q" transform="matrix(12,0,0,12,47.4,470.6)" />
<use xlink:href="#f1_c" transform="matrix(12,0,0,12,64.5,470.6)" />
<use xlink:href="#f1_g" transform="matrix(12,0,0,12,74.9,470.6)" />
<use xlink:href="#f1_g" transform="matrix(12,0,0,12,83.1,470.6)" />
<use xlink:href="#f1_f" transform="matrix(12,0,0,12,96.1,470.6)" />
<use xlink:href="#f1_e" transform="matrix(12,0,0,12,106.7,470.6)" />
<use xlink:href="#f1_8" transform="matrix(12,0,0,12,118.2,470.6)" />
<use xlink:href="#f1_4" transform="matrix(12,0,0,12,124.7,470.6)" />
<use xlink:href="#f1_5" transform="matrix(12,0,0,12,136.3,470.6)" />
<use xlink:href="#f1_12" transform="matrix(12,0,0,12,150.8,470.6)" />
<use xlink:href="#f1_c" transform="matrix(12,0,0,12,168.2,470.6)" />
<use xlink:href="#f1_7" transform="matrix(12,0,0,12,178.5,470.6)" />
<use xlink:href="#f1_s" transform="matrix(12,0,0,12,190.3,470.6)" />
<use xlink:href="#f2_6" transform="matrix(12,0,0,12,199.6,470.6)" />
<use xlink:href="#f1_t" transform="matrix(12,0,0,12,221.6,470.6)" />
<use xlink:href="#f1_v" transform="matrix(12,0,0,12,236.5,470.6)" />
<use xlink:href="#f1_x" transform="matrix(12,0,0,12,246.8,470.6)" />
<use xlink:href="#f1_r" transform="matrix(12,0,0,12,261.8,470.6)" />
<use xlink:href="#f1_l" transform="matrix(12,0,0,12,272.5,470.6)" />
<use xlink:href="#f1_z" transform="matrix(12,0,0,12,47.4,521)" />
<use xlink:href="#f1_6" transform="matrix(12,0,0,12,60.3,521)" />
<use xlink:href="#f1_6" transform="matrix(12,0,0,12,69.3,521)" />
<use xlink:href="#f1_5" transform="matrix(12,0,0,12,78.3,521)" />
<use xlink:href="#f1_d" transform="matrix(12,0,0,12,88.1,521)" />
<use xlink:href="#f1_5" transform="matrix(12,0,0,12,93.8,521)" />
<use xlink:href="#f1_9" transform="matrix(12,0,0,12,103.6,521)" />
<use xlink:href="#f1_c" transform="matrix(12,0,0,12,112.2,521)" />
<use xlink:href="#f1_8" transform="matrix(12,0,0,12,122.6,521)" />
<use xlink:href="#f1_a" transform="matrix(12,0,0,12,129,521)" />
<use xlink:href="#f1_f" transform="matrix(12,0,0,12,134.9,521)" />
<use xlink:href="#f1_7" transform="matrix(12,0,0,12,145.4,521)" />
<use xlink:href="#f1_i" transform="matrix(12,0,0,12,162,521)" />
<use xlink:href="#f1_m" transform="matrix(12,0,0,12,173.2,521)" />
<use xlink:href="#f1_5" transform="matrix(12,0,0,12,184.9,521)" />
<use xlink:href="#f1_8" transform="matrix(12,0,0,12,199.4,521)" />
<use xlink:href="#f1_f" transform="matrix(12,0,0,12,205.9,521)" />
<use xlink:href="#f1_l" transform="matrix(12,0,0,12,221.2,521)" />
<use xlink:href="#f1_9" transform="matrix(12,0,0,12,231.1,521)" />
<use xlink:href="#f1_c" transform="matrix(12,0,0,12,239.7,521)" />
<use xlink:href="#f1_h" transform="matrix(12,0,0,12,250,521)" />
<use xlink:href="#f1_a" transform="matrix(12,0,0,12,260.6,521)" />
<use xlink:href="#f1_8" transform="matrix(12,0,0,12,266.4,521)" />
<use xlink:href="#f1_k" transform="matrix(12,0,0,12,272.9,521)" />
<use xlink:href="#f1_s" transform="matrix(12,0,0,12,283.2,521)" />
<use xlink:href="#f1_l" transform="matrix(12,0,0,12,292.5,521)" />
<use xlink:href="#f1_t" transform="matrix(12,0,0,12,307.2,521)" />
</g>
</g>
<image preserveAspectRatio="none" x="322" y="500" width="89" height="33" xlink:href="img/2.png" />
<g clip-path="url(#c0_153)">
<g fill="#000000" >
<use xlink:href="#f1_17" transform="matrix(12,0,0,12,47.4,574.4)" />
<use xlink:href="#f1_f" transform="matrix(12,0,0,12,58.2,574.4)" />
<use xlink:href="#f1_9" transform="matrix(12,0,0,12,68.8,574.4)" />
<use xlink:href="#f1_6" transform="matrix(12,0,0,12,77.4,574.4)" />
<use xlink:href="#f1_5" transform="matrix(12,0,0,12,86.4,574.4)" />
<use xlink:href="#f1_c" transform="matrix(12,0,0,12,101,574.4)" />
<use xlink:href="#f1_b" transform="matrix(12,0,0,12,111.3,574.4)" />
<use xlink:href="#f1_b" transform="matrix(12,0,0,12,122.5,574.4)" />
<use xlink:href="#f1_d" transform="matrix(12,0,0,12,133.8,574.4)" />
<use xlink:href="#f1_a" transform="matrix(12,0,0,12,139.4,574.4)" />
<use xlink:href="#f1_5" transform="matrix(12,0,0,12,145.3,574.4)" />
<use xlink:href="#f1_i" transform="matrix(12,0,0,12,155.1,574.4)" />
<use xlink:href="#f1_f" transform="matrix(12,0,0,12,171.1,574.4)" />
<use xlink:href="#f1_7" transform="matrix(12,0,0,12,181.7,574.4)" />
<use xlink:href="#f1_8" transform="matrix(12,0,0,12,198.2,574.4)" />
<use xlink:href="#f1_4" transform="matrix(12,0,0,12,204.7,574.4)" />
<use xlink:href="#f1_5" transform="matrix(12,0,0,12,216.3,574.4)" />
<use xlink:href="#f1_j" transform="matrix(12,0,0,12,230.9,574.4)" />
<use xlink:href="#f1_d" transform="matrix(12,0,0,12,242.1,574.4)" />
<use xlink:href="#f1_f" transform="matrix(12,0,0,12,247.8,574.4)" />
<use xlink:href="#f1_6" transform="matrix(12,0,0,12,258.4,574.4)" />
<use xlink:href="#f1_r" transform="matrix(12,0,0,12,267.4,574.4)" />
<use xlink:href="#f1_s" transform="matrix(12,0,0,12,278.1,574.4)" />
<use xlink:href="#f2_4" transform="matrix(12,0,0,12,287.4,574.4)" />
<use xlink:href="#f1_t" transform="matrix(12,0,0,12,303,574.4)" />
<use xlink:href="#f1_19" transform="matrix(12,0,0,12,318,574.4)" />
<use xlink:href="#f1_v" transform="matrix(12,0,0,12,328.2,574.4)" />
<use xlink:href="#f1_18" transform="matrix(12,0,0,12,343.2,574.4)" />
<use xlink:href="#f1_u" transform="matrix(12,0,0,12,358.6,574.4)" />
<use xlink:href="#f1_x" transform="matrix(12,0,0,12,368.8,574.4)" />
<use xlink:href="#f1_t" transform="matrix(12,0,0,12,383.8,574.4)" />
<use xlink:href="#f1_19" transform="matrix(12,0,0,12,398.8,574.4)" />
<use xlink:href="#f1_v" transform="matrix(12,0,0,12,409,574.4)" />
<use xlink:href="#f1_x" transform="matrix(12,0,0,12,419.3,574.4)" />
<use xlink:href="#f1_10" transform="matrix(12,0,0,12,434.3,574.4)" />
<use xlink:href="#f1_1b" transform="matrix(12,0,0,12,47.4,624.9)" />
<use xlink:href="#f1_5" transform="matrix(12,0,0,12,66.6,624.9)" />
<use xlink:href="#f1_a" transform="matrix(12,0,0,12,76.4,624.9)" />
<use xlink:href="#f1_l" transform="matrix(12,0,0,12,82.2,624.9)" />
<use xlink:href="#f1_4" transform="matrix(12,0,0,12,92.1,624.9)" />
<use xlink:href="#f1_8" transform="matrix(12,0,0,12,103.7,624.9)" />
<use xlink:href="#f1_f" transform="matrix(12,0,0,12,114.9,624.9)" />
<use xlink:href="#f1_e" transform="matrix(12,0,0,12,125.5,624.9)" />
<use xlink:href="#f1_8" transform="matrix(12,0,0,12,137,624.9)" />
<use xlink:href="#f1_4" transform="matrix(12,0,0,12,143.4,624.9)" />
<use xlink:href="#f1_5" transform="matrix(12,0,0,12,155,624.9)" />
<use xlink:href="#f1_12" transform="matrix(12,0,0,12,169.6,624.9)" />
<use xlink:href="#f1_c" transform="matrix(12,0,0,12,186.9,624.9)" />
<use xlink:href="#f1_7" transform="matrix(12,0,0,12,197.2,624.9)" />
<use xlink:href="#f1_s" transform="matrix(12,0,0,12,209,624.9)" />
<use xlink:href="#f2_7" transform="matrix(12,0,0,12,218.4,624.9)" />
<use xlink:href="#f1_t" transform="matrix(12,0,0,12,242.3,624.9)" />
<use xlink:href="#f1_v" transform="matrix(12,0,0,12,257.3,624.9)" />
<use xlink:href="#f1_x" transform="matrix(12,0,0,12,267.5,624.9)" />
<use xlink:href="#f1_18" transform="matrix(12,0,0,12,282.5,624.9)" />
<use xlink:href="#f1_u" transform="matrix(12,0,0,12,297.8,624.9)" />
<use xlink:href="#f1_x" transform="matrix(12,0,0,12,308.1,624.9)" />
<use xlink:href="#f1_t" transform="matrix(12,0,0,12,323.1,624.9)" />
<use xlink:href="#f1_v" transform="matrix(12,0,0,12,338.1,624.9)" />
<use xlink:href="#f1_x" transform="matrix(12,0,0,12,348.3,624.9)" />
<use xlink:href="#f1_x" transform="matrix(12,0,0,12,358.6,624.9)" />
<use xlink:href="#f1_10" transform="matrix(12,0,0,12,373.5,624.9)" />
<use xlink:href="#f1_w" transform="matrix(12,0,0,12,47.4,675.3)" />
<use xlink:href="#f1_c" transform="matrix(12,0,0,12,58.6,675.3)" />
<use xlink:href="#f1_g" transform="matrix(12,0,0,12,68.9,675.3)" />
<use xlink:href="#f1_5" transform="matrix(12,0,0,12,77.2,675.3)" />
<use xlink:href="#f1_13" transform="matrix(12,0,0,12,91.7,675.3)" />
<use xlink:href="#f1_c" transform="matrix(12,0,0,12,98.1,675.3)" />
<use xlink:href="#f1_14" transform="matrix(12,0,0,12,108.4,675.3)" />
<use xlink:href="#f1_15" transform="matrix(12,0,0,12,114.7,675.3)" />
<use xlink:href="#f1_1b" transform="matrix(12,0,0,12,124.7,675.3)" />
<use xlink:href="#f1_4" transform="matrix(12,0,0,12,143.9,675.3)" />
<use xlink:href="#f1_5" transform="matrix(12,0,0,12,155.5,675.3)" />
<use xlink:href="#f1_7" transform="matrix(12,0,0,12,165.3,675.3)" />
<use xlink:href="#f1_8" transform="matrix(12,0,0,12,181.9,675.3)" />
<use xlink:href="#f1_4" transform="matrix(12,0,0,12,188.3,675.3)" />
<use xlink:href="#f1_5" transform="matrix(12,0,0,12,200,675.3)" />
<use xlink:href="#f1_12" transform="matrix(12,0,0,12,214.5,675.3)" />
<use xlink:href="#f1_c" transform="matrix(12,0,0,12,231.8,675.3)" />
<use xlink:href="#f1_7" transform="matrix(12,0,0,12,242.2,675.3)" />
<use xlink:href="#f1_d" transform="matrix(12,0,0,12,258.7,675.3)" />
<use xlink:href="#f1_a" transform="matrix(12,0,0,12,264.4,675.3)" />
<use xlink:href="#f1_e" transform="matrix(12,0,0,12,270.2,675.3)" />
<use xlink:href="#f1_8" transform="matrix(12,0,0,12,277,675.3)" />
<use xlink:href="#f1_g" transform="matrix(12,0,0,12,283.5,675.3)" />
<use xlink:href="#f1_8" transform="matrix(12,0,0,12,296.5,675.3)" />
<use xlink:href="#f1_4" transform="matrix(12,0,0,12,302.9,675.3)" />
<use xlink:href="#f1_5" transform="matrix(12,0,0,12,314.5,675.3)" />
<use xlink:href="#f1_j" transform="matrix(12,0,0,12,329.1,675.3)" />
<use xlink:href="#f1_d" transform="matrix(12,0,0,12,340.3,675.3)" />
<use xlink:href="#f1_f" transform="matrix(12,0,0,12,346,675.3)" />
<use xlink:href="#f1_6" transform="matrix(12,0,0,12,356.6,675.3)" />
<use xlink:href="#f1_r" transform="matrix(12,0,0,12,365.6,675.3)" />
<use xlink:href="#f1_i" transform="matrix(12,0,0,12,381.1,675.3)" />
<use xlink:href="#f1_a" transform="matrix(12,0,0,12,392.3,675.3)" />
<use xlink:href="#f1_9" transform="matrix(12,0,0,12,398.2,675.3)" />
<use xlink:href="#f1_5" transform="matrix(12,0,0,12,406.8,675.3)" />
<use xlink:href="#f1_6" transform="matrix(12,0,0,12,416.6,675.3)" />
<use xlink:href="#f1_8" transform="matrix(12,0,0,12,425.6,675.3)" />
<use xlink:href="#f1_d" transform="matrix(12,0,0,12,432.1,675.3)" />
<use xlink:href="#f1_k" transform="matrix(12,0,0,12,437.8,675.3)" />
<use xlink:href="#f1_1d" transform="matrix(12,0,0,12,47.4,725.7)" />
<use xlink:href="#f1_7" transform="matrix(12,0,0,12,54.1,725.7)" />
<use xlink:href="#f1_8" transform="matrix(12,0,0,12,70.7,725.7)" />
<use xlink:href="#f1_4" transform="matrix(12,0,0,12,77.1,725.7)" />
<use xlink:href="#f1_a" transform="matrix(12,0,0,12,88.7,725.7)" />
<use xlink:href="#f1_g" transform="matrix(12,0,0,12,94.6,725.7)" />
<use xlink:href="#f1_6" transform="matrix(12,0,0,12,107.6,725.7)" />
<use xlink:href="#f1_c" transform="matrix(12,0,0,12,116.6,725.7)" />
<use xlink:href="#f1_g" transform="matrix(12,0,0,12,126.9,725.7)" />
<use xlink:href="#f1_5" transform="matrix(12,0,0,12,135.2,725.7)" />
<use xlink:href="#f1_s" transform="matrix(12,0,0,12,145,725.7)" />
<use xlink:href="#f1_8" transform="matrix(12,0,0,12,154.3,725.7)" />
<use xlink:href="#f1_4" transform="matrix(12,0,0,12,160.8,725.7)" />
<use xlink:href="#f1_5" transform="matrix(12,0,0,12,172.4,725.7)" />
<use xlink:href="#f1_12" transform="matrix(12,0,0,12,187,725.7)" />
<use xlink:href="#f1_c" transform="matrix(12,0,0,12,204.3,725.7)" />
<use xlink:href="#f1_7" transform="matrix(12,0,0,12,214.6,725.7)" />
<use xlink:href="#f1_c" transform="matrix(12,0,0,12,231.1,725.7)" />
<use xlink:href="#f1_b" transform="matrix(12,0,0,12,241.5,725.7)" />
<use xlink:href="#f1_b" transform="matrix(12,0,0,12,252.7,725.7)" />
<use xlink:href="#f1_d" transform="matrix(12,0,0,12,263.9,725.7)" />
<use xlink:href="#f1_a" transform="matrix(12,0,0,12,269.6,725.7)" />
<use xlink:href="#f1_5" transform="matrix(12,0,0,12,275.5,725.7)" />
<use xlink:href="#f1_g" transform="matrix(12,0,0,12,285.3,725.7)" />
<use xlink:href="#f1_c" transform="matrix(12,0,0,12,298.3,725.7)" />
<use xlink:href="#f1_e" transform="matrix(12,0,0,12,313.4,725.7)" />
<use xlink:href="#f1_f" transform="matrix(12,0,0,12,320.1,725.7)" />
<use xlink:href="#f1_9" transform="matrix(12,0,0,12,330.7,725.7)" />
<use xlink:href="#f1_6" transform="matrix(12,0,0,12,339.3,725.7)" />
<use xlink:href="#f1_5" transform="matrix(12,0,0,12,348.3,725.7)" />
<use xlink:href="#f1_a" transform="matrix(12,0,0,12,362.9,725.7)" />
<use xlink:href="#f1_7" transform="matrix(12,0,0,12,368.7,725.7)" />
<use xlink:href="#f1_8" transform="matrix(12,0,0,12,385.3,725.7)" />
<use xlink:href="#f1_4" transform="matrix(12,0,0,12,391.8,725.7)" />
<use xlink:href="#f1_5" transform="matrix(12,0,0,12,403.4,725.7)" />
<use xlink:href="#f1_m" transform="matrix(12,0,0,12,417.9,725.7)" />
<use xlink:href="#f1_b" transform="matrix(12,0,0,12,429.6,725.7)" />
<use xlink:href="#f1_n" transform="matrix(12,0,0,12,440.8,725.7)" />
<use xlink:href="#f1_c" transform="matrix(12,0,0,12,456.6,725.7)" />
<use xlink:href="#f1_9" transform="matrix(12,0,0,12,466.9,725.7)" />
<use xlink:href="#f1_i" transform="matrix(12,0,0,12,475.5,725.7)" />
<use xlink:href="#f1_i" transform="matrix(12,0,0,12,491.5,725.7)" />
<use xlink:href="#f1_a" transform="matrix(12,0,0,12,502.8,725.7)" />
<use xlink:href="#f1_9" transform="matrix(12,0,0,12,508.6,725.7)" />
<use xlink:href="#f1_5" transform="matrix(12,0,0,12,517.2,725.7)" />
<use xlink:href="#f1_6" transform="matrix(12,0,0,12,527,725.7)" />
<use xlink:href="#f1_8" transform="matrix(12,0,0,12,536.1,725.7)" />
<use xlink:href="#f1_a" transform="matrix(12,0,0,12,542.5,725.7)" />
<use xlink:href="#f1_f" transform="matrix(12,0,0,12,548.4,725.7)" />
<use xlink:href="#f1_7" transform="matrix(12,0,0,12,558.9,725.7)" />
<use xlink:href="#f1_o" transform="matrix(12,0,0,12,570.7,725.7)" />
<use xlink:href="#f1_3" transform="matrix(12,0,0,12,580.7,725.7)" />
<use xlink:href="#f1_4" transform="matrix(12,0,0,12,591.9,725.7)" />
<use xlink:href="#f1_a" transform="matrix(12,0,0,12,603.6,725.7)" />
<use xlink:href="#f1_g" transform="matrix(12,0,0,12,609.4,725.7)" />
<use xlink:href="#f1_a" transform="matrix(12,0,0,12,622.4,725.7)" />
<use xlink:href="#f1_7" transform="matrix(12,0,0,12,628.3,725.7)" />
<use xlink:href="#f1_6" transform="matrix(12,0,0,12,640.1,725.7)" />
<use xlink:href="#f1_9" transform="matrix(12,0,0,12,649.1,725.7)" />
<use xlink:href="#f1_5" transform="matrix(12,0,0,12,657.7,725.7)" />
<use xlink:href="#f1_c" transform="matrix(12,0,0,12,667.5,725.7)" />
<use xlink:href="#f1_g" transform="matrix(12,0,0,12,677.9,725.7)" />
<use xlink:href="#f1_5" transform="matrix(12,0,0,12,686.1,725.7)" />
<use xlink:href="#f1_g" transform="matrix(12,0,0,12,695.9,725.7)" />
<use xlink:href="#f1_4" transform="matrix(12,0,0,12,708.9,725.7)" />
<use xlink:href="#f1_a" transform="matrix(12,0,0,12,720.6,725.7)" />
<use xlink:href="#f1_g" transform="matrix(12,0,0,12,726.4,725.7)" />
<use xlink:href="#f1_c" transform="matrix(12,0,0,12,739.4,725.7)" />
<use xlink:href="#f1_b" transform="matrix(12,0,0,12,749.7,725.7)" />
<use xlink:href="#f1_b" transform="matrix(12,0,0,12,761,725.7)" />
<use xlink:href="#f1_c" transform="matrix(12,0,0,12,772.2,725.7)" />
<use xlink:href="#f1_9" transform="matrix(12,0,0,12,782.5,725.7)" />
<use xlink:href="#f1_5" transform="matrix(12,0,0,12,791.2,725.7)" />
<use xlink:href="#f1_7" transform="matrix(12,0,0,12,801,725.7)" />
<use xlink:href="#f1_8" transform="matrix(12,0,0,12,812.8,725.7)" />
<use xlink:href="#f1_n" transform="matrix(12,0,0,12,47.4,757.8)" />
<use xlink:href="#f1_5" transform="matrix(12,0,0,12,63.1,757.8)" />
<use xlink:href="#f1_a" transform="matrix(12,0,0,12,73,757.8)" />
<use xlink:href="#f1_l" transform="matrix(12,0,0,12,78.8,757.8)" />
<use xlink:href="#f1_4" transform="matrix(12,0,0,12,88.7,757.8)" />
<use xlink:href="#f1_8" transform="matrix(12,0,0,12,100.3,757.8)" />
<use xlink:href="#f1_o" transform="matrix(12,0,0,12,106.7,757.8)" />
<use xlink:href="#f3_2" transform="matrix(12,0,0,12,47.4,808.2)" />
<use xlink:href="#f1_z" transform="matrix(12,0,0,12,59,808.2)" />
<use xlink:href="#f1_6" transform="matrix(12,0,0,12,71.9,808.2)" />
<use xlink:href="#f1_8" transform="matrix(12,0,0,12,80.9,808.2)" />
<use xlink:href="#f1_a" transform="matrix(12,0,0,12,87.4,808.2)" />
<use xlink:href="#f1_f" transform="matrix(12,0,0,12,93.2,808.2)" />
<use xlink:href="#f1_7" transform="matrix(12,0,0,12,103.8,808.2)" />
<use xlink:href="#f1_f" transform="matrix(12,0,0,12,120.4,808.2)" />
<use xlink:href="#f1_7" transform="matrix(12,0,0,12,131,808.2)" />
<use xlink:href="#f1_8" transform="matrix(12,0,0,12,147.5,808.2)" />
<use xlink:href="#f1_4" transform="matrix(12,0,0,12,154,808.2)" />
<use xlink:href="#f1_5" transform="matrix(12,0,0,12,165.6,808.2)" />
<use xlink:href="#f1_e" transform="matrix(12,0,0,12,180.2,808.2)" />
<use xlink:href="#f1_d" transform="matrix(12,0,0,12,186.9,808.2)" />
<use xlink:href="#f1_f" transform="matrix(12,0,0,12,192.6,808.2)" />
<use xlink:href="#f1_f" transform="matrix(12,0,0,12,203.2,808.2)" />
<use xlink:href="#f1_9" transform="matrix(12,0,0,12,213.7,808.2)" />
<use xlink:href="#f1_j" transform="matrix(12,0,0,12,227.1,808.2)" />
<use xlink:href="#f1_k" transform="matrix(12,0,0,12,238.4,808.2)" />
<use xlink:href="#f1_8" transform="matrix(12,0,0,12,253.4,808.2)" />
<use xlink:href="#f1_4" transform="matrix(12,0,0,12,259.9,808.2)" />
<use xlink:href="#f1_5" transform="matrix(12,0,0,12,271.5,808.2)" />
<use xlink:href="#f1_12" transform="matrix(12,0,0,12,286.1,808.2)" />
<use xlink:href="#f1_c" transform="matrix(12,0,0,12,303.4,808.2)" />
<use xlink:href="#f1_7" transform="matrix(12,0,0,12,313.7,808.2)" />
<use xlink:href="#f1_t" transform="matrix(12,0,0,12,330.3,808.2)" />
<use xlink:href="#f1_19" transform="matrix(12,0,0,12,345.3,808.2)" />
<use xlink:href="#f1_v" transform="matrix(12,0,0,12,355.5,808.2)" />
<use xlink:href="#f1_x" transform="matrix(12,0,0,12,365.7,808.2)" />
<use xlink:href="#f1_1h" transform="matrix(12,0,0,12,380.7,808.2)" />
<use xlink:href="#f1_v" transform="matrix(12,0,0,12,395.7,808.2)" />
<use xlink:href="#f1_x" transform="matrix(12,0,0,12,406,808.2)" />
<use xlink:href="#f1_x" transform="matrix(12,0,0,12,416.2,808.2)" />
<use xlink:href="#f1_t" transform="matrix(12,0,0,12,431.2,808.2)" />
<use xlink:href="#f1_16" transform="matrix(12,0,0,12,446.2,808.2)" />
<use xlink:href="#f1_v" transform="matrix(12,0,0,12,456.4,808.2)" />
<use xlink:href="#f1_x" transform="matrix(12,0,0,12,466.7,808.2)" />
<use xlink:href="#f1_10" transform="matrix(12,0,0,12,481.7,808.2)" />
<use xlink:href="#f1_w" transform="matrix(12,0,0,12,47.4,858.6)" />
<use xlink:href="#f1_c" transform="matrix(12,0,0,12,58.6,858.6)" />
<use xlink:href="#f1_g" transform="matrix(12,0,0,12,68.9,858.6)" />
<use xlink:href="#f1_5" transform="matrix(12,0,0,12,77.2,858.6)" />
<use xlink:href="#f1_13" transform="matrix(12,0,0,12,91.7,858.6)" />
<use xlink:href="#f1_j" transform="matrix(12,0,0,12,98.1,858.6)" />
<use xlink:href="#f1_14" transform="matrix(12,0,0,12,109.3,858.6)" />
<use xlink:href="#f1_15" transform="matrix(12,0,0,12,115.6,858.6)" />
<use xlink:href="#f1_1b" transform="matrix(12,0,0,12,125.6,858.6)" />
<use xlink:href="#f1_4" transform="matrix(12,0,0,12,144.8,858.6)" />
<use xlink:href="#f1_5" transform="matrix(12,0,0,12,156.5,858.6)" />
<use xlink:href="#f1_7" transform="matrix(12,0,0,12,166.3,858.6)" />
<use xlink:href="#f1_8" transform="matrix(12,0,0,12,182.8,858.6)" />
<use xlink:href="#f1_4" transform="matrix(12,0,0,12,189.3,858.6)" />
<use xlink:href="#f1_5" transform="matrix(12,0,0,12,200.9,858.6)" />
<use xlink:href="#f1_12" transform="matrix(12,0,0,12,215.5,858.6)" />
<use xlink:href="#f1_c" transform="matrix(12,0,0,12,232.8,858.6)" />
<use xlink:href="#f1_7" transform="matrix(12,0,0,12,243.1,858.6)" />
<use xlink:href="#f1_d" transform="matrix(12,0,0,12,259.7,858.6)" />
<use xlink:href="#f1_a" transform="matrix(12,0,0,12,265.3,858.6)" />
<use xlink:href="#f1_e" transform="matrix(12,0,0,12,271.2,858.6)" />
<use xlink:href="#f1_8" transform="matrix(12,0,0,12,277.9,858.6)" />
<use xlink:href="#f1_g" transform="matrix(12,0,0,12,284.4,858.6)" />
<use xlink:href="#f1_8" transform="matrix(12,0,0,12,297.4,858.6)" />
<use xlink:href="#f1_4" transform="matrix(12,0,0,12,303.8,858.6)" />
<use xlink:href="#f1_5" transform="matrix(12,0,0,12,315.5,858.6)" />
<use xlink:href="#f1_j" transform="matrix(12,0,0,12,330,858.6)" />
<use xlink:href="#f1_d" transform="matrix(12,0,0,12,341.3,858.6)" />
<use xlink:href="#f1_f" transform="matrix(12,0,0,12,346.9,858.6)" />
<use xlink:href="#f1_6" transform="matrix(12,0,0,12,357.5,858.6)" />
<use xlink:href="#f1_r" transform="matrix(12,0,0,12,366.5,858.6)" />
<use xlink:href="#f1_m" transform="matrix(12,0,0,12,382,858.6)" />
<use xlink:href="#f1_g" transform="matrix(12,0,0,12,393.6,858.6)" />
<use xlink:href="#f1_a" transform="matrix(12,0,0,12,401.9,858.6)" />
<use xlink:href="#f1_7" transform="matrix(12,0,0,12,407.7,858.6)" />
<use xlink:href="#f1_l" transform="matrix(12,0,0,12,419.6,858.6)" />
<use xlink:href="#f1_c" transform="matrix(12,0,0,12,434.2,858.6)" />
<use xlink:href="#f1_b" transform="matrix(12,0,0,12,449.2,858.6)" />
<use xlink:href="#f1_m" transform="matrix(12,0,0,12,460.5,858.6)" />
<use xlink:href="#f1_d" transform="matrix(12,0,0,12,472.1,858.6)" />
<use xlink:href="#f1_d" transform="matrix(12,0,0,12,477.8,858.6)" />
<use xlink:href="#f1_5" transform="matrix(12,0,0,12,483.5,858.6)" />
<use xlink:href="#f1_k" transform="matrix(12,0,0,12,493.3,858.6)" />
<use xlink:href="#f1_1d" transform="matrix(12,0,0,12,47.4,909)" />
<use xlink:href="#f1_7" transform="matrix(12,0,0,12,54.1,909)" />
<use xlink:href="#f1_8" transform="matrix(12,0,0,12,70.7,909)" />
<use xlink:href="#f1_4" transform="matrix(12,0,0,12,77.1,909)" />
<use xlink:href="#f1_a" transform="matrix(12,0,0,12,88.7,909)" />
<use xlink:href="#f1_g" transform="matrix(12,0,0,12,94.6,909)" />
<use xlink:href="#f1_6" transform="matrix(12,0,0,12,107.6,909)" />
<use xlink:href="#f1_c" transform="matrix(12,0,0,12,116.6,909)" />
<use xlink:href="#f1_g" transform="matrix(12,0,0,12,126.9,909)" />
<use xlink:href="#f1_5" transform="matrix(12,0,0,12,135.2,909)" />
<use xlink:href="#f1_s" transform="matrix(12,0,0,12,145,909)" />
<use xlink:href="#f1_8" transform="matrix(12,0,0,12,154.3,909)" />
<use xlink:href="#f1_4" transform="matrix(12,0,0,12,160.8,909)" />
<use xlink:href="#f1_5" transform="matrix(12,0,0,12,172.4,909)" />
<use xlink:href="#f1_12" transform="matrix(12,0,0,12,187,909)" />
<use xlink:href="#f1_c" transform="matrix(12,0,0,12,204.3,909)" />
<use xlink:href="#f1_7" transform="matrix(12,0,0,12,214.6,909)" />
<use xlink:href="#f1_c" transform="matrix(12,0,0,12,231.1,909)" />
<use xlink:href="#f1_b" transform="matrix(12,0,0,12,241.5,909)" />
<use xlink:href="#f1_b" transform="matrix(12,0,0,12,252.7,909)" />
<use xlink:href="#f1_d" transform="matrix(12,0,0,12,263.9,909)" />
<use xlink:href="#f1_a" transform="matrix(12,0,0,12,269.6,909)" />
<use xlink:href="#f1_5" transform="matrix(12,0,0,12,275.5,909)" />
<use xlink:href="#f1_g" transform="matrix(12,0,0,12,285.3,909)" />
<use xlink:href="#f1_c" transform="matrix(12,0,0,12,298.3,909)" />
<use xlink:href="#f1_e" transform="matrix(12,0,0,12,313.4,909)" />
<use xlink:href="#f1_f" transform="matrix(12,0,0,12,320.1,909)" />
<use xlink:href="#f1_9" transform="matrix(12,0,0,12,330.7,909)" />
<use xlink:href="#f1_6" transform="matrix(12,0,0,12,339.3,909)" />
<use xlink:href="#f1_5" transform="matrix(12,0,0,12,348.3,909)" />
<use xlink:href="#f1_a" transform="matrix(12,0,0,12,362.9,909)" />
<use xlink:href="#f1_7" transform="matrix(12,0,0,12,368.7,909)" />
<use xlink:href="#f1_8" transform="matrix(12,0,0,12,385.3,909)" />
<use xlink:href="#f1_4" transform="matrix(12,0,0,12,391.8,909)" />
<use xlink:href="#f1_5" transform="matrix(12,0,0,12,403.4,909)" />
<use xlink:href="#f1_i" transform="matrix(12,0,0,12,417.9,909)" />
<use xlink:href="#f1_f" transform="matrix(12,0,0,12,429.2,909)" />
<use xlink:href="#f1_n" transform="matrix(12,0,0,12,439.8,909)" />
<use xlink:href="#f1_7" transform="matrix(12,0,0,12,455.5,909)" />
<use xlink:href="#f1_n" transform="matrix(12,0,0,12,467.4,909)" />
<use xlink:href="#f1_c" transform="matrix(12,0,0,12,483.1,909)" />
<use xlink:href="#f1_9" transform="matrix(12,0,0,12,493.4,909)" />
<use xlink:href="#f1_i" transform="matrix(12,0,0,12,502.1,909)" />
<use xlink:href="#f1_i" transform="matrix(12,0,0,12,518.1,909)" />
<use xlink:href="#f1_a" transform="matrix(12,0,0,12,529.3,909)" />
<use xlink:href="#f1_9" transform="matrix(12,0,0,12,535.2,909)" />
<use xlink:href="#f1_5" transform="matrix(12,0,0,12,543.8,909)" />
<use xlink:href="#f1_6" transform="matrix(12,0,0,12,553.6,909)" />
<use xlink:href="#f1_8" transform="matrix(12,0,0,12,562.6,909)" />
<use xlink:href="#f1_a" transform="matrix(12,0,0,12,569,909)" />
<use xlink:href="#f1_f" transform="matrix(12,0,0,12,574.9,909)" />
<use xlink:href="#f1_7" transform="matrix(12,0,0,12,585.5,909)" />
<use xlink:href="#f1_o" transform="matrix(12,0,0,12,597.3,909)" />
<use xlink:href="#f1_3" transform="matrix(12,0,0,12,607.3,909)" />
<use xlink:href="#f1_4" transform="matrix(12,0,0,12,618.5,909)" />
<use xlink:href="#f1_a" transform="matrix(12,0,0,12,630.1,909)" />
<use xlink:href="#f1_g" transform="matrix(12,0,0,12,636,909)" />
<use xlink:href="#f1_i" transform="matrix(12,0,0,12,649,909)" />
<use xlink:href="#f1_5" transform="matrix(12,0,0,12,660.2,909)" />
<use xlink:href="#f1_6" transform="matrix(12,0,0,12,670,909)" />
<use xlink:href="#f1_9" transform="matrix(12,0,0,12,679,909)" />
<use xlink:href="#f1_5" transform="matrix(12,0,0,12,687.7,909)" />
<use xlink:href="#f1_c" transform="matrix(12,0,0,12,697.5,909)" />
<use xlink:href="#f1_g" transform="matrix(12,0,0,12,707.8,909)" />
<use xlink:href="#f1_5" transform="matrix(12,0,0,12,716.1,909)" />
<use xlink:href="#f1_g" transform="matrix(12,0,0,12,725.9,909)" />
<use xlink:href="#f1_4" transform="matrix(12,0,0,12,738.9,909)" />
<use xlink:href="#f1_a" transform="matrix(12,0,0,12,750.5,909)" />
<use xlink:href="#f1_g" transform="matrix(12,0,0,12,756.3,909)" />
<use xlink:href="#f1_c" transform="matrix(12,0,0,12,769.4,909)" />
<use xlink:href="#f1_b" transform="matrix(12,0,0,12,779.7,909)" />
<use xlink:href="#f1_b" transform="matrix(12,0,0,12,790.9,909)" />
<use xlink:href="#f1_c" transform="matrix(12,0,0,12,802.2,909)" />
<use xlink:href="#f1_9" transform="matrix(12,0,0,12,812.5,909)" />
<use xlink:href="#f1_5" transform="matrix(12,0,0,12,821.1,909)" />
<use xlink:href="#f1_7" transform="matrix(12,0,0,12,830.9,909)" />
<use xlink:href="#f1_8" transform="matrix(12,0,0,12,842.7,909)" />
<use xlink:href="#f1_n" transform="matrix(12,0,0,12,47.4,941.1)" />
<use xlink:href="#f1_5" transform="matrix(12,0,0,12,63.1,941.1)" />
<use xlink:href="#f1_a" transform="matrix(12,0,0,12,73,941.1)" />
<use xlink:href="#f1_l" transform="matrix(12,0,0,12,78.8,941.1)" />
<use xlink:href="#f1_4" transform="matrix(12,0,0,12,88.7,941.1)" />
<use xlink:href="#f1_8" transform="matrix(12,0,0,12,100.3,941.1)" />
<use xlink:href="#f1_o" transform="matrix(12,0,0,12,106.7,941.1)" />
<use xlink:href="#f3_2" transform="matrix(12,0,0,12,47.4,991.5)" />
<use xlink:href="#f1_z" transform="matrix(12,0,0,12,59,991.5)" />
<use xlink:href="#f1_6" transform="matrix(12,0,0,12,71.9,991.5)" />
<use xlink:href="#f1_8" transform="matrix(12,0,0,12,80.9,991.5)" />
<use xlink:href="#f1_a" transform="matrix(12,0,0,12,87.4,991.5)" />
<use xlink:href="#f1_f" transform="matrix(12,0,0,12,93.2,991.5)" />
<use xlink:href="#f1_7" transform="matrix(12,0,0,12,103.8,991.5)" />
<use xlink:href="#f1_f" transform="matrix(12,0,0,12,120.4,991.5)" />
<use xlink:href="#f1_7" transform="matrix(12,0,0,12,131,991.5)" />
<use xlink:href="#f1_8" transform="matrix(12,0,0,12,147.5,991.5)" />
<use xlink:href="#f1_4" transform="matrix(12,0,0,12,154,991.5)" />
<use xlink:href="#f1_5" transform="matrix(12,0,0,12,165.6,991.5)" />
<use xlink:href="#f1_e" transform="matrix(12,0,0,12,180.2,991.5)" />
<use xlink:href="#f1_d" transform="matrix(12,0,0,12,186.9,991.5)" />
<use xlink:href="#f1_f" transform="matrix(12,0,0,12,192.6,991.5)" />
<use xlink:href="#f1_f" transform="matrix(12,0,0,12,203.2,991.5)" />
<use xlink:href="#f1_9" transform="matrix(12,0,0,12,213.7,991.5)" />
<use xlink:href="#f1_j" transform="matrix(12,0,0,12,227.1,991.5)" />
<use xlink:href="#f1_k" transform="matrix(12,0,0,12,238.4,991.5)" />
<use xlink:href="#f1_8" transform="matrix(12,0,0,12,253.4,991.5)" />
<use xlink:href="#f1_4" transform="matrix(12,0,0,12,259.9,991.5)" />
<use xlink:href="#f1_5" transform="matrix(12,0,0,12,271.5,991.5)" />
<use xlink:href="#f1_12" transform="matrix(12,0,0,12,286.1,991.5)" />
<use xlink:href="#f1_c" transform="matrix(12,0,0,12,303.4,991.5)" />
<use xlink:href="#f1_7" transform="matrix(12,0,0,12,313.7,991.5)" />
<use xlink:href="#f1_t" transform="matrix(12,0,0,12,330.3,991.5)" />
<use xlink:href="#f1_v" transform="matrix(12,0,0,12,345.3,991.5)" />
<use xlink:href="#f1_x" transform="matrix(12,0,0,12,355.5,991.5)" />
<use xlink:href="#f1_x" transform="matrix(12,0,0,12,365.7,991.5)" />
<use xlink:href="#f1_1c" transform="matrix(12,0,0,12,380.7,991.5)" />
<use xlink:href="#f1_19" transform="matrix(12,0,0,12,391.2,991.5)" />
<use xlink:href="#f1_v" transform="matrix(12,0,0,12,401.4,991.5)" />
<use xlink:href="#f1_x" transform="matrix(12,0,0,12,411.6,991.5)" />
<use xlink:href="#f1_t" transform="matrix(12,0,0,12,426.6,991.5)" />
<use xlink:href="#f1_19" transform="matrix(12,0,0,12,441.6,991.5)" />
<use xlink:href="#f1_v" transform="matrix(12,0,0,12,451.9,991.5)" />
<use xlink:href="#f1_x" transform="matrix(12,0,0,12,462.1,991.5)" />
<use xlink:href="#f1_10" transform="matrix(12,0,0,12,477.1,991.5)" />
<use xlink:href="#f1_1d" transform="matrix(12,0,0,12,47.4,1041.9)" />
<use xlink:href="#f1_e" transform="matrix(12,0,0,12,54.1,1041.9)" />
<use xlink:href="#f1_8" transform="matrix(12,0,0,12,65.6,1041.9)" />
<use xlink:href="#f1_4" transform="matrix(12,0,0,12,72,1041.9)" />
<use xlink:href="#f1_5" transform="matrix(12,0,0,12,83.7,1041.9)" />
<use xlink:href="#f1_e" transform="matrix(12,0,0,12,98.2,1041.9)" />
<use xlink:href="#f1_d" transform="matrix(12,0,0,12,105,1041.9)" />
<use xlink:href="#f1_f" transform="matrix(12,0,0,12,110.7,1041.9)" />
<use xlink:href="#f1_f" transform="matrix(12,0,0,12,121.2,1041.9)" />
<use xlink:href="#f1_9" transform="matrix(12,0,0,12,131.8,1041.9)" />
<use xlink:href="#f1_6" transform="matrix(12,0,0,12,145.2,1041.9)" />
<use xlink:href="#f1_c" transform="matrix(12,0,0,12,154.2,1041.9)" />
<use xlink:href="#f1_7" transform="matrix(12,0,0,12,164.5,1041.9)" />
<use xlink:href="#f1_k" transform="matrix(12,0,0,12,181.1,1041.9)" />
<use xlink:href="#f1_a" transform="matrix(12,0,0,12,191.4,1041.9)" />
<use xlink:href="#f1_5" transform="matrix(12,0,0,12,197.3,1041.9)" />
<use xlink:href="#f1_d" transform="matrix(12,0,0,12,207.1,1041.9)" />
<use xlink:href="#f1_i" transform="matrix(12,0,0,12,212.8,1041.9)" />
<use xlink:href="#f1_8" transform="matrix(12,0,0,12,228.8,1041.9)" />
<use xlink:href="#f1_f" transform="matrix(12,0,0,12,235.2,1041.9)" />
<use xlink:href="#f1_c" transform="matrix(12,0,0,12,250.5,1041.9)" />
<use xlink:href="#f1_7" transform="matrix(12,0,0,12,265.6,1041.9)" />
<use xlink:href="#f1_f" transform="matrix(12,0,0,12,277.4,1041.9)" />
<use xlink:href="#f1_9" transform="matrix(12,0,0,12,288,1041.9)" />
<use xlink:href="#f1_12" transform="matrix(12,0,0,12,296.6,1041.9)" />
<use xlink:href="#f1_c" transform="matrix(12,0,0,12,313.9,1041.9)" />
<use xlink:href="#f1_d" transform="matrix(12,0,0,12,324.2,1041.9)" />
<use xlink:href="#f1_e" transform="matrix(12,0,0,12,334.7,1041.9)" />
<use xlink:href="#f1_f" transform="matrix(12,0,0,12,341.4,1041.9)" />
<use xlink:href="#f1_9" transform="matrix(12,0,0,12,352,1041.9)" />
<use xlink:href="#f1_6" transform="matrix(12,0,0,12,360.6,1041.9)" />
<use xlink:href="#f1_5" transform="matrix(12,0,0,12,369.6,1041.9)" />
<use xlink:href="#f1_f" transform="matrix(12,0,0,12,384.2,1041.9)" />
<use xlink:href="#f1_e" transform="matrix(12,0,0,12,394.8,1041.9)" />
<use xlink:href="#f1_16" transform="matrix(12,0,0,12,406.3,1041.9)" />
<use xlink:href="#f1_x" transform="matrix(12,0,0,12,416.5,1041.9)" />
<use xlink:href="#f1_x" transform="matrix(12,0,0,12,426.8,1041.9)" />
<use xlink:href="#f1_10" transform="matrix(12,0,0,12,441.7,1041.9)" />
<use xlink:href="#f1_s" transform="matrix(12,0,0,12,455.7,1041.9)" />
<use xlink:href="#f1_8" transform="matrix(12,0,0,12,465.1,1041.9)" />
<use xlink:href="#f1_4" transform="matrix(12,0,0,12,471.5,1041.9)" />
<use xlink:href="#f1_5" transform="matrix(12,0,0,12,483.1,1041.9)" />
<use xlink:href="#f1_7" transform="matrix(12,0,0,12,492.9,1041.9)" />
<use xlink:href="#f1_8" transform="matrix(12,0,0,12,509.5,1041.9)" />
<use xlink:href="#f1_4" transform="matrix(12,0,0,12,516,1041.9)" />
<use xlink:href="#f1_5" transform="matrix(12,0,0,12,527.6,1041.9)" />
<use xlink:href="#f1_12" transform="matrix(12,0,0,12,542.1,1041.9)" />
<use xlink:href="#f1_c" transform="matrix(12,0,0,12,559.5,1041.9)" />
<use xlink:href="#f1_7" transform="matrix(12,0,0,12,569.8,1041.9)" />
<use xlink:href="#f1_g" transform="matrix(12,0,0,12,586.3,1041.9)" />
<use xlink:href="#f1_4" transform="matrix(12,0,0,12,594.6,1041.9)" />
<use xlink:href="#f1_f" transform="matrix(12,0,0,12,606.2,1041.9)" />
<use xlink:href="#f1_m" transform="matrix(12,0,0,12,616.8,1041.9)" />
<use xlink:href="#f1_d" transform="matrix(12,0,0,12,628.4,1041.9)" />
<use xlink:href="#f1_i" transform="matrix(12,0,0,12,634.1,1041.9)" />
<use xlink:href="#f1_c" transform="matrix(12,0,0,12,650.1,1041.9)" />
<use xlink:href="#f1_i" transform="matrix(12,0,0,12,660.4,1041.9)" />
<use xlink:href="#f1_f" transform="matrix(12,0,0,12,671.6,1041.9)" />
<use xlink:href="#f1_b" transform="matrix(12,0,0,12,682.2,1041.9)" />
<use xlink:href="#f1_8" transform="matrix(12,0,0,12,693.5,1041.9)" />
<use xlink:href="#f1_8" transform="matrix(12,0,0,12,704.7,1041.9)" />
<use xlink:href="#f1_4" transform="matrix(12,0,0,12,711.1,1041.9)" />
<use xlink:href="#f1_5" transform="matrix(12,0,0,12,722.7,1041.9)" />
<use xlink:href="#f1_g" transform="matrix(12,0,0,12,737.3,1041.9)" />
<use xlink:href="#f1_5" transform="matrix(12,0,0,12,745.6,1041.9)" />
<use xlink:href="#f1_6" transform="matrix(12,0,0,12,755.4,1041.9)" />
<use xlink:href="#f1_f" transform="matrix(12,0,0,12,764.4,1041.9)" />
<use xlink:href="#f1_7" transform="matrix(12,0,0,12,775,1041.9)" />
<use xlink:href="#f1_i" transform="matrix(12,0,0,12,786.8,1041.9)" />
<use xlink:href="#f1_12" transform="matrix(12,0,0,12,47.4,1074)" />
<use xlink:href="#f1_5" transform="matrix(12,0,0,12,64.7,1074)" />
<use xlink:href="#f1_8" transform="matrix(12,0,0,12,74.5,1074)" />
<use xlink:href="#f1_4" transform="matrix(12,0,0,12,80.9,1074)" />
<use xlink:href="#f1_f" transform="matrix(12,0,0,12,92.5,1074)" />
<use xlink:href="#f1_i" transform="matrix(12,0,0,12,103.1,1074)" />
<use xlink:href="#f1_8" transform="matrix(12,0,0,12,119.1,1074)" />
<use xlink:href="#f1_f" transform="matrix(12,0,0,12,125.6,1074)" />
<use xlink:href="#f1_5" transform="matrix(12,0,0,12,140.9,1074)" />
<use xlink:href="#f1_c" transform="matrix(12,0,0,12,150.7,1074)" />
<use xlink:href="#f1_g" transform="matrix(12,0,0,12,161,1074)" />
<use xlink:href="#f1_a" transform="matrix(12,0,0,12,169.3,1074)" />
<use xlink:href="#f1_d" transform="matrix(12,0,0,12,175.1,1074)" />
<use xlink:href="#f1_k" transform="matrix(12,0,0,12,180.8,1074)" />
<use xlink:href="#f1_d" transform="matrix(12,0,0,12,195.9,1074)" />
<use xlink:href="#f1_a" transform="matrix(12,0,0,12,201.6,1074)" />
<use xlink:href="#f1_e" transform="matrix(12,0,0,12,207.4,1074)" />
<use xlink:href="#f1_8" transform="matrix(12,0,0,12,214.2,1074)" />
<use xlink:href="#f1_8" transform="matrix(12,0,0,12,225.4,1074)" />
<use xlink:href="#f1_4" transform="matrix(12,0,0,12,231.8,1074)" />
<use xlink:href="#f1_5" transform="matrix(12,0,0,12,243.4,1074)" />
<use xlink:href="#f1_j" transform="matrix(12,0,0,12,258,1074)" />
<use xlink:href="#f1_d" transform="matrix(12,0,0,12,269.2,1074)" />
<use xlink:href="#f1_f" transform="matrix(12,0,0,12,274.9,1074)" />
<use xlink:href="#f1_6" transform="matrix(12,0,0,12,285.5,1074)" />
<use xlink:href="#f1_r" transform="matrix(12,0,0,12,294.5,1074)" />
<use xlink:href="#f1_j" transform="matrix(12,0,0,12,310,1074)" />
<use xlink:href="#f1_k" transform="matrix(12,0,0,12,321.2,1074)" />
<use xlink:href="#f1_c" transform="matrix(12,0,0,12,336.3,1074)" />
<use xlink:href="#f1_b" transform="matrix(12,0,0,12,346.6,1074)" />
<use xlink:href="#f1_b" transform="matrix(12,0,0,12,357.9,1074)" />
<use xlink:href="#f1_d" transform="matrix(12,0,0,12,369.1,1074)" />
<use xlink:href="#f1_k" transform="matrix(12,0,0,12,374.8,1074)" />
<use xlink:href="#f1_a" transform="matrix(12,0,0,12,385.1,1074)" />
<use xlink:href="#f1_7" transform="matrix(12,0,0,12,391,1074)" />
<use xlink:href="#f1_l" transform="matrix(12,0,0,12,402.8,1074)" />
<use xlink:href="#f1_d" transform="matrix(12,0,0,12,417.4,1074)" />
<use xlink:href="#f1_5" transform="matrix(12,0,0,12,423.1,1074)" />
<use xlink:href="#f1_g" transform="matrix(12,0,0,12,432.9,1074)" />
<use xlink:href="#f1_g" transform="matrix(12,0,0,12,441.2,1074)" />
<use xlink:href="#f1_5" transform="matrix(12,0,0,12,449.4,1074)" />
<use xlink:href="#f1_9" transform="matrix(12,0,0,12,459.2,1074)" />
<use xlink:href="#f1_e" transform="matrix(12,0,0,12,472.6,1074)" />
<use xlink:href="#f1_f" transform="matrix(12,0,0,12,479.4,1074)" />
<use xlink:href="#f1_9" transform="matrix(12,0,0,12,489.9,1074)" />
<use xlink:href="#f1_6" transform="matrix(12,0,0,12,498.6,1074)" />
<use xlink:href="#f1_5" transform="matrix(12,0,0,12,507.6,1074)" />
<use xlink:href="#f1_o" transform="matrix(12,0,0,12,517.4,1074)" />
<use xlink:href="#f0_p" transform="matrix(12,0,0,12,47.4,1144.3)" />
<use xlink:href="#f0_p" transform="matrix(12,0,0,12,57.6,1144.3)" />
<use xlink:href="#f0_n" transform="matrix(12,0,0,12,67.8,1144.3)" />
<use xlink:href="#f0_1c" transform="matrix(12,0,0,12,73.4,1144.3)" />
<use xlink:href="#f0_3" transform="matrix(12,0,0,12,80.7,1144.3)" />
<use xlink:href="#f0_1d" transform="matrix(12,0,0,12,91.7,1144.3)" />
<use xlink:href="#f0_j" transform="matrix(12,0,0,12,103.8,1144.3)" />
<use xlink:href="#f0_4" transform="matrix(12,0,0,12,114.5,1144.3)" />
<use xlink:href="#f0_3" transform="matrix(12,0,0,12,121.9,1144.3)" />
<use xlink:href="#f0_4" transform="matrix(12,0,0,12,132.9,1144.3)" />
<use xlink:href="#f0_5" transform="matrix(12,0,0,12,140.3,1144.3)" />
<use xlink:href="#f0_7" transform="matrix(12,0,0,12,155.5,1144.3)" />
<use xlink:href="#f0_f" transform="matrix(12,0,0,12,162,1144.3)" />
<use xlink:href="#f0_t" transform="matrix(12,0,0,12,180,1144.3)" />
<use xlink:href="#f0_m" transform="matrix(12,0,0,12,191.9,1144.3)" />
<use xlink:href="#f0_8" transform="matrix(12,0,0,12,204.1,1144.3)" />
<use xlink:href="#f0_s" transform="matrix(12,0,0,12,210.5,1144.3)" />
<use xlink:href="#f0_5" transform="matrix(12,0,0,12,219.5,1144.3)" />
<use xlink:href="#f0_1v" transform="matrix(12,0,0,12,234.7,1144.3)" />
<use xlink:href="#f0_f" transform="matrix(12,0,0,12,248.6,1144.3)" />
<use xlink:href="#f0_b" transform="matrix(12,0,0,12,266.6,1144.3)" />
<use xlink:href="#f0_f" transform="matrix(12,0,0,12,277.9,1144.3)" />
<use xlink:href="#f0_5" transform="matrix(12,0,0,12,295.9,1144.3)" />
<use xlink:href="#f0_d" transform="matrix(12,0,0,12,306.4,1144.3)" />
<use xlink:href="#f0_4" transform="matrix(12,0,0,12,318.6,1144.3)" />
<use xlink:href="#f0_m" transform="matrix(12,0,0,12,326,1144.3)" />
<use xlink:href="#f0_f" transform="matrix(12,0,0,12,338.2,1144.3)" />
<use xlink:href="#f0_4" transform="matrix(12,0,0,12,361.1,1144.3)" />
<use xlink:href="#f0_u" transform="matrix(12,0,0,12,368.5,1144.3)" />
<use xlink:href="#f0_5" transform="matrix(12,0,0,12,380.7,1144.3)" />
<use xlink:href="#f0_b" transform="matrix(12,0,0,12,391.1,1144.3)" />
<use xlink:href="#f0_6" transform="matrix(12,0,0,12,402.4,1144.3)" />
<use xlink:href="#f0_5" transform="matrix(12,0,0,12,411.9,1144.3)" />
<use xlink:href="#f0_f" transform="matrix(12,0,0,12,422.4,1144.3)" />
<use xlink:href="#f0_1a" transform="matrix(12,0,0,12,440.5,1144.3)" />
</g>
</g>
<g fill="#000000" >
<use xlink:href="#f4_m" transform="matrix(12,0,0,12,835.7,1269.6)" />
<use xlink:href="#f4_m" transform="matrix(12,0,0,12,844.9,1269.6)" />
</g>
<defs>
<path d="M674,452L593,703c0,0,-9,25,-16,55c0,0,-10,28,-18,58c0,0,-8,29,-16,60c0,0,-9,29,-14,56c0,0,-7,-24,-16,-51c0,0,-9,-28,-18,-57c0,0,-11,-29,-21,-58c0,0,-10,-29,-19,-56L365,452ZM6,0V81H25c0,0,20,0,37,5c0,0,16,4,31,17c0,0,14,12,28,34c0,0,12,20,26,55l331,899H688L1007,191c0,0,11,-33,24,-53c0,0,12,-22,27,-34c0,0,13,-12,30,-17c0,0,15,-6,32,-6c1,0,2,0,3,0h27V0H646V81h60c0,0,10,0,23,4c0,0,11,2,21,10c0,0,9,7,15,18c0,0,6,12,6,27c0,0,0,19,-4,36c0,0,-5,16,-9,30L704,359H333L289,228c0,0,-7,-20,-12,-44c0,0,-7,-26,-7,-44c0,0,0,-15,6,-26c0,0,5,-11,16,-18c0,0,9,-8,22,-11c0,0,12,-4,25,-4h65V0Z" 
id="f0_11"
transform="scale(0.001,-0.001)" />

<path d="M31,0V81h3c0,0,25,0,47,4c0,0,21,3,38,14c0,0,16,11,25,32c0,0,9,20,9,55V639c0,0,0,32,-8,51c0,0,-8,19,-22,31c0,0,-15,9,-35,14c0,0,-20,3,-45,3H38v81H359L379,710h7c0,0,24,43,50,69c0,0,25,25,54,39c0,0,29,13,62,17c0,0,32,3,68,3c0,0,59,0,106,-17c0,0,47,-17,80,-53c0,0,32,-36,49,-91c0,0,16,-56,17,-133V189c0,0,0,-35,7,-56c0,0,5,-22,18,-33c0,0,12,-12,33,-15c0,0,18,-4,45,-4h4V0H640V503c0,0,-1,48,-6,88c0,0,-7,38,-21,64c0,0,-15,25,-38,40c0,0,-24,14,-57,14c0,0,-38,-1,-64,-20c0,0,-26,-19,-40,-51c0,0,-16,-33,-22,-76c0,0,-7,-44,-7,-90V181c0,0,0,-33,8,-52c0,0,7,-20,22,-30c0,0,13,-11,35,-14c0,0,19,-4,45,-4h5V0Z" 
id="f0_d"
transform="scale(0.001,-0.001)" />

<path d="M357,-14c-1,0,-3,0,-4,0c0,0,-83,0,-141,14c0,0,-60,12,-96,36c0,0,-37,23,-53,57c0,0,-17,32,-17,70c0,0,0,37,14,61c0,0,15,22,37,35c0,0,21,12,46,17c0,0,25,3,45,4c0,0,-1,-49,12,-86c0,0,12,-39,33,-64c0,0,21,-27,53,-41c0,0,28,-14,64,-14c1,0,2,0,3,0c0,0,39,0,68,8c0,0,28,7,47,23c0,0,18,14,27,34c0,0,9,17,9,39c0,0,0,25,-9,46c0,0,-10,18,-31,37c0,0,-22,16,-57,34c0,0,-38,16,-91,35c0,0,-62,21,-109,46c0,0,-48,24,-79,56c0,0,-33,30,-50,71c0,0,-17,38,-17,91c0,0,0,60,24,106c0,0,22,46,66,76c0,0,44,30,104,45c0,0,61,14,134,15c0,0,73,0,123,-12c0,0,50,-13,83,-33c0,0,32,-20,47,-45c0,0,14,-26,15,-52c0,0,0,-51,-36,-78c0,0,-37,-27,-120,-27c0,0,0,76,-33,119c0,0,-35,41,-101,41c0,0,-25,0,-47,-6c0,0,-24,-5,-40,-17c0,0,-17,-13,-26,-30c0,0,-11,-18,-11,-41c0,0,-1,-26,10,-44c0,0,9,-20,33,-37c0,0,23,-18,63,-36c0,0,40,-18,103,-39c0,0,50,-18,94,-40c0,0,43,-24,74,-53c0,0,30,-30,48,-67c0,0,16,-39,17,-86c0,0,-1,-65,-22,-114c0,0,-22,-50,-65,-84C598,56,555,21,494,4c0,0,-60,-18,-137,-18Z" 
id="f0_s"
transform="scale(0.001,-0.001)" />

<path d="M232,-11c0,0,-26,0,-49,7c0,0,-24,4,-40,19c0,0,-17,13,-27,37c0,0,-10,23,-9,58c0,0,-1,34,9,59c0,0,10,22,27,37c0,0,16,14,40,20c0,0,23,5,49,6c0,0,25,-1,48,-6c0,0,23,-6,40,-20c0,0,16,-15,28,-37c0,0,9,-25,9,-59c0,0,0,-35,-9,-58c0,0,-12,-24,-28,-37C320,15,303,0,280,-4c0,0,-23,-7,-48,-7Z" 
id="f0_n"
transform="scale(0.001,-0.001)" />

<path d="M290,0L650,967H249c0,0,-82,-1,-89,-78l-6,-76H94v276H781v-44L405,0Z" 
id="f1_16"
transform="scale(0.001,-0.001)" />

<path d="M377,-14c-2,0,-3,0,-4,0c0,0,-86,0,-140,14c0,0,-57,14,-89,37c0,0,-33,21,-46,50c0,0,-14,26,-14,52c0,0,0,42,24,66c0,0,23,23,73,24c0,0,-1,-34,11,-61c0,0,11,-28,35,-49c0,0,22,-21,57,-32c0,0,33,-12,77,-12c1,0,2,0,4,0c0,0,47,0,87,13c0,0,39,12,69,43c0,0,29,29,46,80c0,0,16,49,16,122c0,0,0,60,-16,105c0,0,-17,44,-47,74c0,0,-31,30,-73,45c0,0,-43,14,-96,14c0,0,-40,0,-68,-3c0,0,-29,-3,-50,-7c0,0,-23,-6,-39,-11c0,0,-17,-7,-31,-12l-36,10l49,541H690V859H630l-6,45c0,0,-3,16,-6,28c0,0,-5,12,-14,20c0,0,-9,7,-24,11c0,0,-16,3,-39,4H245L216,631c0,0,23,8,67,17c0,0,42,7,111,8c0,0,74,0,138,-20c0,0,63,-21,110,-61c0,0,47,-40,74,-101c0,0,26,-61,26,-141c0,0,0,-79,-24,-142c0,0,-26,-64,-73,-110C645,81,597,35,529,10c0,0,-67,-24,-152,-24Z" 
id="f1_v"
transform="scale(0.001,-0.001)" />

<path d="M427,67c0,0,56,0,94,33c0,0,38,32,62,94c0,0,23,61,34,151c0,0,10,88,10,202c0,0,0,112,-10,202c0,0,-11,88,-34,150c0,0,-24,60,-61,93c0,0,-39,31,-93,31c0,0,-56,0,-94,-31c0,0,-40,-33,-63,-93c0,0,-24,-62,-34,-150c0,0,-10,-90,-10,-202c0,0,0,-114,10,-202c0,0,10,-90,34,-151c0,0,23,-62,62,-94c0,0,38,-33,93,-33Zm0,-81c0,0,-94,0,-161,39c0,0,-69,41,-112,115c0,0,-44,73,-64,178c0,0,-22,103,-21,230c0,0,-1,126,21,230c0,0,20,103,64,176c0,0,44,72,112,113c0,0,67,39,163,39c0,0,89,0,157,-39c0,0,65,-41,111,-113c0,0,45,-73,67,-176c0,0,21,-104,22,-231c0,0,-1,-127,-22,-230c0,0,-22,-104,-67,-177C697,140,652,66,585,25c0,0,-67,-39,-158,-39Z" 
id="f1_x"
transform="scale(0.001,-0.001)" />

<path d="M58,0V64H78c0,0,25,0,49,4c0,0,22,3,39,16c0,0,17,11,27,32c0,0,10,21,10,58V923c0,0,0,33,-10,54c0,0,-11,20,-27,32c0,0,-18,11,-40,14c0,0,-24,3,-48,3H58v65H338L885,246V923c0,0,0,33,-10,54c0,0,-11,20,-28,32c0,0,-17,11,-39,14c0,0,-24,3,-49,3H739v65h384v-65h-20c0,0,-26,0,-48,-3c0,0,-24,-4,-40,-15c0,0,-18,-13,-27,-34c0,0,-11,-21,-10,-57V0H869L296,880V174c0,0,0,-37,11,-58c0,0,9,-21,26,-32c0,0,16,-13,40,-16c0,0,22,-4,48,-4h21V0Z" 
id="f1_10"
transform="scale(0.001,-0.001)" />

<path d="M348,79c0,0,46,0,85,15c0,0,36,14,64,42c0,0,25,27,40,66c0,0,14,39,14,87V412H454c0,0,-65,0,-109,-14c0,0,-44,-13,-70,-36c0,0,-27,-25,-39,-59c0,0,-12,-35,-11,-80c0,0,0,-73,30,-108c0,0,29,-36,93,-36ZM313,-14c0,0,-50,0,-94,14c0,0,-44,14,-75,45c0,0,-33,30,-50,77c0,0,-18,47,-18,109c0,0,0,123,87,182c0,0,85,59,261,60H551v93c0,0,0,42,-4,78c0,0,-5,34,-20,60c0,0,-15,26,-42,40c0,0,-28,14,-75,14c0,0,-44,0,-71,-12c0,0,-29,-13,-43,-35c0,0,-16,-23,-21,-53c0,0,-6,-31,-5,-66c0,0,-64,0,-96,21c0,0,-34,21,-34,75c0,0,0,39,22,67c0,0,21,28,60,45c0,0,36,17,87,26c0,0,49,7,107,8c0,0,69,0,122,-13c0,0,52,-15,87,-46c0,0,34,-31,53,-81c0,0,17,-52,17,-124V174c0,0,0,-33,5,-53c0,0,6,-22,17,-34c0,0,10,-12,30,-18c0,0,15,-5,38,-5c2,0,3,0,5,0h4V0H588L564,131H551c0,0,-24,-33,-46,-59c0,0,-22,-27,-49,-46C456,26,429,6,395,-3c0,0,-35,-11,-82,-11Z" 
id="f1_c"
transform="scale(0.001,-0.001)" />

<path d="M43,0V64H55c0,0,26,0,49,4c0,0,23,3,40,16c0,0,16,11,27,32c0,0,10,21,10,58V650c0,0,0,33,-10,55c0,0,-11,20,-28,31c0,0,-17,11,-39,15c0,0,-24,3,-49,4H51v64H298L318,695h7c0,0,23,42,51,70c0,0,25,27,56,43c0,0,29,14,63,21c0,0,32,5,69,5c0,0,60,-1,108,-17c0,0,47,-18,81,-54c0,0,32,-37,50,-93c0,0,17,-58,18,-135V174c0,0,0,-37,9,-58c0,0,7,-21,23,-32c0,0,16,-13,38,-16c0,0,21,-4,47,-4h5V0H677V527c0,0,0,50,-9,89c0,0,-10,39,-29,66c0,0,-20,26,-52,41c0,0,-33,13,-78,13c0,0,-53,0,-88,-20c0,0,-36,-20,-57,-54c0,0,-22,-35,-31,-79c0,0,-10,-45,-9,-94V166c0,0,0,-33,10,-53c0,0,10,-22,27,-32c0,0,16,-10,40,-13c0,0,22,-4,48,-4h5V0Z" 
id="f1_7"
transform="scale(0.001,-0.001)" />

<path d="M421,83c0,0,59,0,100,20c0,0,39,19,65,60c0,0,23,39,34,101c0,0,10,61,10,144c0,0,0,79,-10,141c0,0,-11,61,-34,103c0,0,-25,41,-65,63c0,0,-41,21,-101,21c0,0,-51,0,-86,-21c0,0,-36,-23,-58,-64c0,0,-24,-42,-34,-103c0,0,-10,-62,-10,-141c0,0,0,-163,44,-244c0,0,43,-80,145,-80ZM395,-14c-8,0,-78,1,-133,24c0,0,-59,24,-98,77c0,0,-39,52,-60,132c0,0,-20,79,-20,189c0,0,0,110,20,191c0,0,21,80,60,133c0,0,39,51,98,77c0,0,58,25,133,25c0,0,44,0,80,-10c0,0,36,-10,65,-27c0,0,28,-18,51,-43c0,0,21,-24,39,-54h4c0,0,0,36,0,70c0,0,0,27,0,57c0,0,0,27,0,41V993c0,0,-1,33,-10,54c0,0,-11,21,-29,32c0,0,-18,11,-41,15c0,0,-24,3,-49,3H492v64H773V168c0,0,0,-34,10,-54c0,0,10,-21,27,-32c0,0,17,-11,40,-14c0,0,22,-4,48,-4h13V0H652L636,137h-6c0,0,-18,-35,-39,-62c0,0,-23,-29,-51,-48C540,27,512,6,476,-3c0,0,-36,-11,-81,-11Z" 
id="f1_i"
transform="scale(0.001,-0.001)" />

<path d="M78,0V112L333,407c0,0,61,70,103,126c0,0,40,56,66,106c0,0,25,49,37,97c0,0,11,47,11,100c0,0,0,43,-9,79c0,0,-11,35,-29,61c0,0,-19,25,-48,40c0,0,-31,13,-70,13c0,0,-53,0,-84,-18c0,0,-33,-20,-52,-50c0,0,-19,-31,-25,-73c0,0,-7,-41,-7,-86c0,0,-28,0,-51,4c0,0,-24,4,-42,17c0,0,-18,11,-28,30c0,0,-10,19,-10,48c0,0,0,43,19,82c0,0,19,37,57,65c0,0,36,28,93,43c0,0,56,15,130,15c0,0,72,0,130,-18c0,0,56,-19,97,-51c0,0,41,-34,62,-81c0,0,21,-47,21,-105c0,0,-1,-54,-17,-104c0,0,-18,-52,-50,-104c0,0,-33,-54,-80,-111c0,0,-48,-58,-108,-124L191,122H545c7,0,36,1,56,10c0,0,21,10,36,25c0,0,14,15,22,37c0,0,7,20,13,42l6,28h61V0Z" 
id="f1_19"
transform="scale(0.001,-0.001)" />

<path d="M35,0V64H55c0,0,25,0,49,4c0,0,22,3,39,13c0,0,17,10,28,32c0,0,10,20,10,53V650c0,0,0,33,-10,55c0,0,-11,20,-28,31c0,0,-17,11,-39,15c0,0,-24,3,-49,4H51v64H324V174c0,0,0,-37,10,-58c0,0,10,-21,27,-32c0,0,16,-13,40,-16c0,0,22,-4,48,-4h20V0ZM249,972c-1,0,-2,0,-3,0c0,0,-1,0,-2,0c-5,0,-20,0,-32,5c0,0,-16,5,-28,16c0,0,-12,11,-18,29c0,0,-7,18,-7,45c0,0,0,27,7,45c0,0,6,17,18,29c0,0,12,11,28,15c0,0,15,5,34,5c0,0,18,0,34,-5c0,0,15,-4,27,-15c0,0,11,-12,19,-29c0,0,7,-18,7,-45c0,0,0,-27,-7,-45c0,0,-8,-18,-19,-29c0,0,-12,-11,-27,-16c0,0,-14,-5,-31,-5Z" 
id="f1_a"
transform="scale(0.001,-0.001)" />

<path d="M367,-14c0,0,-59,0,-100,13c0,0,-42,10,-69,38c0,0,-27,27,-39,73c0,0,-14,45,-14,112V732H29v61c0,0,28,0,61,11c0,0,32,11,58,37c0,0,26,28,43,68c0,0,15,38,28,98h70V819H489V732H289V217c0,0,-1,-78,32,-115c0,0,30,-36,83,-36c0,0,1,0,1,0c0,0,2,0,6,0c9,0,28,0,45,3c0,0,23,3,47,7V9C503,9,492,4,477,0c0,0,-15,-3,-33,-6c0,0,-20,-5,-39,-6c0,0,-20,-2,-38,-2Z" 
id="f1_8"
transform="scale(0.001,-0.001)" />

<path d="M28,0V64H40c0,0,25,0,49,4c0,0,22,3,39,16c0,0,17,11,27,32c0,0,10,21,10,58V993c0,0,0,33,-10,54c0,0,-11,21,-27,32c0,0,-18,11,-40,15c0,0,-24,3,-48,3H28v64H308V825c0,0,0,-22,0,-43c0,0,-1,-24,-4,-43c0,0,0,-23,0,-44h6c0,0,68,139,225,139c0,0,65,-1,115,-17c0,0,50,-18,85,-54c0,0,34,-37,52,-93c0,0,18,-58,18,-135V174c0,0,0,-37,9,-58c0,0,9,-21,24,-32c0,0,16,-13,38,-16c0,0,21,-4,47,-4h4V0H662V527c0,0,0,50,-9,89c0,0,-10,39,-29,66c0,0,-20,26,-52,41c0,0,-33,13,-78,13c0,0,-49,0,-82,-17c0,0,-35,-18,-58,-50c0,0,-24,-33,-34,-78c0,0,-11,-46,-11,-102V166c0,0,0,-33,10,-53c0,0,10,-22,27,-32c0,0,17,-10,40,-13c0,0,22,-4,48,-4h5V0Z" 
id="f1_4"
transform="scale(0.001,-0.001)" />

<path d="M586,481c0,0,0,60,-9,111c0,0,-9,50,-29,85c0,0,-19,36,-51,56c0,0,-33,18,-79,19c0,0,-87,-1,-133,-69c0,0,-46,-69,-46,-202ZM439,-14c0,0,-83,0,-149,27c0,0,-66,28,-112,82c0,0,-46,53,-69,132c0,0,-25,77,-25,177c0,0,0,213,88,322c0,0,88,108,251,108c0,0,73,0,133,-23c0,0,58,-24,100,-69c0,0,41,-46,63,-114c0,0,21,-69,22,-159V399H233c0,0,0,-84,15,-143c0,0,15,-61,44,-99c0,0,28,-40,71,-57c0,0,40,-19,93,-19c1,0,2,0,4,0c0,0,38,0,73,9c0,0,33,9,62,24c0,0,26,14,48,34c0,0,21,18,35,40c0,0,10,-4,20,-19c0,0,9,-15,9,-33c0,0,0,-24,-16,-49c0,0,-17,-27,-50,-50C641,37,607,14,557,0c0,0,-50,-14,-118,-14Z" 
id="f1_5"
transform="scale(0.001,-0.001)" />

<path d="M51,0V64h4c0,0,26,0,49,4c0,0,23,3,40,16c0,0,16,11,27,32c0,0,10,21,10,58V650c0,0,0,33,-10,55c0,0,-11,20,-28,31c0,0,-17,11,-39,15c0,0,-24,3,-49,4H51v64H286L315,668h7c0,0,14,34,31,65c0,0,15,29,39,53c0,0,22,22,56,35c0,0,33,12,84,13c0,0,83,0,124,-29c0,0,41,-30,41,-82c0,0,0,-24,-8,-44c0,0,-9,-20,-25,-34c0,0,-17,-15,-44,-23c0,0,-27,-8,-66,-8c0,0,0,63,-18,92c0,0,-18,27,-62,27c0,0,-29,0,-51,-15c0,0,-22,-18,-39,-43c0,0,-17,-27,-28,-61c0,0,-13,-35,-19,-70c0,0,-8,-37,-10,-73c0,0,-4,-35,-3,-64V166c0,0,0,-33,10,-53c0,0,10,-22,27,-32c0,0,16,-10,40,-13c0,0,22,-4,48,-4h43V0Z" 
id="f1_9"
transform="scale(0.001,-0.001)" />

<path d="M321,-14c0,0,-58,0,-104,11c0,0,-48,7,-80,29c0,0,-33,20,-50,51c0,0,-18,30,-18,70c0,0,0,30,10,51c0,0,10,20,25,33c0,0,14,11,31,17c0,0,16,4,30,4c0,0,0,-41,8,-75c0,0,8,-36,28,-61c0,0,18,-28,51,-42c0,0,31,-16,78,-16c0,0,41,0,72,11c0,0,31,9,53,28c0,0,21,18,32,44c0,0,11,25,11,56c0,0,0,28,-8,49c0,0,-9,20,-30,38c0,0,-21,17,-58,37c0,0,-37,18,-92,42c0,0,-59,26,-102,51c0,0,-45,23,-72,52c0,0,-29,28,-43,65c0,0,-15,35,-14,86c0,0,-1,52,21,92c0,0,20,40,58,68c0,0,38,26,91,41c0,0,52,15,118,15c0,0,54,0,96,-12c0,0,41,-11,70,-30c0,0,28,-19,43,-44c0,0,14,-27,14,-55c0,0,-1,-42,-28,-66c0,0,-29,-25,-80,-25c-1,0,-2,0,-2,0c0,0,0,76,-32,119c0,0,-32,42,-100,42c0,0,-39,0,-66,-9c0,0,-28,-9,-45,-25c0,0,-18,-17,-26,-39c0,0,-8,-22,-8,-49c0,0,0,-29,10,-50c0,0,10,-22,34,-39c0,0,22,-18,59,-35c0,0,36,-17,86,-38c0,0,60,-26,104,-50c0,0,43,-24,72,-54c0,0,27,-29,41,-65c0,0,13,-37,13,-84c0,0,-1,-60,-21,-105c0,0,-23,-45,-62,-74C539,46,499,14,445,0c0,0,-56,-14,-124,-14Z" 
id="f1_g"
transform="scale(0.001,-0.001)" />

<path d="M518,83c0,0,50,0,86,21c0,0,35,21,58,63c0,0,23,41,33,104c0,0,10,61,11,142c0,0,-1,80,-11,142c0,0,-10,60,-33,101c0,0,-23,40,-58,60c0,0,-38,20,-88,20c0,0,-60,0,-99,-19c0,0,-41,-20,-64,-61c0,0,-24,-40,-34,-101c0,0,-10,-62,-10,-144c0,0,0,-80,10,-141c0,0,10,-62,35,-103c0,0,23,-42,64,-63c0,0,39,-21,100,-21ZM28,-366v64H40c0,0,25,0,49,4c0,0,22,3,39,16c0,0,17,11,27,33c0,0,10,21,10,58V650c0,0,0,33,-10,55c0,0,-11,20,-27,31c0,0,-18,11,-40,15c0,0,-24,3,-48,4H20v64H287L303,681h6c0,0,16,34,39,63c0,0,21,28,50,49c0,0,27,19,64,31c0,0,36,9,80,10c0,0,75,0,134,-25c0,0,58,-26,98,-76c0,0,38,-53,60,-132c0,0,20,-80,20,-190c0,0,0,-111,-20,-191c0,0,-22,-80,-60,-133c0,0,-40,-53,-98,-77c0,0,-57,-24,-131,-24c-1,0,-2,0,-3,0h-2c-8,0,-46,1,-77,10c0,0,-37,8,-65,26c0,0,-29,18,-50,43c0,0,-23,24,-39,54h-3c0,0,0,-39,0,-73c0,0,0,-15,0,-30c0,0,0,-15,0,-28c0,0,0,-14,0,-24c0,0,0,-11,0,-17V-199c0,0,0,-33,10,-54c0,0,10,-21,28,-31c0,0,17,-11,41,-14c0,0,23,-4,49,-4h5v-64Z" 
id="f1_b"
transform="scale(0.001,-0.001)" />

<path d="M433,-14c0,0,-77,0,-141,23c0,0,-64,23,-110,74c0,0,-46,50,-72,130c0,0,-26,79,-26,192c0,0,0,122,26,205c0,0,26,82,72,132c0,0,46,49,108,71c0,0,61,21,134,21c0,0,47,0,96,-9c0,0,47,-10,85,-29c0,0,38,-19,62,-49c0,0,23,-30,24,-69c0,0,0,-54,-35,-74c0,0,-35,-22,-102,-22c0,0,0,35,-6,68c0,0,-6,32,-20,56c0,0,-15,24,-39,38c0,0,-26,14,-65,14c0,0,-44,0,-79,-16c0,0,-35,-18,-61,-57c0,0,-26,-40,-39,-108c0,0,-13,-69,-13,-170c0,0,-1,-164,54,-243c0,0,54,-80,177,-80h1c6,0,72,1,123,30c0,0,52,30,79,77c0,0,11,-10,19,-24c0,0,7,-15,7,-36c0,0,0,-27,-16,-52c0,0,-17,-26,-49,-47C627,32,594,10,546,0c0,0,-48,-14,-113,-14Z" 
id="f1_6"
transform="scale(0.001,-0.001)" />

<path d="M365,0L119,674c0,0,-9,23,-18,39c0,0,-11,15,-23,26c0,0,-12,8,-29,12c0,0,-17,3,-39,4H6v64H388V755H369c0,0,-47,0,-69,-18c0,0,-24,-18,-23,-56c0,0,-1,-13,3,-25c0,0,3,-14,9,-31L392,336c0,0,10,-26,21,-58c0,0,9,-33,20,-65c0,0,8,-31,16,-59c0,0,7,-29,11,-47h5c0,0,3,16,12,41c0,0,8,23,20,53c0,0,10,27,22,58c0,0,11,29,22,57L650,614c0,0,8,19,12,36c0,0,3,16,3,30c0,0,0,38,-25,57c0,0,-26,18,-76,18H553v64H880V755H862c0,0,-23,0,-38,-5c0,0,-17,-6,-29,-18c0,0,-12,-14,-24,-37c0,0,-12,-24,-26,-59L504,0Z" 
id="f1_h"
transform="scale(0.001,-0.001)" />

<path d="M46,-234v64c0,0,74,23,110,58c0,0,34,35,35,79c0,0,-1,15,-8,26c0,0,-9,8,-21,17c0,0,-13,6,-27,15c0,0,-15,7,-27,18c0,0,-13,9,-21,26c0,0,-8,14,-8,38c0,0,0,43,29,67c0,0,28,23,71,23c0,0,23,-1,45,-8c0,0,20,-9,37,-26c0,0,16,-17,26,-41c0,0,9,-27,9,-58c0,0,0,-48,-13,-93c0,0,-14,-46,-44,-84c0,0,-30,-40,-77,-70c0,0,-49,-31,-116,-51ZM196,618c-1,0,-2,0,-4,0h-2c-6,0,-22,1,-35,6c0,0,-18,5,-30,18c0,0,-14,11,-21,32c0,0,-9,20,-8,49c0,0,-1,30,8,50c0,0,7,18,21,31c0,0,12,11,30,17c0,0,17,6,37,6c0,0,19,0,38,-6c0,0,16,-6,30,-17c0,0,12,-13,21,-31c0,0,8,-20,8,-50c0,0,0,-29,-8,-49c0,0,-9,-21,-21,-32c0,0,-14,-13,-30,-18c0,0,-17,-6,-34,-6Z" 
id="f1_1t"
transform="scale(0.001,-0.001)" />

<path d="M58,0V64H78c0,0,24,0,48,4c0,0,22,3,40,13c0,0,16,10,27,32c0,0,10,20,10,53V923c0,0,0,33,-10,54c0,0,-11,20,-27,32c0,0,-18,11,-40,14c0,0,-24,3,-48,3H58v65H407L723,217l313,874h339v-65h-20c0,0,-26,0,-48,-3c0,0,-24,-4,-40,-15c0,0,-17,-13,-27,-34c0,0,-11,-21,-10,-57V174c0,0,-1,-37,10,-58c0,0,10,-21,27,-32c0,0,16,-13,40,-16c0,0,22,-4,48,-4h20V0H968V64h6c0,0,24,0,44,4c0,0,20,3,34,13c0,0,14,10,22,29c0,0,8,19,8,50V976L733,0H650L296,974V174c0,0,-1,-37,8,-58c0,0,7,-21,22,-32c0,0,13,-13,35,-16c0,0,19,-4,46,-4h4V0Z" 
id="f1_q"
transform="scale(0.001,-0.001)" />

<path d="M442,64c0,0,56,0,97,23c0,0,38,22,64,66c0,0,24,43,36,108c0,0,9,65,10,150c0,0,0,85,-11,149c0,0,-11,64,-36,108c0,0,-25,42,-64,64c0,0,-41,21,-98,21c0,0,-58,0,-97,-21c0,0,-39,-22,-64,-64c0,0,-25,-44,-36,-108c0,0,-11,-64,-11,-149c0,0,0,-85,11,-150c0,0,11,-65,37,-108c0,0,24,-44,65,-66c0,0,38,-23,97,-23Zm-3,-78c0,0,-83,0,-149,25c0,0,-66,26,-111,79c0,0,-47,52,-70,134c0,0,-25,79,-25,187c0,0,0,213,91,319c0,0,90,103,268,104c0,0,82,0,149,-25c0,0,65,-26,111,-79c0,0,46,-53,71,-132c0,0,23,-80,23,-187c0,0,0,-216,-91,-321C706,90,614,-14,439,-14Z" 
id="f1_f"
transform="scale(0.001,-0.001)" />

<path d="M480,-194c0,0,-106,41,-180,101c0,0,-75,59,-122,141c0,0,-48,82,-69,191c0,0,-22,107,-22,245c0,0,0,137,22,246c0,0,21,106,69,188c0,0,47,82,122,142c0,0,74,59,180,101v-69c0,0,-79,-48,-125,-114c0,0,-48,-67,-71,-146c0,0,-24,-80,-30,-168c0,0,-9,-90,-8,-180c0,0,-1,-92,8,-180c0,0,6,-88,30,-167c0,0,23,-80,71,-146c0,0,46,-68,125,-115v-70Z" 
id="f1_13"
transform="scale(0.001,-0.001)" />

<path d="M518,83c0,0,50,0,86,21c0,0,35,21,58,63c0,0,23,41,33,104c0,0,10,61,11,142c0,0,-1,80,-11,142c0,0,-10,60,-33,101c0,0,-23,40,-58,60c0,0,-38,20,-88,20c0,0,-60,0,-99,-19c0,0,-41,-20,-64,-61c0,0,-24,-40,-34,-101c0,0,-10,-62,-10,-144c0,0,0,-80,10,-141c0,0,10,-62,35,-103c0,0,23,-42,64,-63c0,0,39,-21,100,-21Zm27,-97c-1,0,-2,0,-3,0h-2c-8,0,-46,1,-77,10c0,0,-37,8,-65,26c0,0,-29,18,-50,43c0,0,-23,24,-39,54H299L272,0H28V64H40c0,0,25,0,49,4c0,0,22,3,39,16c0,0,17,11,27,32c0,0,10,21,10,58V993c0,0,0,33,-10,54c0,0,-11,21,-27,32c0,0,-18,11,-40,15c0,0,-24,3,-48,3H28v64H306V880c0,0,0,-26,0,-59c0,0,0,-35,0,-66c0,0,0,-36,0,-74h3c0,0,16,34,39,63c0,0,21,28,50,49c0,0,27,19,64,31c0,0,36,9,80,10c0,0,75,0,134,-25c0,0,58,-26,98,-76c0,0,38,-53,60,-132c0,0,20,-80,20,-190c0,0,0,-111,-20,-191c0,0,-22,-80,-60,-133c0,0,-40,-53,-98,-77c0,0,-57,-24,-131,-24Z" 
id="f1_j"
transform="scale(0.001,-0.001)" />

<path d="M49,-194v70c0,0,79,47,125,115c0,0,45,66,71,146c0,0,23,79,31,167c0,0,7,88,7,180c0,0,0,90,-7,180c0,0,-8,88,-31,168c0,0,-26,79,-71,146c0,0,-46,66,-125,114v69c0,0,105,-42,180,-101c0,0,75,-60,122,-142c0,0,47,-82,69,-188c0,0,21,-109,22,-246c0,0,-1,-138,-22,-245c0,0,-22,-109,-69,-191c0,0,-47,-82,-122,-141c0,0,-75,-60,-180,-101Z" 
id="f1_14"
transform="scale(0.001,-0.001)" />

<path d="M41,0V64H61c0,0,26,0,49,4c0,0,23,3,40,16c0,0,16,11,27,32c0,0,9,21,9,58V747H47v72H186v76c0,0,0,68,19,121c0,0,19,52,54,88c0,0,34,35,85,55c0,0,50,17,113,17c0,0,58,0,100,-7c0,0,41,-8,67,-22c0,0,24,-15,35,-34c0,0,12,-20,12,-43c0,0,0,-22,-9,-37c0,0,-11,-17,-26,-27c0,0,-18,-11,-40,-16c0,0,-24,-6,-51,-6c0,0,0,23,-4,45c0,0,-6,21,-17,39c0,0,-12,17,-31,28c0,0,-19,10,-48,10c0,0,-34,0,-55,-12c0,0,-22,-13,-36,-38c0,0,-13,-26,-18,-62c0,0,-6,-37,-6,-85V819H545V747H330V174c0,0,0,-37,10,-58c0,0,10,-21,27,-32c0,0,16,-13,40,-16c0,0,22,-4,48,-4h58V0Z" 
id="f1_e"
transform="scale(0.001,-0.001)" />

<path d="M20,0V64H40c0,0,25,0,49,4c0,0,22,3,39,16c0,0,17,11,27,32c0,0,10,21,10,58V993c0,0,0,33,-10,54c0,0,-11,21,-27,32c0,0,-18,11,-40,15c0,0,-24,3,-48,3H20v64H309V174c0,0,-1,-37,10,-58c0,0,9,-21,26,-32c0,0,17,-13,41,-16c0,0,22,-4,48,-4h20V0Z" 
id="f1_d"
transform="scale(0.001,-0.001)" />

<path d="M28,0V64H40c0,0,25,0,49,4c0,0,22,3,39,16c0,0,17,11,27,32c0,0,10,21,10,58V993c0,0,0,33,-10,54c0,0,-11,21,-27,32c0,0,-18,11,-40,15c0,0,-24,3,-48,3H28v64H306V571c0,0,0,-21,0,-53c0,0,0,-32,0,-64c0,0,0,-36,0,-75L495,588c0,0,24,27,40,48c0,0,16,21,25,37c0,0,10,16,14,28c0,0,3,12,3,23c0,0,0,19,-18,26c0,0,-19,5,-56,5v64H840V755c0,0,-54,-1,-104,-37c0,0,-52,-38,-111,-106L518,492L721,189c0,0,39,-61,79,-93c0,0,38,-32,89,-32q1,0,2,0h4V0H874c0,0,-67,0,-109,4c0,0,-44,3,-75,20c0,0,-32,14,-57,45c0,0,-27,29,-59,79L421,388L309,304V166c0,0,0,-33,10,-53c0,0,10,-22,27,-32c0,0,17,-10,40,-13c0,0,22,-4,48,-4h5V0Z" 
id="f1_r"
transform="scale(0.001,-0.001)" />

<path d="M46,-234v64c0,0,74,23,110,58c0,0,34,35,35,79c0,0,-1,15,-8,26c0,0,-9,8,-21,17c0,0,-13,6,-27,15c0,0,-15,7,-27,18c0,0,-13,9,-21,26c0,0,-8,14,-8,38c0,0,0,43,29,67c0,0,28,23,71,23c0,0,23,-1,45,-8c0,0,20,-9,37,-26c0,0,16,-17,26,-41c0,0,9,-27,9,-58c0,0,0,-48,-13,-93c0,0,-14,-46,-44,-84c0,0,-30,-40,-77,-70c0,0,-49,-31,-116,-51Z" 
id="f1_s"
transform="scale(0.001,-0.001)" />

<path d="M1156,-14c-4,0,-64,1,-100,40c0,0,-38,40,-38,111c0,0,0,70,29,207l26,119c0,0,32,146,32,182c0,0,-1,90,-71,90c0,0,-78,-1,-162,-100c0,0,-84,-101,-117,-211L730,315c0,0,-10,-42,-27,-164C703,151,686,29,686,0H541c0,0,0,34,19,159c0,0,19,123,33,185l35,158c0,0,22,92,22,143c0,0,0,90,-70,90c0,0,-85,-1,-174,-116c0,0,-91,-116,-114,-228L210,0H67L195,614c0,0,9,42,9,69c0,0,0,72,-106,72H86l13,64H382L341,627h15c0,0,124,206,278,206c0,0,163,-1,163,-170c0,0,0,-19,-3,-36h15c0,0,124,206,279,206c0,0,163,-1,163,-170c0,0,0,-48,-28,-168L1184,315c0,0,-20,-89,-20,-161c0,0,0,-73,53,-73c0,0,44,0,98,35l28,-44c0,0,-98,-86,-187,-86Z" 
id="f2_2"
transform="scale(0.001,-0.001)" />

<path d="M99,350v90H755V350Zm0,300v91H755V650Z" 
id="f1_t"
transform="scale(0.001,-0.001)" />

<path d="M351,-291c2,0,3,0,5,0c0,0,1,0,2,0c12,0,84,1,134,15c0,0,52,13,84,38c0,0,31,23,44,58c0,0,12,34,13,74c0,0,0,35,-10,59c0,0,-11,22,-30,35c0,0,-20,12,-49,17c0,0,-29,5,-67,5H327c0,0,-33,0,-62,-5c0,0,-31,-5,-54,-20c0,0,-24,-17,-38,-44c0,0,-15,-29,-14,-74c0,0,0,-34,9,-63c0,0,9,-29,31,-50c0,0,23,-22,61,-33c0,0,35,-12,91,-12Zm34,658c0,0,1,0,1,0c0,0,37,0,64,11c0,0,24,11,42,35c0,0,15,22,23,59c0,0,7,35,7,86c0,0,0,103,-31,152c0,0,-31,49,-106,49c0,0,-74,0,-105,-50c0,0,-33,-50,-32,-153c0,0,0,-98,32,-143c0,0,32,-46,105,-46ZM353,-366c-8,0,-162,1,-239,59c0,0,-80,59,-79,164c0,0,0,45,16,78c0,0,15,34,42,58c0,0,26,22,61,38c0,0,34,14,72,21c0,0,-16,7,-31,18c0,0,-14,11,-26,27c0,0,-13,16,-20,36c0,0,-8,20,-7,45c0,0,0,45,24,79c0,0,23,32,76,64c0,0,-33,13,-58,37c0,0,-27,23,-44,54c0,0,-18,30,-27,65c0,0,-10,36,-9,74c0,0,0,66,18,119c0,0,18,51,53,89c0,0,36,36,90,56c0,0,53,18,126,19c0,0,28,-1,54,-4c0,0,26,-4,50,-11c0,0,22,-8,41,-16c0,0,18,-9,29,-19c0,0,12,12,27,27c0,0,14,14,33,27c0,0,19,12,41,20c0,0,21,7,47,8c0,0,23,-1,40,-6c0,0,17,-7,28,-17c0,0,11,-11,17,-25c0,0,5,-15,5,-31c0,0,0,-17,-4,-31c0,0,-6,-15,-15,-25c0,0,-10,-12,-25,-17c0,0,-15,-7,-36,-7c0,0,0,9,-2,18c0,0,-3,9,-8,17c0,0,-6,7,-16,13c0,0,-10,4,-25,4c0,0,-19,0,-35,-4c0,0,-16,-5,-31,-14c0,0,26,-33,44,-76c0,0,16,-44,16,-109c0,0,-1,-57,-17,-105c0,0,-17,-48,-51,-82c0,0,-35,-36,-86,-56c0,0,-52,-19,-121,-19H348c0,0,-11,0,-21,1c0,0,-10,1,-15,3c0,0,-15,-9,-29,-17c0,0,-13,-9,-23,-20c0,0,-11,-11,-16,-25c0,0,-6,-15,-6,-32c0,0,-1,-19,7,-29c0,0,7,-12,20,-18c0,0,12,-7,30,-8c0,0,17,-2,38,-2H506c0,0,68,-1,116,-17c0,0,48,-17,78,-47c0,0,30,-32,44,-73c0,0,14,-41,14,-90c0,0,-1,-67,-24,-119c0,0,-25,-53,-75,-89c0,0,-50,-38,-126,-58c0,0,-77,-20,-180,-20Z" 
id="f1_l"
transform="scale(0.001,-0.001)" />

<path d="M43,0V64H63c0,0,25,0,47,4c0,0,21,3,38,16c0,0,15,11,24,32c0,0,8,21,9,58V650c0,0,0,33,-9,55c0,0,-9,20,-25,31c0,0,-16,11,-37,15c0,0,-22,3,-47,4H58v64H298L318,695h7c0,0,23,42,49,70c0,0,25,27,54,43c0,0,28,14,61,21c0,0,31,5,67,5c0,0,36,0,71,-7c0,0,33,-9,62,-24c0,0,28,-17,52,-43c0,0,21,-27,36,-65h13c0,0,23,42,50,70c0,0,27,27,57,43c0,0,30,14,64,21c0,0,32,5,68,5c0,0,59,-1,105,-17c0,0,45,-18,78,-54c0,0,32,-37,49,-93c0,0,17,-58,18,-135V174c0,0,0,-37,9,-58c0,0,9,-21,24,-32c0,0,16,-13,37,-16c0,0,21,-4,47,-4h5V0H1135V527c0,0,0,50,-8,89c0,0,-9,39,-27,66c0,0,-21,26,-50,41c0,0,-32,13,-75,13c0,0,-48,0,-80,-18c0,0,-33,-19,-53,-50c0,0,-21,-31,-28,-72c0,0,-9,-42,-9,-87V174c0,0,0,-37,9,-58c0,0,9,-21,24,-32c0,0,16,-13,38,-16c0,0,21,-4,47,-4h4V0H662V527c0,0,-1,50,-9,89c0,0,-8,39,-27,66c0,0,-20,26,-50,41c0,0,-31,13,-75,13c0,0,-50,0,-83,-20c0,0,-35,-20,-55,-54c0,0,-22,-35,-30,-79c0,0,-9,-45,-9,-94V166c0,0,0,-33,10,-53c0,0,10,-22,27,-32c0,0,16,-10,40,-13c0,0,22,-4,48,-4h5V0Z" 
id="f1_12"
transform="scale(0.001,-0.001)" />

<path d="M-30,0l14,64H3c0,0,75,0,106,27c0,0,29,27,39,75L309,923c0,0,5,27,6,42c0,0,0,61,-111,61H185l13,65H545L675,220l500,871h341l-14,-65h-20c0,0,-73,0,-105,-27c0,0,-33,-28,-43,-82L1175,168c0,0,-6,-28,-6,-43c0,0,0,-61,108,-61c0,0,1,0,2,0h20L1285,0H879l13,64h5c0,0,65,0,91,25c0,0,25,23,38,71l175,816L643,0H561L413,976L242,168c0,0,-7,-33,-7,-43c0,0,-1,-61,108,-61c1,0,2,0,2,0h20L351,0Z" 
id="f2_6"
transform="scale(0.001,-0.001)" />

<path d="M683,442L588,709c0,0,-25,68,-43,127c0,0,-21,59,-33,114c0,0,-6,-28,-12,-53c0,0,-8,-26,-16,-53c0,0,-9,-26,-19,-55c0,0,-10,-31,-23,-66L338,442ZM0,0V64H29c0,0,1,0,3,0c6,0,23,1,35,5c0,0,16,5,28,18c0,0,12,13,25,37c0,0,11,22,25,60l339,907H604L949,145c0,0,8,-23,19,-39c0,0,8,-16,21,-25c0,0,12,-10,29,-13c0,0,17,-4,39,-4h20V0H657V64h35c0,0,92,0,92,73c0,0,0,12,-3,26c0,0,-4,14,-10,31L710,365H309L251,204c0,0,-8,-18,-11,-35c0,0,-4,-18,-4,-30c0,0,0,-40,26,-57c0,0,24,-18,76,-18h35V0Z" 
id="f1_z"
transform="scale(0.001,-0.001)" />

<path d="M417,-14c0,0,-60,0,-107,16c0,0,-47,17,-79,54c0,0,-33,36,-49,93c0,0,-17,57,-17,135V650c0,0,0,33,-10,55c0,0,-11,20,-27,31c0,0,-18,11,-40,15c0,0,-24,3,-48,4H35v64H309V292c0,0,0,-51,8,-89c0,0,7,-40,26,-66c0,0,18,-27,49,-40c0,0,29,-14,74,-14c1,0,2,0,3,0c0,0,50,0,88,18c0,0,35,18,59,50c0,0,23,32,34,78c0,0,12,46,12,101V645c0,0,0,35,-10,58c0,0,-10,21,-27,33c0,0,-17,11,-39,15c0,0,-24,3,-50,4h-4v64H805V166c0,0,0,-33,10,-53c0,0,10,-22,27,-32c0,0,17,-10,41,-13c0,0,21,-4,47,-4h5V0H692L672,124h-7c0,0,-24,-44,-51,-70c0,0,-28,-28,-60,-42c0,0,-31,-15,-65,-20c0,0,-35,-6,-72,-6Z" 
id="f1_m"
transform="scale(0.001,-0.001)" />

<path d="M58,-366v72h1c8,0,79,1,133,23c0,0,55,24,97,64c0,0,39,40,68,95c0,0,26,55,45,118L119,674c0,0,-10,23,-20,39c0,0,-10,14,-21,25c0,0,-13,9,-29,13c0,0,-17,3,-39,4H6v64H373V755h-4c0,0,-47,0,-69,-18c0,0,-24,-18,-23,-56c0,0,-1,-13,3,-25c0,0,2,-14,9,-31L401,353c0,0,9,-27,22,-57c0,0,11,-31,22,-61c0,0,9,-31,18,-57c0,0,7,-28,11,-47h4c0,0,8,34,23,82c0,0,14,48,34,103L637,614c0,0,7,19,11,36c0,0,2,16,2,30c0,0,0,38,-24,57c0,0,-26,18,-76,18h-5v64H863V755h-4c0,0,-23,0,-38,-5c0,0,-18,-6,-30,-18c0,0,-13,-14,-24,-37c0,0,-11,-24,-25,-59L510,-5c0,0,-27,-74,-50,-130c0,0,-25,-56,-50,-95c0,0,-27,-41,-57,-67c0,0,-32,-26,-71,-41c0,0,-40,-17,-91,-22c0,0,-51,-6,-119,-6Z" 
id="f1_k"
transform="scale(0.001,-0.001)" />

<path d="M58,0V64H78c0,0,24,0,48,4c0,0,22,3,40,13c0,0,16,10,27,32c0,0,10,20,10,53V923c0,0,0,33,-10,54c0,0,-11,20,-27,32c0,0,-18,11,-40,14c0,0,-24,3,-48,3H58v65H832V824H756l-7,65c0,0,-4,26,-12,49c0,0,-9,23,-25,40c0,0,-17,16,-43,27c0,0,-26,10,-61,10H357V573H726V498H357V174c0,0,0,-37,11,-58c0,0,9,-21,27,-32c0,0,15,-13,39,-16c0,0,23,-4,49,-4h50V0Z" 
id="f1_17"
transform="scale(0.001,-0.001)" />

<path d="M-31,0l12,64H0c0,0,72,0,103,25c0,0,31,24,45,77L309,923c0,0,5,27,6,42c0,0,0,61,-111,61H185l13,65H968L920,824H840l3,26c0,0,1,15,2,27c0,0,3,25,3,35c0,0,0,102,-115,103H483L388,573H756L741,498H373L304,174c0,0,-6,-25,-5,-38c0,0,-1,-72,106,-72h50L443,0Z" 
id="f2_4"
transform="scale(0.001,-0.001)" />

<path d="M7,0V64H22c0,0,26,0,48,5c0,0,20,4,40,15c0,0,18,11,37,31c0,0,19,19,41,47L380,411L188,674c0,0,-34,38,-65,60c0,0,-33,21,-66,21H37v64H424V755h-4c0,0,-27,0,-43,-3c0,0,-17,-5,-27,-10c0,0,-11,-7,-14,-15c0,0,-3,-8,-3,-17c0,0,-1,-16,9,-30c0,0,9,-17,27,-40L469,503l79,114c0,0,17,25,28,49c0,0,10,23,10,44c0,0,0,28,-23,37c0,0,-24,7,-59,8h-4v64H834V755H821c0,0,-23,-1,-41,-4c0,0,-19,-4,-36,-14c0,0,-17,-11,-36,-30c0,0,-19,-20,-42,-50L509,448L733,145c0,0,34,-44,64,-62c0,0,29,-19,57,-19q1,0,2,0h20V0H481V64h8c0,0,91,0,91,51c0,0,0,7,-2,17c0,0,-2,8,-9,20c0,0,-7,11,-18,28c0,0,-11,16,-29,40L420,357L313,208c0,0,-6,-9,-14,-21c0,0,-8,-12,-13,-24c0,0,-7,-14,-10,-26c0,0,-4,-13,-4,-25c0,0,0,-27,22,-37c0,0,21,-11,73,-11h4V0Z" 
id="f1_18"
transform="scale(0.001,-0.001)" />

<path d="M147,0V64H249c0,0,26,0,49,4c0,0,23,3,40,16c0,0,16,11,27,32c0,0,9,21,9,58V976c0,0,-29,-35,-55,-64c0,0,-27,-29,-50,-50c0,0,-24,-22,-46,-32c0,0,-22,-12,-44,-12c0,0,-1,0,-1,0c0,0,-1,0,-1,0c-3,0,-35,0,-55,23c0,0,-21,21,-21,59c0,0,23,5,47,15c0,0,23,7,50,22c0,0,25,13,57,34c0,0,30,18,69,47l107,79h98V174c0,0,-1,-37,10,-58c0,0,9,-21,26,-32c0,0,17,-13,41,-16c0,0,22,-4,48,-4h75V0Z" 
id="f1_u"
transform="scale(0.001,-0.001)" />

<path d="M421,0L142,946c0,0,-8,23,-17,39c0,0,-10,16,-22,25c0,0,-13,9,-30,13c0,0,-17,3,-39,3H13v65H434v-65H399c0,0,-46,0,-69,-17c0,0,-23,-18,-23,-56c0,0,0,-12,4,-26c0,0,3,-14,8,-30L460,408c0,0,18,-70,36,-136c0,0,16,-68,30,-122c0,0,11,59,27,130c0,0,14,71,35,144l182,656H880L1071,419c0,0,21,-77,39,-146c0,0,16,-71,27,-123c0,0,11,54,26,116c0,0,13,61,35,135l134,471c0,0,2,9,6,20c0,0,3,11,5,23c0,0,2,10,4,20c0,0,1,10,2,17c0,0,0,39,-25,57c0,0,-26,17,-76,17h-35v65h373v-65h-29c0,0,-23,0,-39,-4c0,0,-17,-5,-31,-17c0,0,-13,-13,-24,-36c0,0,-11,-24,-23,-61L1182,0H1045L796,856L562,0Z" 
id="f1_1b"
transform="scale(0.001,-0.001)" />

<path d="M327,0L248,946c0,0,-4,41,-23,61c0,0,-19,19,-69,19H136l14,65H565l-14,-65H516c0,0,-109,0,-109,-77c0,0,-1,-31,3,-52L446,408c0,0,10,-140,11,-258c0,0,63,150,125,274l321,656h110l50,-661c0,0,11,-150,8,-269c0,0,67,155,114,251l244,485c0,0,29,58,29,86c0,0,0,54,-86,54h-37l12,65h373l-13,-65h-29c0,0,-50,0,-77,-23c0,0,-28,-25,-64,-95L1086,0H946L877,847L466,0Z" 
id="f2_7"
transform="scale(0.001,-0.001)" />

<path d="M557,-14c-2,0,-4,0,-6,0c0,0,-115,0,-200,39c0,0,-87,41,-145,115c0,0,-60,73,-89,177c0,0,-30,103,-30,230c0,0,0,124,32,227c0,0,31,103,93,176c0,0,61,73,153,115c0,0,92,41,212,41c0,0,79,0,137,-12c0,0,57,-14,96,-37c0,0,38,-24,58,-54c0,0,18,-32,18,-68c0,0,0,-26,-9,-44c0,0,-11,-20,-29,-34c0,0,-18,-15,-42,-21c0,0,-23,-8,-49,-8c-1,0,-2,0,-4,0c0,0,0,36,-9,71c0,0,-10,34,-30,63c0,0,-22,28,-55,46c0,0,-35,16,-85,17c0,0,-86,0,-147,-31c0,0,-60,-33,-98,-93c0,0,-39,-62,-55,-150c0,0,-17,-89,-17,-204c0,0,0,-102,18,-187c0,0,17,-85,56,-146c0,0,39,-62,99,-95c0,0,59,-33,144,-33c0,0,56,0,100,11c0,0,42,10,75,28c0,0,32,18,58,42c0,0,25,22,44,49c0,0,12,-9,21,-23c0,0,8,-15,8,-37c0,0,0,-29,-19,-59c0,0,-20,-31,-61,-55C800,42,759,17,698,1c0,0,-59,-15,-141,-15Z" 
id="f1_w"
transform="scale(0.001,-0.001)" />

<path d="M223,-9c-1,0,-2,0,-3,0c0,0,-1,0,-2,0c-6,0,-22,0,-35,5c0,0,-19,4,-31,16c0,0,-13,12,-21,32c0,0,-8,20,-7,49c0,0,-1,30,7,50c0,0,8,19,21,32c0,0,12,11,31,17c0,0,16,5,37,5c0,0,19,0,37,-5c0,0,17,-6,31,-17c0,0,12,-13,21,-32c0,0,7,-20,7,-50c0,0,0,-29,-7,-49c0,0,-9,-20,-21,-32C288,12,274,0,257,-4c0,0,-16,-5,-34,-5Zm0,627c-1,0,-2,0,-3,0c0,0,-1,0,-2,0c-6,0,-22,1,-35,6c0,0,-19,5,-31,18c0,0,-13,11,-21,32c0,0,-8,20,-7,49c0,0,-1,30,7,50c0,0,8,18,21,31c0,0,12,11,31,17c0,0,16,6,37,6c0,0,19,0,37,-6c0,0,17,-6,31,-17c0,0,12,-13,21,-31c0,0,7,-20,7,-50c0,0,0,-29,-7,-49c0,0,-9,-21,-21,-32c0,0,-14,-13,-31,-18c0,0,-16,-6,-34,-6Z" 
id="f1_15"
transform="scale(0.001,-0.001)" />

<path d="M58,0V64H78c0,0,25,0,49,4c0,0,22,3,39,16c0,0,17,11,27,32c0,0,10,21,10,58V917c0,0,0,36,-10,57c0,0,-10,21,-27,34c0,0,-17,11,-39,15c0,0,-24,3,-49,3H58v65H503v-65H483c0,0,-26,0,-49,-3c0,0,-24,-4,-39,-15c0,0,-18,-13,-27,-34c0,0,-11,-21,-11,-57V174c0,0,0,-37,11,-58c0,0,9,-21,27,-32c0,0,15,-13,39,-16c0,0,23,-4,49,-4h20V0Z" 
id="f1_1d"
transform="scale(0.001,-0.001)" />

<path d="M315,0L115,674c0,0,-9,23,-19,39c0,0,-10,15,-22,26c0,0,-13,8,-29,12c0,0,-17,3,-39,4H1v64H379V755H359c0,0,-46,0,-69,-13c0,0,-24,-15,-23,-51c0,0,0,-13,5,-31c0,0,3,-18,8,-35L351,369c0,0,8,-29,16,-61c0,0,7,-33,16,-65c0,0,6,-33,12,-61c0,0,6,-29,10,-48h5c0,0,3,19,10,46c0,0,5,24,15,55c0,0,7,29,18,60c0,0,9,30,19,58L631,815h96L880,362c0,0,9,-29,20,-59c0,0,9,-33,18,-63c0,0,9,-31,17,-59c0,0,7,-28,11,-47h4c0,0,7,38,22,94c0,0,14,55,38,129l76,247c0,0,5,18,11,41c0,0,3,21,3,35c0,0,0,38,-24,57c0,0,-26,18,-77,18H988v64h327V755h-19c0,0,-23,0,-39,-5c0,0,-17,-5,-29,-17c0,0,-14,-13,-25,-36c0,0,-11,-24,-22,-61L984,0H862L680,538L652,639L436,0Z" 
id="f1_n"
transform="scale(0.001,-0.001)" />

<path d="M222,-9c-1,0,-2,0,-3,0c0,0,-1,0,-3,0c-6,0,-22,0,-35,5c0,0,-18,4,-30,16c0,0,-14,12,-21,32c0,0,-8,20,-8,49c0,0,0,30,8,50c0,0,7,19,21,32c0,0,12,11,30,17c0,0,17,5,38,5c0,0,18,0,37,-5c0,0,16,-6,30,-17c0,0,12,-13,21,-32c0,0,8,-20,8,-50c0,0,0,-29,-8,-49c0,0,-9,-20,-21,-32C286,12,272,0,256,-4c0,0,-17,-5,-34,-5Z" 
id="f1_o"
transform="scale(0.001,-0.001)" />

<path d="M229,0V64h35c0,0,25,0,49,4c0,0,22,3,39,13c0,0,17,10,28,32c0,0,9,20,9,53v849H243c0,0,-33,0,-56,-10c0,0,-24,-11,-37,-28c0,0,-15,-17,-22,-39c0,0,-8,-24,-10,-49l-8,-65H34v267H902V824H827l-8,65c0,0,-4,25,-10,49c0,0,-9,22,-22,39c0,0,-15,17,-37,28c0,0,-24,10,-58,10H544V174c0,0,0,-37,10,-58c0,0,10,-21,27,-32c0,0,16,-13,40,-16c0,0,22,-4,48,-4h35V0Z" 
id="f1_3"
transform="scale(0.001,-0.001)" />

<path d="M90,153V342H248V153Zm634,0V342H882V153ZM407,733V923H565V733Z" 
id="f3_2"
transform="scale(0.001,-0.001)" />

<path d="M380,219V501H99v91H380V874h92V592H755V501H472V219Z" 
id="f1_1h"
transform="scale(0.001,-0.001)" />

<path d="M38,359V474H436V359Z" 
id="f1_1c"
transform="scale(0.001,-0.001)" />

<path d="M148,0V81H274c0,0,1,0,2,0c5,0,19,1,31,6c0,0,14,4,24,15c0,0,10,11,14,31c0,0,5,18,5,48V946c0,0,-29,-36,-55,-65c0,0,-26,-29,-50,-50c0,0,-23,-22,-46,-32c0,0,-22,-12,-44,-12q-1,0,-2,0c0,0,-19,0,-34,8c0,0,-18,8,-29,23c0,0,-12,14,-18,35c0,0,-9,21,-8,47c0,0,23,5,49,15c0,0,25,7,54,22c0,0,28,13,61,34c0,0,32,18,71,47l108,79H577V181c0,0,0,-24,4,-43c0,0,3,-19,12,-31c0,0,8,-14,24,-19c0,0,14,-7,39,-7H779V0Z" 
id="f0_p"
transform="scale(0.001,-0.001)" />

<path d="M562,-212c0,0,-127,52,-217,121c0,0,-91,68,-147,155c0,0,-58,87,-84,193c0,0,-27,104,-27,229c0,0,0,123,27,228c0,0,26,104,84,191c0,0,56,86,147,155c0,0,90,68,217,119v-96c0,0,-70,-47,-115,-112c0,0,-45,-66,-70,-143c0,0,-26,-78,-35,-164c0,0,-10,-88,-9,-178c0,0,-1,-91,9,-179c0,0,9,-88,35,-165c0,0,25,-79,70,-143c0,0,45,-67,115,-113v-98Z" 
id="f0_1c"
transform="scale(0.001,-0.001)" />

<path d="M392,96c0,0,32,0,60,14c0,0,25,13,46,38c0,0,18,26,29,62c0,0,9,35,9,79V403H468c0,0,-47,-1,-77,-13c0,0,-31,-13,-50,-34c0,0,-19,-22,-27,-53c0,0,-8,-33,-8,-74c0,0,-1,-67,21,-100c0,0,21,-33,65,-33ZM314,-14c-2,0,-3,0,-5,0c0,0,-51,0,-94,14c0,0,-44,15,-76,46c0,0,-33,32,-52,79c0,0,-19,47,-18,111c0,0,-1,125,85,185c0,0,85,61,257,61H536v86c0,0,0,38,-3,71c0,0,-3,32,-12,57c0,0,-11,23,-29,37c0,0,-19,11,-50,12c0,0,-30,0,-49,-12c0,0,-20,-13,-32,-34c0,0,-13,-22,-16,-52c0,0,-6,-31,-6,-67h-1c-11,0,-105,1,-153,24c0,0,-53,23,-52,79c0,0,-1,41,25,71c0,0,24,29,68,49c0,0,43,18,100,27c0,0,57,8,122,8c0,0,80,0,141,-13c0,0,59,-15,100,-45c0,0,38,-30,59,-80c0,0,20,-50,20,-121V189c0,0,0,-31,6,-52c0,0,4,-21,15,-33c0,0,9,-12,28,-17c0,0,15,-6,39,-6c1,0,3,0,4,0h6V0H582L550,105H536c0,0,-26,-30,-47,-53c0,0,-23,-24,-48,-38C441,14,415,0,384,-6c0,0,-30,-8,-70,-8Z" 
id="f0_3"
transform="scale(0.001,-0.001)" />

<path d="M49,-212v98c0,0,70,46,116,113c0,0,44,64,70,143c0,0,24,77,34,165c0,0,9,88,9,179c0,0,0,90,-9,178c0,0,-10,86,-34,164c0,0,-26,77,-70,143c0,0,-46,65,-116,112v96c0,0,127,-51,218,-119c0,0,90,-69,148,-155c0,0,56,-87,83,-191c0,0,25,-105,26,-228c0,0,-1,-125,-26,-229c0,0,-27,-106,-83,-193c0,0,-58,-87,-148,-155c0,0,-91,-69,-218,-121Z" 
id="f0_1d"
transform="scale(0.001,-0.001)" />

<path d="M404,-14c0,0,-104,0,-172,18c0,0,-69,19,-110,50c0,0,-42,30,-59,69c0,0,-17,38,-17,75c0,0,0,39,14,67c0,0,15,27,39,44c0,0,23,16,55,24c0,0,30,8,65,8c0,0,0,-66,15,-115c0,0,15,-51,44,-83c0,0,26,-33,66,-50c0,0,37,-17,83,-17c0,0,45,0,80,13c0,0,35,12,60,35c0,0,25,22,37,53c0,0,12,30,13,65c0,0,0,38,-16,69c0,0,-15,30,-47,56c0,0,-33,25,-80,49c0,0,-49,23,-112,50c0,0,-80,32,-134,68c0,0,-56,34,-89,75c0,0,-34,40,-48,87c0,0,-15,47,-15,103c0,0,0,69,28,127c0,0,28,56,79,97c0,0,50,40,118,62c0,0,68,21,150,21c0,0,83,0,145,-13c0,0,61,-15,101,-38c0,0,39,-24,59,-56c0,0,19,-34,20,-70c0,0,0,-27,-11,-50c0,0,-13,-24,-35,-41c0,0,-25,-17,-59,-26c0,0,-34,-10,-78,-10c-2,0,-4,0,-5,0c0,0,-1,32,-8,69c0,0,-10,36,-29,69c0,0,-20,31,-50,52c0,0,-32,21,-75,21c0,0,-31,0,-58,-9c0,0,-29,-9,-48,-27c0,0,-22,-18,-33,-44c0,0,-12,-27,-12,-61c0,0,0,-33,11,-60c0,0,9,-29,39,-56c0,0,27,-28,76,-54c0,0,48,-28,126,-59c0,0,79,-33,134,-66c0,0,54,-33,91,-71c0,0,34,-40,51,-85c0,0,16,-46,16,-102c0,0,0,-74,-29,-135c0,0,-29,-62,-84,-106C706,78,651,34,576,10c0,0,-78,-24,-172,-24Z" 
id="f0_j"
transform="scale(0.001,-0.001)" />

<path d="M371,-14c0,0,-52,0,-93,13c0,0,-42,11,-71,40c0,0,-29,27,-44,74c0,0,-16,46,-16,113V715H32v78c0,0,49,0,88,19c0,0,38,19,62,45c0,0,46,49,70,152H379V819H574V715H379V242c0,0,0,-70,24,-102c0,0,22,-32,75,-32c0,0,1,0,2,0c0,0,29,0,57,5c0,0,27,3,51,9V23c0,0,-13,-6,-32,-13C556,10,534,4,508,0c0,0,-28,-7,-62,-10c0,0,-35,-4,-75,-4Z" 
id="f0_4"
transform="scale(0.001,-0.001)" />

<path d="M574,490c0,0,0,58,-6,105c0,0,-8,45,-22,78c0,0,-15,32,-37,49c0,0,-24,17,-56,17c0,0,-65,0,-103,-63c0,0,-38,-64,-38,-186ZM468,-14c0,0,-98,0,-171,27c0,0,-75,28,-125,82c0,0,-50,54,-75,133c0,0,-26,76,-25,177c0,0,-1,107,25,189c0,0,25,80,74,136c0,0,48,53,119,82c0,0,70,26,161,26c0,0,82,0,149,-23c0,0,65,-24,112,-70c0,0,46,-47,71,-115c0,0,25,-69,25,-159V392H308c0,0,0,-77,15,-132c0,0,14,-55,40,-91c0,0,26,-36,63,-53c0,0,37,-17,85,-17c0,0,1,0,2,0c8,0,41,1,71,10c0,0,34,9,61,26c0,0,28,16,48,40c0,0,21,22,34,48c0,0,41,-22,41,-75c0,0,0,-32,-18,-61c0,0,-18,-31,-55,-53C695,34,658,12,602,0c0,0,-57,-14,-134,-14Z" 
id="f0_5"
transform="scale(0.001,-0.001)" />

<path d="M26,0V81H44c0,0,16,0,37,4c0,0,17,3,35,13c0,0,15,10,26,30c0,0,10,19,11,53V645c0,0,-1,29,-11,49c0,0,-11,18,-27,28c0,0,-17,9,-35,13c0,0,-20,3,-36,3H26v81H385V181c0,0,0,-34,11,-53c0,0,10,-20,27,-30c0,0,16,-10,35,-13c0,0,19,-4,36,-4h18V0ZM261,956c0,0,-28,0,-51,7c0,0,-24,7,-41,20c0,0,-18,13,-27,35c0,0,-11,20,-11,49c0,0,0,28,11,50c0,0,9,21,27,34c0,0,17,12,41,19c0,0,23,6,51,6c0,0,25,0,50,-6c0,0,23,-7,42,-19c0,0,18,-13,29,-34c0,0,10,-22,10,-50c0,0,0,-29,-10,-49c0,0,-11,-22,-29,-35c0,0,-19,-13,-42,-20c0,0,-25,-7,-50,-7Z" 
id="f0_7"
transform="scale(0.001,-0.001)" />

<path d="M31,0V81h3c0,0,25,0,47,4c0,0,21,3,38,14c0,0,16,11,25,32c0,0,9,20,9,55V643c0,0,0,32,-8,52c0,0,-8,18,-22,30c0,0,-15,10,-35,14c0,0,-20,3,-45,3H38v77H359L379,710h7c0,0,24,43,50,69c0,0,25,25,54,39c0,0,29,13,62,17c0,0,32,3,68,3c0,0,83,0,144,-29c0,0,59,-31,87,-99h14c0,0,22,43,50,69c0,0,27,25,59,39c0,0,29,13,64,17c0,0,34,3,70,3c0,0,59,0,106,-17c0,0,47,-17,80,-53c0,0,32,-36,49,-91c0,0,16,-56,17,-133V189c0,0,0,-35,7,-56c0,0,5,-22,18,-33c0,0,12,-12,32,-15c0,0,19,-4,45,-4h5V0H1127V503c0,0,0,98,-27,152c0,0,-28,54,-94,54c0,0,-36,-1,-62,-17c0,0,-26,-18,-41,-48c0,0,-17,-31,-23,-70c0,0,-9,-41,-8,-84V189c0,0,0,-35,7,-56c0,0,5,-22,18,-33c0,0,12,-12,33,-15c0,0,18,-4,45,-4h4V0H640V503c0,0,-1,48,-6,88c0,0,-7,38,-21,64c0,0,-15,25,-38,40c0,0,-24,14,-57,14c0,0,-38,-1,-64,-20c0,0,-26,-19,-40,-51c0,0,-16,-33,-22,-76c0,0,-7,-44,-7,-90V181c0,0,0,-33,8,-52c0,0,7,-20,22,-30c0,0,13,-11,35,-14c0,0,19,-4,45,-4h5V0Z" 
id="f0_f"
transform="scale(0.001,-0.001)" />

<path d="M535,95c0,0,77,0,110,77c0,0,32,77,33,233c0,0,-1,152,-33,234c0,0,-34,81,-109,81c0,0,-46,0,-76,-20c0,0,-30,-22,-48,-61c0,0,-18,-40,-26,-98c0,0,-8,-60,-7,-134c0,0,-1,-80,7,-138c0,0,8,-59,26,-97c0,0,17,-40,48,-58c0,0,29,-19,75,-19ZM20,-366v81H38c0,0,16,0,37,4c0,0,18,3,35,13c0,0,15,10,27,30c0,0,9,19,10,53V631c0,0,0,34,-7,56c0,0,-9,21,-22,32c0,0,-15,11,-33,15c0,0,-20,3,-41,4H34v81H333L360,700h7c0,0,16,30,39,54c0,0,21,25,51,43c0,0,27,17,64,27c0,0,36,10,80,10c0,0,75,0,135,-25c0,0,58,-26,97,-77c0,0,39,-53,61,-134c0,0,20,-81,20,-191c0,0,0,-112,-20,-191c0,0,-20,-80,-59,-132C835,84,795,31,739,7c0,0,-56,-25,-129,-25c-1,0,-2,0,-4,0c0,0,-87,0,-141,33c0,0,-55,32,-88,89H367c0,0,3,-35,7,-69c0,0,3,-28,3,-59c0,0,0,-33,0,-56V-185c0,0,0,-34,11,-53c0,0,11,-20,27,-30c0,0,16,-10,36,-13c0,0,18,-4,35,-4h35v-81Z" 
id="f0_t"
transform="scale(0.001,-0.001)" />

<path d="M394,-14c0,0,-120,0,-183,73c0,0,-64,74,-64,228V630c0,0,-1,32,-6,54c0,0,-7,20,-19,33c0,0,-13,12,-32,16c0,0,-20,5,-47,5H40v81H379V330c0,0,0,-50,6,-89c0,0,5,-40,19,-67c0,0,13,-29,35,-43c0,0,23,-16,56,-16c0,0,1,0,1,0c5,0,38,1,63,16c0,0,25,16,43,47c0,0,16,29,25,73c0,0,7,42,7,96V640c0,0,0,34,-9,53c0,0,-10,19,-24,30c0,0,-15,9,-35,13c0,0,-20,2,-42,2h-5v81H866V178c0,0,0,-34,8,-53c0,0,8,-19,21,-29c0,0,13,-10,32,-12c0,0,16,-3,35,-3c2,0,4,0,6,0h13V0H677L643,108h-7c0,0,-24,-40,-50,-63C586,45,558,19,528,7C528,7,498,-5,464,-9c0,0,-35,-5,-70,-5Z" 
id="f0_m"
transform="scale(0.001,-0.001)" />

<path d="M26,0V81H44c0,0,16,0,37,4c0,0,17,3,35,13c0,0,15,10,26,30c0,0,10,19,11,53V987c0,0,-1,30,-11,49c0,0,-11,18,-27,29c0,0,-17,8,-35,12c0,0,-20,3,-36,3H26v81H385V181c0,0,0,-34,11,-53c0,0,10,-20,27,-30c0,0,16,-10,35,-13c0,0,19,-4,36,-4h18V0Z" 
id="f0_8"
transform="scale(0.001,-0.001)" />

<path d="M-6,356V465H771V356Z" 
id="f0_1v"
transform="scale(0.001,-0.001)" />

<path d="M469,81c0,0,43,0,75,22c0,0,30,21,49,63c0,0,19,41,27,103c0,0,7,61,8,144c0,0,-1,81,-8,144c0,0,-9,60,-28,102c0,0,-20,40,-50,62c0,0,-31,20,-74,20c0,0,-45,0,-75,-20c0,0,-30,-22,-49,-62c0,0,-19,-42,-27,-102c0,0,-8,-63,-8,-144c0,0,0,-83,9,-144c0,0,7,-62,27,-103c0,0,19,-42,50,-63c0,0,29,-22,74,-22Zm-1,-95c0,0,-1,0,-2,0c0,0,-92,0,-165,26c0,0,-73,25,-123,79c0,0,-52,52,-79,134c0,0,-28,80,-27,188c0,0,-1,215,101,320c0,0,101,105,298,105c0,0,91,0,165,-26c0,0,72,-26,123,-79c0,0,50,-53,79,-132c0,0,27,-81,27,-188c0,0,0,-217,-101,-322C764,91,662,-14,468,-14Z" 
id="f0_b"
transform="scale(0.001,-0.001)" />

<path d="M31,0V81h3c0,0,25,0,47,4c0,0,21,3,38,14c0,0,16,11,25,32c0,0,9,20,9,55V987c0,0,-1,30,-11,49c0,0,-11,18,-27,29c0,0,-17,8,-35,12c0,0,-20,3,-36,3H26v81H383V909c0,0,0,-30,0,-64c0,0,0,-35,-3,-63c0,0,-4,-35,-7,-67h13c0,0,24,43,50,68c0,0,25,24,54,37c0,0,29,12,62,16c0,0,32,2,68,2c0,0,59,0,106,-17c0,0,47,-17,80,-53c0,0,32,-36,49,-91c0,0,16,-56,17,-133V189c0,0,0,-35,7,-56c0,0,5,-22,18,-33c0,0,12,-12,33,-15c0,0,18,-4,45,-4h4V0H640V503c0,0,-1,48,-6,88c0,0,-7,38,-21,64c0,0,-15,25,-38,40c0,0,-24,14,-57,14c0,0,-38,-1,-64,-20c0,0,-26,-19,-40,-51c0,0,-16,-33,-22,-76c0,0,-7,-44,-7,-90V181c0,0,0,-33,8,-52c0,0,7,-20,22,-30c0,0,13,-11,35,-14c0,0,19,-4,45,-4h5V0Z" 
id="f0_u"
transform="scale(0.001,-0.001)" />

<path d="M31,0V81h4c0,0,25,0,48,4c0,0,21,3,37,16c0,0,16,11,25,33c0,0,7,20,8,57V634c0,0,0,33,-8,55c0,0,-8,20,-22,31c0,0,-15,11,-35,15c0,0,-20,3,-45,3H38v81H347L377,700h8c0,0,14,34,33,60c0,0,17,26,43,43c0,0,24,16,59,26c0,0,34,7,81,8c0,0,90,0,132,-31c0,0,43,-33,43,-93c0,0,-1,-71,-51,-109c0,0,-50,-39,-141,-39c0,0,-1,0,-2,0c0,0,-1,32,-4,56c0,0,-4,23,-12,39c0,0,-9,16,-23,24c0,0,-15,8,-36,8c0,0,-28,0,-47,-13c0,0,-20,-14,-33,-34c0,0,-14,-22,-22,-49c0,0,-9,-27,-13,-54c0,0,-6,-28,-6,-52c0,0,0,-25,0,-42V184c0,0,0,-34,9,-54c0,0,7,-22,22,-32c0,0,13,-10,34,-13c0,0,18,-4,41,-4h49V0Z" 
id="f0_6"
transform="scale(0.001,-0.001)" />

<path d="M373,-11c0,0,-26,0,-49,7c0,0,-24,4,-40,19c0,0,-17,13,-27,37c0,0,-10,23,-9,58c0,0,-1,34,9,59c0,0,10,22,27,37c0,0,16,14,40,20c0,0,23,5,49,6c0,0,25,-1,48,-6c0,0,23,-6,40,-20c0,0,16,-15,28,-37c0,0,9,-25,9,-59c0,0,0,-35,-9,-58c0,0,-12,-24,-28,-37C461,15,444,0,421,-4c0,0,-23,-7,-48,-7ZM328,348L298,536c0,0,65,26,107,62c0,0,41,35,66,76c0,0,24,41,33,85c0,0,9,44,9,91c0,0,0,36,-6,67c0,0,-7,30,-21,52c0,0,-15,21,-38,34c0,0,-24,12,-54,12c0,0,-35,0,-58,-16c0,0,-23,-17,-37,-42c0,0,-15,-27,-20,-61c0,0,-7,-35,-7,-74c0,0,-47,0,-86,7c0,0,-41,7,-68,20c0,0,-29,12,-45,33c0,0,-17,20,-16,47c0,0,0,36,19,70c0,0,19,32,60,56c0,0,39,23,100,38c0,0,62,13,146,13c0,0,81,0,149,-18c0,0,68,-20,119,-56c0,0,50,-37,78,-88c0,0,28,-53,28,-119c0,0,0,-62,-18,-110c0,0,-20,-48,-58,-88c0,0,-38,-41,-94,-74c0,0,-58,-35,-134,-66L421,348Z" 
id="f0_1a"
transform="scale(0.001,-0.001)" />

<path d="M33,0V27c0,0,264,241,371,393c0,0,108,152,108,278c0,0,0,96,-59,158c0,0,-59,62,-141,62c0,0,-75,0,-134,-43c0,0,-59,-44,-88,-128H63c0,0,18,138,95,212c0,0,77,74,193,74c0,0,123,0,205,-80c0,0,83,-79,83,-186c0,0,0,-77,-36,-154c0,0,-55,-121,-179,-256C424,357,238,154,191,112H455c0,0,81,0,114,6c0,0,32,6,58,25c0,0,27,18,46,52h27L630,0Z" 
id="f4_m"
transform="scale(0.001,-0.001)" />


</defs>
</svg>